SplineFontDB: 3.0
FontName: Judson-Regular
FullName: Judson Regular
FamilyName: Judson
Weight: Regular
Copyright: Copyright (c) 2009, 2010, 2011 Daniel Johnson (<il.basso.buffo@gmail.com>).\n
Version: 20110907
ItalicAngle: 0
UnderlinePosition: -205
UnderlineWidth: 102
Ascent: 1638
Descent: 410
LayerCount: 2
Layer: 0 1 "Back"  1
Layer: 1 1 "Fore"  0
NeedsXUIDChange: 1
XUID: [1021 288 713564382 1758640]
FSType: 0
OS2Version: 2
OS2_WeightWidthSlopeOnly: 0
OS2_UseTypoMetrics: 1
CreationTime: 1278450264
ModificationTime: 1315423882
PfmFamily: 17
TTFWeight: 400
TTFWidth: 5
LineGap: 0
VLineGap: 0
Panose: 2 0 6 3 0 0 0 0 0 0
OS2TypoAscent: 1860
OS2TypoAOffset: 0
OS2TypoDescent: -523
OS2TypoDOffset: 0
OS2TypoLinegap: 0
OS2WinAscent: 1860
OS2WinAOffset: 0
OS2WinDescent: 523
OS2WinDOffset: 0
HheadAscent: 1860
HheadAOffset: 0
HheadDescent: -523
HheadDOffset: 0
OS2SubXSize: 1331
OS2SubYSize: 1432
OS2SubXOff: 0
OS2SubYOff: 287
OS2SupXSize: 1331
OS2SupYSize: 1432
OS2SupXOff: 0
OS2SupYOff: 981
OS2StrikeYSize: 100
OS2StrikeYPos: 528
OS2Vendor: 'PfEd'
OS2CodePages: 00000093.00000000
OS2UnicodeRanges: a00000ff.5000000b.00000000.00000000
Lookup: 4 0 0 "'dlig' Discretionary Ligatures in Latin lookup 0"  {"'dlig' Discretionary Ligatures in Latin lookup 0 subtable"  } ['dlig' ('latn' <'dflt' > ) ]
Lookup: 4 0 0 "'dlig' Discretionary Ligatures in '    ' lookup 1"  {"'dlig' Discretionary Ligatures in '    ' lookup 1 subtable"  } ['dlig' ('    ' <'dflt' > ) ]
Lookup: 260 0 0 "'abvm' Above Base Mark lookup 0"  {"'abvm' Above Base Mark lookup 0 subtable"  } ['abvm' ('DFLT' <'dflt' > 'grek' <'dflt' > 'latn' <'dflt' > ) ]
Lookup: 260 0 0 "'mark' Mark Positioning lookup 1"  {"'mark' Mark Positioning lookup 1 subtable"  } ['mark' ('DFLT' <'dflt' > 'grek' <'dflt' > 'latn' <'dflt' > ) ]
Lookup: 260 0 0 "'blwm' Below Base Mark lookup 2"  {"'blwm' Below Base Mark lookup 2 subtable"  } ['blwm' ('DFLT' <'dflt' > 'grek' <'dflt' > 'latn' <'dflt' > ) ]

StartChar: .notdef
Encoding: 65536 -1 0
Width: 1024
Flags: HW
LayerCount: 2
Fore
SplineSet
102 0 m 1,0,-1
 102 1092 l 1,1,-1
 922 1092 l 1,2,-1
 922 0 l 1,3,-1
 102 0 l 1,0,-1
205 102 m 1,4,-1
 819 102 l 1,5,-1
 819 989 l 1,6,-1
 205 989 l 1,7,-1
 205 102 l 1,4,-1
EndSplineSet
EndChar

StartChar: exclam
Encoding: 33 33 4
Width: 481
GlyphClass: 2
Flags: HW
LayerCount: 2
Fore
SplineSet
157 17 m 128,-1,1
 119 54 119 54 119 103.5 c 128,-1,2
 119 153 119 153 152.5 193 c 128,-1,3
 186 233 186 233 236.5 233 c 128,-1,4
 287 233 287 233 326 197 c 128,-1,5
 365 161 365 161 365 111.5 c 128,-1,6
 365 62 365 62 330.5 21 c 128,-1,7
 296 -20 296 -20 245.5 -20 c 128,-1,0
 195 -20 195 -20 157 17 c 128,-1,1
139 1183.5 m 0,8,9
 139 1290 139 1290 239.5 1290 c 128,-1,10
 340 1290 340 1290 340 1183.5 c 0,11,12
 340 1124 340 1124 316 840 c 128,-1,13
 292 556 292 556 287 520 c 0,14,15
 270 381 270 381 240 381 c 128,-1,16
 210 381 210 381 193 520 c 0,17,18
 187 562 187 562 163 843 c 128,-1,19
 139 1124 139 1124 139 1183.5 c 0,8,9
EndSplineSet
EndChar

StartChar: quotedbl
Encoding: 34 34 5
Width: 679
GlyphClass: 2
Flags: HW
LayerCount: 2
Fore
SplineSet
176 1362 m 128,-1,1
 268 1362 268 1362 268 1270 c 0,2,3
 268 1217 268 1217 238.5 1026.5 c 128,-1,4
 209 836 209 836 176.5 836 c 128,-1,5
 144 836 144 836 113 1028 c 1,6,7
 84 1238 84 1238 84 1270 c 0,8,0
 84 1362 84 1362 176 1362 c 128,-1,1
504 1362 m 128,-1,10
 596 1362 596 1362 596 1270 c 0,11,12
 596 1224 596 1224 566 1030 c 128,-1,13
 536 836 536 836 503.5 836 c 128,-1,14
 471 836 471 836 440 1028 c 1,15,16
 412 1231 412 1231 412 1270 c 0,17,9
 412 1362 412 1362 504 1362 c 128,-1,10
EndSplineSet
EndChar

StartChar: numbersign
Encoding: 35 35 6
Width: 995
GlyphClass: 2
Flags: HW
LayerCount: 2
Fore
SplineSet
897 471 m 1,0,-1
 897 401 l 1,1,-1
 662 401 l 1,2,-1
 606 0 l 1,3,-1
 535 0 l 1,4,-1
 590 401 l 1,5,-1
 334 401 l 1,6,-1
 279 0 l 1,7,-1
 207 0 l 1,8,-1
 262 401 l 1,9,-1
 68 401 l 1,10,-1
 68 471 l 1,11,-1
 272 471 l 1,12,-1
 309 729 l 1,13,-1
 98 729 l 1,14,-1
 98 799 l 1,15,-1
 319 799 l 1,16,-1
 375 1198 l 1,17,-1
 446 1198 l 1,18,-1
 391 799 l 1,19,-1
 647 799 l 1,20,-1
 702 1198 l 1,21,-1
 774 1198 l 1,22,-1
 719 799 l 1,23,-1
 928 799 l 1,24,-1
 928 729 l 1,25,-1
 709 729 l 1,26,-1
 672 471 l 1,27,-1
 897 471 l 1,0,-1
344 471 m 1,28,-1
 600 471 l 1,29,-1
 637 729 l 1,30,-1
 381 729 l 1,31,-1
 344 471 l 1,28,-1
EndSplineSet
EndChar

StartChar: dollar
Encoding: 36 36 7
Width: 931
GlyphClass: 2
Flags: HW
LayerCount: 2
Fore
SplineSet
430 -18 m 1,0,1
 248.163265306 -4.77551020408 248.163265306 -4.77551020408 100 94 c 1,2,-1
 100 285 l 1,3,-1
 145 285 l 1,4,5
 185.816958277 69.7833109017 185.816958277 69.7833109017 430 51 c 1,6,-1
 430 524 l 1,7,8
 291 606 291 606 235 653 c 0,9,10
 102 765 102 765 102 893.5 c 128,-1,11
 102 1022 102 1022 199.5 1118.5 c 128,-1,12
 297 1215 297 1215 430 1219 c 1,13,-1
 430 1270 l 1,14,-1
 492 1270 l 1,15,-1
 492 1217 l 1,16,17
 607.866666667 1203.83333333 607.866666667 1203.83333333 710 1140 c 1,18,19
 736 1126 736 1126 760 1106 c 1,20,-1
 760 938 l 1,21,-1
 715 938 l 1,22,23
 704 1021 704 1021 648 1078.5 c 128,-1,24
 592 1136 592 1136 492 1147 c 1,25,-1
 492 723 l 1,26,27
 649 635 649 635 712 585 c 0,28,29
 868 461 868 461 868 303.827102804 c 0,30,31
 868 146.654205607 868 146.654205607 755.123615901 64.3704863579 c 0,32,33
 642.247231803 -17.9132328916 642.247231803 -17.9132328916 492 -20 c 1,34,-1
 492 -74 l 1,35,-1
 430 -74 l 1,36,-1
 430 -18 l 1,0,1
430 760 m 1,37,-1
 430 1149 l 1,38,39
 371 1146 371 1146 329.5 1114 c 0,40,41
 256 1057.3253012 256 1057.3253012 256 980.662650602 c 128,-1,42
 256 904 256 904 300.5 857.5 c 128,-1,43
 345 811 345 811 430 760 c 1,37,-1
492 489 m 1,44,-1
 492 49 l 1,45,46
 590 52 590 52 645 101 c 128,-1,47
 700 150 700 150 700 240.192307692 c 0,48,49
 700 330.384615385 700 330.384615385 641.974576271 383.94654498 c 0,50,51
 583.949152542 437.508474576 583.949152542 437.508474576 492 489 c 1,44,-1
EndSplineSet
EndChar

StartChar: percent
Encoding: 37 37 8
Width: 1114
GlyphClass: 2
Flags: HW
LayerCount: 2
Fore
SplineSet
944 1157 m 1,0,-1
 254 41 l 1,1,-1
 172 41 l 1,2,-1
 862 1157 l 1,3,-1
 944 1157 l 1,0,-1
188 954 m 128,-1,5
 188 885 188 885 217.5 829.5 c 128,-1,6
 247 774 247 774 282.5 774 c 0,7,8
 318 774 318 774 347.5 830 c 128,-1,9
 377 886 377 886 377 954.5 c 0,10,11
 377 1023 377 1023 347.5 1079 c 128,-1,12
 318 1135 318 1135 283 1135 c 128,-1,13
 248 1135 248 1135 218 1079 c 128,-1,4
 188 1023 188 1023 188 954 c 128,-1,5
63 954 m 128,-1,15
 63 1058 63 1058 129.5 1131 c 128,-1,16
 196 1204 196 1204 283 1204 c 128,-1,17
 370 1204 370 1204 436 1131 c 128,-1,18
 502 1058 502 1058 502 954 c 128,-1,19
 502 850 502 850 436 777.5 c 128,-1,20
 370 705 370 705 283 705 c 128,-1,21
 196 705 196 705 129.5 777.5 c 128,-1,14
 63 850 63 850 63 954 c 128,-1,15
737 244 m 128,-1,23
 737 175 737 175 766.5 119 c 128,-1,24
 796 63 796 63 831 63 c 128,-1,25
 866 63 866 63 896 119 c 128,-1,26
 926 175 926 175 926 244 c 128,-1,27
 926 313 926 313 896.5 368.5 c 128,-1,28
 867 424 867 424 831.5 424 c 0,29,30
 796 424 796 424 766.5 368.5 c 128,-1,22
 737 313 737 313 737 244 c 128,-1,23
612 244 m 128,-1,32
 612 348 612 348 678 421 c 128,-1,33
 744 494 744 494 831 494 c 128,-1,34
 918 494 918 494 984.5 421 c 128,-1,35
 1051 348 1051 348 1051 244 c 128,-1,36
 1051 140 1051 140 984.5 67 c 128,-1,37
 918 -6 918 -6 831 -6 c 128,-1,38
 744 -6 744 -6 678 67 c 128,-1,31
 612 140 612 140 612 244 c 128,-1,32
EndSplineSet
EndChar

StartChar: ampersand
Encoding: 38 38 9
Width: 1239
GlyphClass: 2
Flags: HW
LayerCount: 2
Fore
SplineSet
656.5 1092 m 128,-1,1
 631 1147 631 1147 575 1147 c 128,-1,2
 519 1147 519 1147 498 1101 c 128,-1,3
 477 1055 477 1055 477 962.5 c 128,-1,4
 477 870 477 870 526 731 c 1,5,6
 682 840 682 840 682 961 c 0,7,0
 682 1037 682 1037 656.5 1092 c 128,-1,1
461 -20 m 0,8,9
 41 -20 41 -20 41 260 c 0,10,11
 41 398.4 41 398.4 191.5 514.5 c 0,12,13
 264.917647059 571.136470588 264.917647059 571.136470588 381 639 c 1,14,15
 309 840 309 840 309 971 c 0,16,17
 309 1219 309 1219 543 1219 c 0,18,19
 644 1219 644 1219 706 1148.5 c 128,-1,20
 768 1078 768 1078 768 982 c 128,-1,21
 768 886 768 886 711.5 808.5 c 128,-1,22
 655 731 655 731 555 655 c 1,23,24
 649 422 649 422 791 238 c 1,25,26
 830.268156425 302.25698324 830.268156425 302.25698324 846.134078212 341.12849162 c 128,-1,27
 862 380 862 380 868.5 395 c 128,-1,28
 875 410 875 410 885 438 c 128,-1,29
 895 466 895 466 899.5 478 c 128,-1,30
 904 490 904 490 913.5 520 c 128,-1,31
 923 550 923 550 925.5 557.5 c 128,-1,32
 928 565 928 565 937.5 596.5 c 128,-1,33
 947 628 947 628 948 631 c 1,34,35
 928 664 928 664 823 664 c 1,36,-1
 823 707 l 1,37,-1
 1159 707 l 1,38,-1
 1159 664 l 1,39,40
 1042 664 1042 664 1030 625 c 0,41,42
 935 322 935 322 834 184 c 1,43,44
 921 90 921 90 988 90 c 128,-1,45
 1055 90 1055 90 1086 105 c 128,-1,46
 1117 120 1117 120 1149 166 c 1,47,-1
 1174 145 l 1,48,49
 1127.8 22.9 1127.8 22.9 1045 -7 c 0,50,51
 1009 -20 1009 -20 963 -20 c 0,52,53
 846 -20 846 -20 731 74 c 1,54,55
 612 -20 612 -20 461 -20 c 0,8,9
684 117 m 1,56,57
 533 268 533 268 416 551 c 1,58,59
 334 488 334 488 290 431 c 128,-1,60
 246 374 246 374 246 307 c 0,61,62
 246 66 246 66 537 66 c 0,63,64
 618 66 618 66 684 117 c 1,56,57
EndSplineSet
EndChar

StartChar: quotesingle
Encoding: 39 39 10
Width: 352
GlyphClass: 2
Flags: HW
LayerCount: 2
Fore
SplineSet
176 1362 m 128,-1,1
 268 1362 268 1362 268 1270 c 0,2,3
 268 1217 268 1217 238.5 1026.5 c 128,-1,4
 209 836 209 836 176.5 836 c 128,-1,5
 144 836 144 836 113 1028 c 1,6,7
 84 1238 84 1238 84 1270 c 0,8,0
 84 1362 84 1362 176 1362 c 128,-1,1
EndSplineSet
EndChar

StartChar: parenleft
Encoding: 40 40 11
Width: 497
GlyphClass: 2
Flags: HW
LayerCount: 2
Fore
SplineSet
412 -80 m 0,0,1
 412 -102 412 -102 395 -102 c 128,-1,2
 378 -102 378 -102 353 -71.5 c 128,-1,3
 328 -41 328 -41 298 2 c 128,-1,4
 268 45 268 45 226.5 119.5 c 128,-1,5
 185 194 185 194 155 269.5 c 128,-1,6
 125 345 125 345 103.5 445.5 c 128,-1,7
 82 546 82 546 82 645 c 128,-1,8
 82 744 82 744 103.5 844.5 c 0,9,10
 140.034935773 1015.2795835 140.034935773 1015.2795835 215.185332027 1150.18812617 c 128,-1,11
 290.335728282 1285.09666884 290.335728282 1285.09666884 360 1370 c 0,12,13
 378 1393 378 1393 389 1393 c 0,14,15
 412 1393 412 1393 412 1370 c 0,16,17
 412 1360.6 412 1360.6 391 1313.8 c 128,-1,18
 370 1267 370 1267 364 1252.5 c 128,-1,19
 358 1238 358 1238 342 1197.5 c 128,-1,20
 326 1157 326 1157 319 1130.5 c 128,-1,21
 312 1104 312 1104 299 1059 c 0,22,23
 283.844919786 1006.54010695 283.844919786 1006.54010695 268.922459893 893.555767762 c 128,-1,24
 254 780.571428571 254 780.571428571 254 671.785714286 c 128,-1,25
 254 563 254 563 259 490.5 c 128,-1,26
 264 418 264 418 275.5 354 c 128,-1,27
 287 290 287 290 296 246 c 128,-1,28
 305 202 305 202 324.5 147 c 0,29,30
 353.859060403 64.192393736 353.859060403 64.192393736 382.929530201 -2.99269202088 c 128,-1,31
 412 -70.1777777778 412 -70.1777777778 412 -80 c 0,0,1
EndSplineSet
EndChar

StartChar: parenright
Encoding: 41 41 12
Width: 497
GlyphClass: 2
Flags: HW
LayerCount: 2
Fore
SplineSet
86 1370 m 0,0,1
 86 1393 86 1393 102 1393 c 128,-1,2
 118 1393 118 1393 143.5 1361.5 c 128,-1,3
 169 1330 169 1330 199 1287.5 c 128,-1,4
 229 1245 229 1245 271 1170.5 c 128,-1,5
 313 1096 313 1096 343 1020.5 c 128,-1,6
 373 945 373 945 394.5 844.5 c 128,-1,7
 416 744 416 744 416 645 c 128,-1,8
 416 546 416 546 394.5 445.5 c 0,9,10
 335.037351443 167.546689304 335.037351443 167.546689304 137 -80 c 0,11,12
 119 -102 119 -102 102.5 -102 c 128,-1,13
 86 -102 86 -102 86 -80 c 0,14,15
 86 -71.4772727273 86 -71.4772727273 110.5 -15.2386363636 c 128,-1,16
 135 41 135 41 139.5 52.5 c 128,-1,17
 144 64 144 64 163.5 116 c 128,-1,18
 183 168 183 168 189.5 196 c 128,-1,19
 196 224 196 224 210 282 c 128,-1,20
 224 340 224 340 234 437 c 128,-1,21
 244 534 244 534 244 630.5 c 128,-1,22
 244 727 244 727 239.5 799.5 c 128,-1,23
 235 872 235 872 223 936.5 c 128,-1,24
 211 1001 211 1001 202.5 1044.5 c 0,25,26
 193.300986842 1091.57730263 193.300986842 1091.57730263 156.605038876 1191.87956041 c 128,-1,27
 119.909090909 1292.18181818 119.909090909 1292.18181818 90 1352 c 1,28,29
 86 1364 86 1364 86 1370 c 0,0,1
EndSplineSet
EndChar

StartChar: asterisk
Encoding: 42 42 13
Width: 737
GlyphClass: 2
Flags: HW
LayerCount: 2
Fore
SplineSet
645 1042 m 0,0,1
 645 963 645 963 580 963 c 0,2,3
 548 963 548 963 489.5 975 c 128,-1,4
 431 987 431 987 418 997 c 1,5,6
 420 993 420 993 420 979 c 128,-1,7
 420 965 420 965 401 946 c 1,8,9
 424 946 424 946 489.5 914.5 c 128,-1,10
 555 883 555 883 567.5 865 c 128,-1,11
 580 847 580 847 580 821 c 128,-1,12
 580 795 580 795 544.5 764 c 128,-1,13
 509 733 509 733 473.5 733 c 128,-1,14
 438 733 438 733 424 753 c 128,-1,15
 410 773 410 773 401.5 826.5 c 128,-1,16
 393 880 393 880 393 908 c 128,-1,17
 393 936 393 936 395 940 c 1,18,19
 384 932 384 932 368 932 c 128,-1,20
 352 932 352 932 340 938 c 1,21,22
 342 932 342 932 342 903.5 c 128,-1,23
 342 875 342 875 333.5 824 c 128,-1,24
 325 773 325 773 309.5 753 c 128,-1,25
 294 733 294 733 259.5 733 c 128,-1,26
 225 733 225 733 191.5 763 c 128,-1,27
 158 793 158 793 158 820.5 c 128,-1,28
 158 848 158 848 170 865.5 c 128,-1,29
 182 883 182 883 245.5 913.5 c 128,-1,30
 309 944 309 944 332 946 c 1,31,32
 313 962 313 962 313 974.5 c 128,-1,33
 313 987 313 987 314 991 c 128,-1,34
 315 995 315 995 315 997 c 1,35,36
 298 987 298 987 242 975 c 128,-1,37
 186 963 186 963 155 963 c 128,-1,38
 124 963 124 963 107 984 c 128,-1,39
 90 1005 90 1005 90 1040 c 128,-1,40
 90 1075 90 1075 115 1108 c 128,-1,41
 140 1141 140 1141 172 1141 c 0,42,43
 177 1141 177 1141 195 1136 c 128,-1,44
 213 1131 213 1131 261 1080.5 c 128,-1,45
 309 1030 309 1030 317 1008 c 1,46,47
 330 1034 330 1034 362 1038 c 1,48,49
 345 1050 345 1050 310.5 1114 c 128,-1,50
 276 1178 276 1178 276 1204.5 c 128,-1,51
 276 1231 276 1231 302 1250.5 c 128,-1,52
 328 1270 328 1270 366.5 1270 c 128,-1,53
 405 1270 405 1270 431 1250.5 c 128,-1,54
 457 1231 457 1231 457 1204.5 c 128,-1,55
 457 1178 457 1178 422.5 1114 c 128,-1,56
 388 1050 388 1050 371 1038 c 1,57,58
 403 1035 403 1035 416 1006 c 1,59,60
 421 1025 421 1025 472 1078 c 128,-1,61
 523 1131 523 1131 541 1136 c 128,-1,62
 559 1141 559 1141 565 1141 c 0,63,64
 596 1141 596 1141 620.5 1109 c 128,-1,65
 645 1077 645 1077 645 1042 c 0,0,1
EndSplineSet
EndChar

StartChar: plus
Encoding: 43 43 14
Width: 827
GlyphClass: 2
Flags: HW
LayerCount: 2
Fore
SplineSet
459 606 m 1,0,-1
 459 317 l 1,1,-1
 369 317 l 1,2,-1
 369 606 l 1,3,-1
 80 606 l 1,4,-1
 80 696 l 1,5,-1
 369 696 l 1,6,-1
 369 985 l 1,7,-1
 459 985 l 1,8,-1
 459 696 l 1,9,-1
 748 696 l 1,10,-1
 748 606 l 1,11,-1
 459 606 l 1,0,-1
EndSplineSet
EndChar

StartChar: comma
Encoding: 44 44 15
Width: 471
GlyphClass: 2
Flags: HW
LayerCount: 2
Fore
SplineSet
247 1 m 128,-1,1
 229 -12 229 -12 195 -12 c 128,-1,2
 161 -12 161 -12 131.5 15 c 128,-1,3
 102 42 102 42 102 92.5 c 128,-1,4
 102 143 102 143 141 174 c 128,-1,5
 180 205 180 205 219 205 c 0,6,7
 292 205 292 205 338.5 140.5 c 128,-1,8
 385 76 385 76 385 8.5 c 128,-1,9
 385 -59 385 -59 364 -100 c 0,10,11
 306.658146965 -211.95314164 306.658146965 -211.95314164 131 -264 c 1,12,-1
 131 -207 l 1,13,14
 183 -200 183 -200 237 -150 c 128,-1,15
 291 -100 291 -100 291 -50.5 c 128,-1,16
 291 -1 291 -1 287 6.5 c 128,-1,17
 283 14 283 14 274 14 c 128,-1,0
 265 14 265 14 247 1 c 128,-1,1
EndSplineSet
EndChar

StartChar: hyphen
Encoding: 45 45 16
Width: 794
GlyphClass: 2
Flags: HW
LayerCount: 2
Fore
SplineSet
127 696 m 1,0,-1
 668 696 l 1,1,-1
 668 606 l 1,2,-1
 127 606 l 1,3,-1
 127 696 l 1,0,-1
EndSplineSet
EndChar

StartChar: period
Encoding: 46 46 17
Width: 450
GlyphClass: 2
Flags: HW
LayerCount: 2
Fore
SplineSet
140 17 m 128,-1,1
 102 54 102 54 102 103.5 c 128,-1,2
 102 153 102 153 135.5 193 c 128,-1,3
 169 233 169 233 219.5 233 c 128,-1,4
 270 233 270 233 309 197 c 128,-1,5
 348 161 348 161 348 111.5 c 128,-1,6
 348 62 348 62 313.5 21 c 128,-1,7
 279 -20 279 -20 228.5 -20 c 128,-1,0
 178 -20 178 -20 140 17 c 128,-1,1
EndSplineSet
EndChar

StartChar: slash
Encoding: 47 47 18
Width: 937
GlyphClass: 2
Flags: HW
LayerCount: 2
Fore
SplineSet
41 -20 m 1,0,-1
 838 1253 l 1,1,-1
 897 1217 l 1,2,-1
 100 -57 l 1,3,-1
 41 -20 l 1,0,-1
EndSplineSet
EndChar

StartChar: zero
Encoding: 48 48 19
Width: 1003
GlyphClass: 2
Flags: HW
LayerCount: 2
Fore
SplineSet
254 598 m 128,-1,1
 254 457 254 457 284.5 330.5 c 128,-1,2
 315 204 315 204 373 123.5 c 128,-1,3
 431 43 431 43 502 43 c 128,-1,4
 573 43 573 43 631 123.5 c 128,-1,5
 689 204 689 204 719.5 330.5 c 128,-1,6
 750 457 750 457 750 598 c 128,-1,7
 750 739 750 739 719.5 866 c 128,-1,8
 689 993 689 993 631 1074 c 128,-1,9
 573 1155 573 1155 502 1155 c 128,-1,10
 431 1155 431 1155 373 1074 c 128,-1,11
 315 993 315 993 284.5 866 c 128,-1,0
 254 739 254 739 254 598 c 128,-1,1
99 362 m 128,-1,13
 70 473 70 473 70 619.5 c 128,-1,14
 70 766 70 766 118.5 905 c 128,-1,15
 167 1044 167 1044 267 1131.5 c 128,-1,16
 367 1219 367 1219 502 1219 c 128,-1,17
 637 1219 637 1219 737 1131.5 c 0,18,19
 934 959.125 934 959.125 934 598 c 0,20,21
 934 344.566037736 934 344.566037736 823 165.5 c 0,22,23
 770 80 770 80 687 30 c 128,-1,24
 604 -20 604 -20 502 -20 c 128,-1,25
 400 -20 400 -20 317 30 c 128,-1,26
 234 80 234 80 181 165.5 c 128,-1,12
 128 251 128 251 99 362 c 128,-1,13
EndSplineSet
EndChar

StartChar: one
Encoding: 49 49 20
Width: 1003
GlyphClass: 2
Flags: HW
LayerCount: 2
Fore
SplineSet
659 1198 m 1,0,-1
 659 125 l 2,1,2
 659 64.7721518987 659 64.7721518987 834.5 47 c 0,3,4
 874 43 874 43 911 43 c 1,5,-1
 911 0 l 1,6,-1
 219 0 l 1,7,-1
 219 43 l 1,8,9
 381.657142857 43 381.657142857 43 444.5 84.5 c 0,10,11
 471 102 471 102 471 125 c 2,12,-1
 471 909 l 1,13,14
 390 860 390 860 254 760 c 1,15,-1
 240 795 l 1,16,-1
 604 1198 l 1,17,-1
 659 1198 l 1,0,-1
EndSplineSet
EndChar

StartChar: two
Encoding: 50 50 21
Width: 1003
GlyphClass: 2
Flags: HW
LayerCount: 2
Fore
SplineSet
82 0 m 1,0,1
 82 37.0465116279 82 37.0465116279 233.5 181.5 c 0,2,3
 666 593.88372093 666 593.88372093 666 848 c 0,4,5
 666 935.106382979 666 935.106382979 615.586666667 1015.55319149 c 0,6,7
 565.173333333 1096 565.173333333 1096 472.086666667 1096 c 128,-1,8
 379 1096 379 1096 316 1075.5 c 128,-1,9
 253 1055 253 1055 220.5 1026.5 c 128,-1,10
 188 998 188 998 168 969 c 128,-1,11
 148 940 148 940 137 919.5 c 128,-1,12
 126 899 126 899 119 899 c 0,13,14
 102 899 102 899 102 918 c 128,-1,15
 102 937 102 937 113.5 969.5 c 128,-1,16
 125 1002 125 1002 154 1045.5 c 128,-1,17
 183 1089 183 1089 224.5 1127.5 c 128,-1,18
 266 1166 266 1166 334.5 1192.5 c 128,-1,19
 403 1219 403 1219 493 1219 c 128,-1,20
 583 1219 583 1219 658 1190.5 c 128,-1,21
 733 1162 733 1162 777.5 1113 c 0,22,23
 866 1015.5505618 866 1015.5505618 866 874 c 0,24,25
 866 806 866 806 810.5 711.5 c 128,-1,26
 755 617 755 617 676 528 c 128,-1,27
 597 439 597 439 518 358.5 c 128,-1,28
 439 278 439 278 383.5 218.5 c 128,-1,29
 328 159 328 159 328 143 c 1,30,-1
 760 143 l 1,31,32
 789 155 789 155 825.5 189 c 128,-1,33
 862 223 862 223 881 272 c 1,34,-1
 922 272 l 1,35,-1
 844 0 l 1,36,-1
 82 0 l 1,0,1
EndSplineSet
EndChar

StartChar: three
Encoding: 51 51 22
Width: 1003
GlyphClass: 2
Flags: HW
LayerCount: 2
Fore
SplineSet
98 147 m 0,0,1
 98 258 98 258 161.5 258 c 0,2,3
 193 258 193 258 207 235.5 c 128,-1,4
 221 213 221 213 235.5 181.5 c 128,-1,5
 250 150 250 150 272.5 118 c 128,-1,6
 295 86 295 86 346 63.5 c 128,-1,7
 397 41 397 41 466.5 41 c 128,-1,8
 536 41 536 41 584.5 58.5 c 0,9,10
 670.597520661 89.5661157025 670.597520661 89.5661157025 702.798760331 158.568772137 c 128,-1,11
 735 227.571428571 735 227.571428571 735 288.285714286 c 128,-1,12
 735 349 735 349 725 395 c 128,-1,13
 715 441 715 441 693.5 490.5 c 128,-1,14
 672 540 672 540 630.5 573 c 128,-1,15
 589 606 589 606 535 606 c 1,16,-1
 434 596 l 1,17,18
 421 596 421 596 408 605 c 128,-1,19
 395 614 395 614 395 622.5 c 128,-1,20
 395 631 395 631 410 637 c 1,21,22
 505.800957956 665.536455561 505.800957956 665.536455561 564.900478978 711.268227781 c 0,23,24
 674 795.69047619 674 795.69047619 674 913 c 0,25,26
 674 996 674 996 616.5 1046 c 128,-1,27
 559 1096 559 1096 472.5 1096 c 128,-1,28
 386 1096 386 1096 334 1079.5 c 128,-1,29
 282 1063 282 1063 255.5 1039.5 c 128,-1,30
 229 1016 229 1016 213 992.5 c 128,-1,31
 197 969 197 969 187 952.5 c 128,-1,32
 177 936 177 936 170 936 c 0,33,34
 154 936 154 936 154 954 c 128,-1,35
 154 972 154 972 164.5 1001.5 c 0,36,37
 189.954081633 1073.0138484 189.954081633 1073.0138484 267.37098021 1146.0069242 c 128,-1,38
 344.787878788 1219 344.787878788 1219 477 1219 c 0,39,40
 674 1219 674 1219 762 1148.5 c 128,-1,41
 850 1078 850 1078 850 940 c 0,42,43
 850 863 850 863 793.5 795.5 c 128,-1,44
 737 728 737 728 651 678 c 1,45,46
 751 653 751 653 828 553.5 c 128,-1,47
 905 454 905 454 905 352 c 0,48,49
 905 142.239130435 905 142.239130435 782 54 c 0,50,51
 678.848484848 -20 678.848484848 -20 483 -20 c 0,52,53
 400 -20 400 -20 323.5 0.5 c 128,-1,54
 247 21 247 21 200 49.5 c 128,-1,55
 153 78 153 78 125.5 105 c 128,-1,56
 98 132 98 132 98 147 c 0,0,1
EndSplineSet
EndChar

StartChar: four
Encoding: 52 52 23
Width: 1003
GlyphClass: 2
Flags: HW
LayerCount: 2
Fore
SplineSet
436 43 m 1,0,1
 548.227272727 43 548.227272727 43 565 84 c 1,2,-1
 565 360 l 1,3,-1
 80 360 l 1,4,-1
 643 1198 l 1,5,-1
 750 1198 l 1,6,-1
 750 422 l 1,7,-1
 915 422 l 1,8,-1
 915 360 l 1,9,-1
 750 360 l 1,10,-1
 750 84 l 1,11,12
 766.772727273 43 766.772727273 43 879 43 c 1,13,-1
 879 0 l 1,14,-1
 436 0 l 1,15,-1
 436 43 l 1,0,1
565 422 m 1,16,-1
 565 973 l 1,17,-1
 193 422 l 1,18,-1
 565 422 l 1,16,-1
EndSplineSet
EndChar

StartChar: five
Encoding: 53 53 24
Width: 1003
GlyphClass: 2
Flags: HW
LayerCount: 2
Fore
SplineSet
98 147 m 0,0,1
 98 258 98 258 160 258 c 0,2,3
 190 258 190 258 202.5 242 c 128,-1,4
 215 226 215 226 223 202 c 0,5,6
 241.314285714 147.057142857 241.314285714 147.057142857 297.657142857 94.0285714286 c 128,-1,7
 354 41 354 41 499.915730337 41 c 128,-1,8
 645.831460674 41 645.831460674 41 706 198.5 c 0,9,10
 735 274.411764706 735 274.411764706 735 347.705882353 c 128,-1,11
 735 421 735 421 720.5 471 c 0,12,13
 650.32 713 650.32 713 209 713 c 1,14,-1
 276 1198 l 1,15,-1
 848 1198 l 1,16,-1
 799 1055 l 1,17,-1
 328 1055 l 1,18,-1
 291 793 l 1,19,20
 681.307692308 793 681.307692308 793 826 622 c 0,21,22
 905 528.636363636 905 528.636363636 905 398.581818182 c 128,-1,23
 905 268.527272727 905 268.527272727 867 189.763636364 c 128,-1,24
 829 111 829 111 786 71 c 0,25,26
 688.175 -20 688.175 -20 492.502393617 -20 c 128,-1,27
 296.829787234 -20 296.829787234 -20 163 72.5 c 0,28,29
 98 117.426470588 98 117.426470588 98 147 c 0,0,1
EndSplineSet
EndChar

StartChar: six
Encoding: 54 54 25
Width: 1003
GlyphClass: 2
Flags: HW
LayerCount: 2
Fore
SplineSet
305 641 m 1,0,1
 293 555 293 555 293 452 c 0,2,3
 293 238.714285714 293 238.714285714 357.914893617 141.857142857 c 128,-1,4
 422.829787234 45 422.829787234 45 512.414893617 45 c 128,-1,5
 602 45 602 45 656.5 144.5 c 128,-1,6
 711 244 711 244 711 374.369047619 c 128,-1,7
 711 504.738095238 711 504.738095238 680.5 569.369047619 c 0,8,9
 624.516853933 688 624.516853933 688 499.758426966 688 c 128,-1,10
 375 688 375 688 305 641 c 1,0,1
315 709 m 1,11,12
 398 758 398 758 498 758 c 128,-1,13
 598 758 598 758 667 739.5 c 0,14,15
 796.430109409 704.797724289 796.430109409 704.797724289 845.715054705 614.596975352 c 128,-1,16
 895 524.396226415 895 524.396226415 895 385 c 0,17,18
 895 196 895 196 795 88 c 128,-1,19
 695 -20 695 -20 514 -20 c 0,20,21
 383 -20 383 -20 290 44 c 128,-1,22
 197 108 197 108 153 214.5 c 128,-1,23
 109 321 109 321 109 459 c 128,-1,24
 109 597 109 597 148.5 722 c 0,25,26
 217.332371366 939.82396002 217.332371366 939.82396002 378.880245715 1078.58944183 c 128,-1,27
 540.428120063 1217.35492364 540.428120063 1217.35492364 686 1235 c 1,28,-1
 711 1198 l 1,29,30
 559 1159 559 1159 456.5 1034.5 c 128,-1,31
 354 910 354 910 315 709 c 1,11,12
EndSplineSet
EndChar

StartChar: seven
Encoding: 55 55 26
Width: 1003
GlyphClass: 2
Flags: HW
LayerCount: 2
Fore
SplineSet
371 23 m 0,0,1
 371 106 371 106 427 271.5 c 128,-1,2
 483 437 483 437 550 589.5 c 0,3,4
 729 996.925373134 729 996.925373134 729 1055 c 1,5,-1
 281 1055 l 1,6,7
 252 1043 252 1043 215.5 1009 c 128,-1,8
 179 975 179 975 160 926 c 1,9,-1
 119 926 l 1,10,-1
 197 1198 l 1,11,-1
 885 1198 l 1,12,13
 885 1163.5620438 885 1163.5620438 701.5 709.5 c 0,14,15
 633 540 633 540 575.5 341.5 c 128,-1,16
 518 143 518 143 518 23 c 0,17,18
 518 2 518 2 494 -9 c 128,-1,19
 470 -20 470 -20 442 -20 c 128,-1,20
 414 -20 414 -20 392.5 -9 c 128,-1,21
 371 2 371 2 371 23 c 0,0,1
EndSplineSet
EndChar

StartChar: eight
Encoding: 56 56 27
Width: 1003
GlyphClass: 2
Flags: HW
LayerCount: 2
Fore
SplineSet
563 664 m 1,0,1
 735 759 735 759 735 952 c 0,2,3
 735 1047 735 1047 679.5 1100 c 128,-1,4
 624 1153 624 1153 543 1153 c 0,5,6
 317 1153 317 1153 317 938 c 0,7,8
 317 870.365853659 317 870.365853659 384.999015748 807.342375648 c 0,9,10
 452.998031496 744.318897638 452.998031496 744.318897638 563 664 c 1,0,1
627 616 m 1,11,12
 823.316546763 468.762589928 823.316546763 468.762589928 870 356.5 c 0,13,14
 891 306 891 306 891 252 c 0,15,16
 891 136 891 136 782.5 58 c 128,-1,17
 674 -20 674 -20 496 -20 c 128,-1,18
 318 -20 318 -20 215.5 58.5 c 128,-1,19
 113 137 113 137 113 268 c 0,20,21
 113 433.888888889 113 433.888888889 274.5 559.5 c 0,22,23
 315 591 315 591 362 616 c 1,24,25
 257 698 257 698 197 778.5 c 128,-1,26
 137 859 137 859 137 961.5 c 128,-1,27
 137 1064 137 1064 236 1141.5 c 128,-1,28
 335 1219 335 1219 511 1219 c 128,-1,29
 687 1219 687 1219 779.5 1144 c 128,-1,30
 872 1069 872 1069 872 936 c 0,31,32
 872 740 872 740 627 616 c 1,11,12
426 567 m 1,33,34
 354 525 354 525 302 447 c 128,-1,35
 250 369 250 369 250 267 c 128,-1,36
 250 165 250 165 315.5 105 c 128,-1,37
 381 45 381 45 480.5 45 c 128,-1,38
 580 45 580 45 645.5 105.5 c 128,-1,39
 711 166 711 166 711 266 c 0,40,41
 711 303.304347826 711 303.304347826 695 327.652173913 c 128,-1,42
 679 352 679 352 669 366.5 c 128,-1,43
 659 381 659 381 638 400.5 c 128,-1,44
 617 420 617 420 603.5 432.5 c 128,-1,45
 590 445 590 445 562 466 c 128,-1,46
 534 487 534 487 506.727272727 507.909090909 c 0,47,48
 479.454545455 528.818181818 479.454545455 528.818181818 426 567 c 1,33,34
EndSplineSet
EndChar

StartChar: nine
Encoding: 57 57 28
Width: 1003
GlyphClass: 2
Flags: HW
LayerCount: 2
Fore
SplineSet
698 557 m 1,0,1
 711 650 711 650 711 739 c 0,2,3
 711 951 711 951 648 1052 c 128,-1,4
 585 1153 585 1153 493.5 1153 c 128,-1,5
 402 1153 402 1153 347.5 1053.5 c 128,-1,6
 293 954 293 954 293 823.630952381 c 128,-1,7
 293 693.261904762 293 693.261904762 323.5 628.630952381 c 0,8,9
 379.483146067 510 379.483146067 510 503.741573034 510 c 128,-1,10
 628 510 628 510 698 557 c 1,0,1
688 489 m 1,11,12
 605 440 605 440 505.5 440 c 128,-1,13
 406 440 406 440 337 458.5 c 0,14,15
 207.569890591 493.202275711 207.569890591 493.202275711 158.284945295 583.403024648 c 128,-1,16
 109 673.603773585 109 673.603773585 109 813 c 0,17,18
 109 1002 109 1002 208.5 1110.5 c 128,-1,19
 308 1219 308 1219 489 1219 c 0,20,21
 620 1219 620 1219 713.5 1154.5 c 128,-1,22
 807 1090 807 1090 851 983.5 c 128,-1,23
 895 877 895 877 895 739 c 128,-1,24
 895 601 895 601 855.5 476 c 0,25,26
 787.274002272 260.0949439 787.274002272 260.0949439 625.770746533 120.472774422 c 128,-1,27
 464.267490794 -19.1493950552 464.267490794 -19.1493950552 317 -37 c 1,28,-1
 293 0 l 1,29,30
 444 39 444 39 546.5 163.5 c 128,-1,31
 649 288 649 288 688 489 c 1,11,12
EndSplineSet
EndChar

StartChar: colon
Encoding: 58 58 29
Width: 499
GlyphClass: 2
Flags: HW
LayerCount: 2
Fore
SplineSet
165 692.5 m 128,-1,1
 127 730 127 730 127 779.5 c 128,-1,2
 127 829 127 829 160.5 869 c 128,-1,3
 194 909 194 909 244.5 909 c 128,-1,4
 295 909 295 909 334 872.5 c 128,-1,5
 373 836 373 836 373 786.5 c 128,-1,6
 373 737 373 737 338.5 696 c 128,-1,7
 304 655 304 655 253.5 655 c 128,-1,0
 203 655 203 655 165 692.5 c 128,-1,1
165 17 m 128,-1,9
 127 54 127 54 127 103.5 c 128,-1,10
 127 153 127 153 160.5 193 c 128,-1,11
 194 233 194 233 244.5 233 c 128,-1,12
 295 233 295 233 334 197 c 128,-1,13
 373 161 373 161 373 111.5 c 128,-1,14
 373 62 373 62 338.5 21 c 128,-1,15
 304 -20 304 -20 253.5 -20 c 128,-1,8
 203 -20 203 -20 165 17 c 128,-1,9
EndSplineSet
EndChar

StartChar: semicolon
Encoding: 59 59 30
Width: 536
GlyphClass: 2
Flags: HW
LayerCount: 2
Fore
SplineSet
183 692.5 m 128,-1,1
 145 730 145 730 145 779.5 c 128,-1,2
 145 829 145 829 178.5 869 c 128,-1,3
 212 909 212 909 262.5 909 c 128,-1,4
 313 909 313 909 352 872.5 c 128,-1,5
 391 836 391 836 391 786.5 c 128,-1,6
 391 737 391 737 356.5 696 c 128,-1,7
 322 655 322 655 271.5 655 c 128,-1,0
 221 655 221 655 183 692.5 c 128,-1,1
276 1 m 128,-1,9
 258 -12 258 -12 224 -12 c 128,-1,10
 190 -12 190 -12 160.5 15 c 128,-1,11
 131 42 131 42 131 92.5 c 128,-1,12
 131 143 131 143 170 174 c 128,-1,13
 209 205 209 205 248 205 c 0,14,15
 321 205 321 205 367.5 140.5 c 128,-1,16
 414 76 414 76 414 8.5 c 128,-1,17
 414 -59 414 -59 393 -100 c 0,18,19
 335.658146965 -211.95314164 335.658146965 -211.95314164 160 -264 c 1,20,-1
 160 -207 l 1,21,22
 211 -200 211 -200 265 -150 c 128,-1,23
 319 -100 319 -100 319 -50.5 c 128,-1,24
 319 -1 319 -1 315.5 6.5 c 128,-1,25
 312 14 312 14 303 14 c 128,-1,8
 294 14 294 14 276 1 c 128,-1,9
EndSplineSet
EndChar

StartChar: less
Encoding: 60 60 31
Width: 952
GlyphClass: 2
Flags: HW
LayerCount: 2
Fore
SplineSet
61 696 m 1,0,-1
 815 1049 l 1,1,-1
 815 967 l 1,2,-1
 139 651 l 1,3,-1
 815 336 l 1,4,-1
 815 254 l 1,5,-1
 61 606 l 1,6,-1
 61 696 l 1,0,-1
EndSplineSet
EndChar

StartChar: equal
Encoding: 61 61 32
Width: 991
GlyphClass: 2
Flags: HW
LayerCount: 2
Fore
SplineSet
133 573 m 1,0,-1
 858 573 l 1,1,-1
 858 483 l 1,2,-1
 133 483 l 1,3,-1
 133 573 l 1,0,-1
133 819 m 1,4,-1
 858 819 l 1,5,-1
 858 729 l 1,6,-1
 133 729 l 1,7,-1
 133 819 l 1,4,-1
EndSplineSet
EndChar

StartChar: greater
Encoding: 62 62 33
Width: 952
GlyphClass: 2
Flags: HW
LayerCount: 2
Fore
SplineSet
891 606 m 1,0,-1
 137 254 l 1,1,-1
 137 336 l 1,2,-1
 813 651 l 1,3,-1
 137 967 l 1,4,-1
 137 1049 l 1,5,-1
 891 696 l 1,6,-1
 891 606 l 1,0,-1
EndSplineSet
EndChar

StartChar: question
Encoding: 63 63 34
Width: 806
GlyphClass: 2
Flags: HW
LayerCount: 2
Fore
SplineSet
288 17 m 128,-1,1
 250 54 250 54 250 103.5 c 128,-1,2
 250 153 250 153 283.5 193 c 128,-1,3
 317 233 317 233 367.5 233 c 128,-1,4
 418 233 418 233 457 197 c 128,-1,5
 496 161 496 161 496 111.5 c 128,-1,6
 496 62 496 62 461.5 21 c 128,-1,7
 427 -20 427 -20 376.5 -20 c 128,-1,0
 326 -20 326 -20 288 17 c 128,-1,1
342 410 m 0,8,9
 342 526 342 526 418 640 c 0,10,11
 450 688 450 688 481.5 737.5 c 0,12,13
 557 856.142857143 557 856.142857143 557 984.571428571 c 128,-1,14
 557 1113 557 1113 511.5 1171 c 128,-1,15
 466 1229 466 1229 374.5 1229 c 128,-1,16
 283 1229 283 1229 232.5 1181.5 c 128,-1,17
 182 1134 182 1134 182 1083 c 0,18,19
 182 1058 182 1058 197.5 1031 c 128,-1,20
 213 1004 213 1004 213 977 c 128,-1,21
 213 950 213 950 193.5 930.5 c 128,-1,22
 174 911 174 911 142 911 c 128,-1,23
 110 911 110 911 84.5 937 c 128,-1,24
 59 963 59 963 59 1013 c 0,25,26
 59 1114.92105263 59 1114.92105263 140.134146341 1202.46052632 c 128,-1,27
 221.268292683 1290 221.268292683 1290 383 1290 c 0,28,29
 481 1290 481 1290 554.5 1260 c 128,-1,30
 628 1230 628 1230 666.5 1181 c 0,31,32
 741 1086.18181818 741 1086.18181818 741 974.727272727 c 128,-1,33
 741 863.272727273 741 863.272727273 651.5 757.5 c 0,34,35
 588.545454545 683.099173554 588.545454545 683.099173554 517.272727273 609.049586777 c 128,-1,36
 446 535 446 535 420.5 491.5 c 128,-1,37
 395 448 395 448 395 424 c 128,-1,38
 395 400 395 400 386 390.5 c 128,-1,39
 377 381 377 381 369 381 c 128,-1,40
 361 381 361 381 351.5 390.5 c 128,-1,41
 342 400 342 400 342 410 c 0,8,9
EndSplineSet
EndChar

StartChar: at
Encoding: 64 64 35
Width: 1282
GlyphClass: 2
Flags: HW
LayerCount: 2
Fore
SplineSet
508 326 m 0,0,1
 430 326 430 326 388 385.5 c 128,-1,2
 346 445 346 445 346 532 c 128,-1,3
 346 619 346 619 390 705 c 128,-1,4
 434 791 434 791 501 843 c 128,-1,5
 568 895 568 895 631.5 895 c 128,-1,6
 695 895 695 895 734.5 859 c 128,-1,7
 774 823 774 823 788 764 c 1,8,-1
 817 872 l 1,9,-1
 926 872 l 1,10,-1
 805 416 l 2,11,12
 803 412 803 412 803 403 c 0,13,14
 803 373 803 373 852.5 373 c 128,-1,15
 902 373 902 373 946 413 c 128,-1,16
 990 453 990 453 1027.5 537.948979592 c 128,-1,17
 1065 622.897959184 1065 622.897959184 1065 712.448979592 c 128,-1,18
 1065 802 1065 802 1042.5 884 c 0,19,20
 974.176829268 1133 974.176829268 1133 703.946428571 1133 c 0,21,22
 491.068181818 1133 491.068181818 1133 338.5 996 c 0,23,24
 265 930 265 930 220.5 824.5 c 128,-1,25
 176 719 176 719 176 605 c 128,-1,26
 176 491 176 491 209 403.5 c 0,27,28
 268.198473282 246.534351145 268.198473282 246.534351145 408.849236641 152.767175573 c 128,-1,29
 549.5 59 549.5 59 692 59 c 0,30,31
 885.428571429 59 885.428571429 59 1010.5 162 c 0,32,33
 1053 197 1053 197 1075.5 219.5 c 128,-1,34
 1098 242 1098 242 1125 282 c 128,-1,35
 1152 322 1152 322 1158 333 c 128,-1,36
 1164 344 1164 344 1180 373 c 1,37,-1
 1212 356 l 1,38,39
 1119.65851735 144.933753943 1119.65851735 144.933753943 975.5 55 c 0,40,41
 855.279411765 -20 855.279411765 -20 679.601970033 -20 c 128,-1,42
 503.924528302 -20 503.924528302 -20 346.329825734 90.6293938555 c 128,-1,43
 188.735123166 201.258787711 188.735123166 201.258787711 124.5 380 c 0,44,45
 90 476 90 476 90 588.5 c 128,-1,46
 90 701 90 701 122.5 804 c 0,47,48
 183.025125628 995.818090452 183.025125628 995.818090452 338.012562814 1107.40904523 c 128,-1,49
 493 1219 493 1219 685.678861789 1219 c 128,-1,50
 878.357723577 1219 878.357723577 1219 1014.67886179 1090.01923077 c 128,-1,51
 1151 961.038461538 1151 961.038461538 1151 709 c 0,52,53
 1151 590.95 1151 590.95 1068 454 c 0,54,55
 1028 388 1028 388 957.5 343.5 c 128,-1,56
 887 299 887 299 801 299 c 0,57,58
 763 299 763 299 730.5 323.5 c 128,-1,59
 698 348 698 348 698 403 c 0,60,61
 698 424 698 424 700 436 c 1,62,63
 611 326 611 326 508 326 c 0,0,1
748 692 m 0,64,65
 748 753 748 753 721.5 793.5 c 128,-1,66
 695 834 695 834 643 834 c 0,67,68
 567 834 567 834 501.5 746 c 128,-1,69
 436 658 436 658 436 553 c 0,70,71
 436 493 436 493 462.5 453.5 c 128,-1,72
 489 414 489 414 541 414 c 0,73,74
 617 414 617 414 682.5 500 c 128,-1,75
 748 586 748 586 748 692 c 0,64,65
EndSplineSet
EndChar

StartChar: A
Encoding: 65 65 36
Width: 1118
GlyphClass: 2
Flags: HW
AnchorPoint: "Anchor-5" 508 0 basechar 0
AnchorPoint: "Anchor-4" 1004 0 basechar 0
AnchorPoint: "Anchor-3" 893 0 basechar 0
AnchorPoint: "Anchor-2" 492 590 basechar 0
AnchorPoint: "Anchor-0" 565 1270 basechar 0
LayerCount: 2
Fore
SplineSet
688 0 m 1,0,-1
 688 43 l 1,1,2
 782 43 782 43 807 68 c 1,3,-1
 692 381 l 1,4,-1
 299 381 l 1,5,-1
 193 80 l 1,6,7
 204 59 204 59 231 51 c 128,-1,8
 258 43 258 43 319 43 c 1,9,-1
 319 0 l 1,10,-1
 -16 0 l 1,11,-1
 -16 43 l 1,12,13
 97.3636363636 43 97.3636363636 43 113 86 c 2,14,-1
 510 1198 l 1,15,-1
 608 1198 l 1,16,-1
 1006 86 l 2,17,18
 1021 43 1021 43 1137 43 c 1,19,-1
 1137 0 l 1,20,-1
 688 0 l 1,0,-1
494 926 m 1,21,-1
 324 449 l 1,22,-1
 668 449 l 1,23,-1
 494 926 l 1,21,-1
EndSplineSet
EndChar

StartChar: B
Encoding: 66 66 37
Width: 1142
GlyphClass: 2
Flags: HW
AnchorPoint: "Anchor-5" 504 0 basechar 0
AnchorPoint: "Anchor-2" 356 324 basechar 0
AnchorPoint: "Anchor-0" 492 1270 basechar 0
LayerCount: 2
Fore
SplineSet
403 594 m 1,0,-1
 403 70 l 1,1,-1
 578 70 l 2,2,3
 803.53125 70 803.53125 70 850.5 237 c 0,4,5
 864 285 864 285 864 333.5 c 128,-1,6
 864 382 864 382 856 414 c 0,7,8
 837.237668161 489.049327354 837.237668161 489.049327354 764.414752448 541.524663677 c 128,-1,9
 691.591836735 594 691.591836735 594 553 594 c 2,10,-1
 403 594 l 1,0,-1
487 653 m 2,11,12
 774 653 774 653 774 913 c 0,13,14
 774 1128 774 1128 463 1128 c 2,15,-1
 403 1128 l 1,16,-1
 403 653 l 1,17,-1
 487 653 l 2,11,12
215 1114 m 1,18,19
 198.227272727 1155 198.227272727 1155 86 1155 c 1,20,-1
 86 1198 l 1,21,-1
 463 1198 l 2,22,23
 766.77027027 1198 766.77027027 1198 902.5 1074 c 0,24,25
 979 1004.11111111 979 1004.11111111 979 915 c 0,26,27
 979 707 979 707 762 633 c 1,28,29
 986.989701339 581.079299691 986.989701339 581.079299691 1051 433.5 c 0,30,31
 1069 392 1069 392 1069 333.5 c 128,-1,32
 1069 275 1069 275 1040 212.5 c 0,33,34
 941.4 1.70530256582e-13 941.4 1.70530256582e-13 578 0 c 2,35,-1
 86 0 l 1,36,-1
 86 43 l 1,37,38
 198.227272727 43 198.227272727 43 215 84 c 1,39,-1
 215 1114 l 1,18,19
EndSplineSet
EndChar

StartChar: C
Encoding: 67 67 38
Width: 1150
GlyphClass: 2
Flags: HW
AnchorPoint: "Anchor-5" 666 0 basechar 0
AnchorPoint: "Anchor-3" 666 0 basechar 0
AnchorPoint: "Anchor-0" 705 1270 basechar 0
LayerCount: 2
Fore
SplineSet
709 1149 m 0,0,1
 532 1149 532 1149 415.5 1003.5 c 128,-1,2
 299 858 299 858 299 627 c 0,3,4
 299 489 299 489 334 377 c 128,-1,5
 369 265 369 265 428 194.5 c 0,6,7
 549.765957447 49 549.765957447 49 717 49 c 0,8,9
 819 49 819 49 919.5 119.5 c 128,-1,10
 1020 190 1020 190 1049 270 c 1,11,-1
 1098 246 l 1,12,13
 1055.49193548 142.766129032 1055.49193548 142.766129032 956.02374552 61.3830645161 c 128,-1,14
 856.555555556 -20 856.555555556 -20 697.277777778 -20 c 0,15,16
 395.798816568 -20 395.798816568 -20 240.899408284 160.537931034 c 128,-1,17
 86 341.075862069 86 341.075862069 86 582 c 0,18,19
 86 726 86 726 137.5 848 c 128,-1,20
 189 970 189 970 275.5 1050 c 0,21,22
 458.23125 1219 458.23125 1219 707 1219 c 0,23,24
 776 1219 776 1219 848 1188 c 128,-1,25
 920 1157 920 1157 934 1157 c 0,26,27
 958 1157 958 1157 958 1198 c 1,28,-1
 1006 1198 l 1,29,-1
 1026 938 l 1,30,-1
 981 938 l 1,31,32
 968 1031 968 1031 900.5 1090 c 128,-1,33
 833 1149 833 1149 709 1149 c 0,0,1
EndSplineSet
EndChar

StartChar: D
Encoding: 68 68 39
Width: 1251
GlyphClass: 2
Flags: HW
AnchorPoint: "Anchor-5" 492 0 basechar 0
AnchorPoint: "Anchor-3" 492 0 basechar 0
AnchorPoint: "Anchor-2" 365 586 basechar 0
AnchorPoint: "Anchor-0" 549 1270 basechar 0
LayerCount: 2
Fore
SplineSet
215 1114 m 1,0,1
 198.227272727 1155 198.227272727 1155 86 1155 c 1,2,-1
 86 1198 l 1,3,-1
 557 1198 l 2,4,5
 830 1198 830 1198 995.5 1033 c 128,-1,6
 1161 868 1161 868 1161 601.5 c 128,-1,7
 1161 335 1161 335 1000 167.5 c 128,-1,8
 839 0 839 0 582 0 c 2,9,-1
 86 0 l 1,10,-1
 86 43 l 1,11,12
 198.227272727 43 198.227272727 43 215 84 c 1,13,-1
 215 1114 l 1,0,1
403 1139 m 1,14,-1
 403 70 l 1,15,-1
 582 70 l 2,16,17
 692.222222222 70 692.222222222 70 784.5 145.5 c 0,18,19
 956 285.818181818 956 285.818181818 956 600 c 0,20,21
 956 738 956 738 920.5 845 c 128,-1,22
 885 952 885 952 826.5 1014 c 0,23,24
 708.556451613 1139 708.556451613 1139 557 1139 c 2,25,-1
 403 1139 l 1,14,-1
EndSplineSet
EndChar

StartChar: E
Encoding: 69 69 40
Width: 1038
GlyphClass: 2
Flags: HW
AnchorPoint: "Anchor-5" 532 0 basechar 0
AnchorPoint: "Anchor-4" 831 0 basechar 0
AnchorPoint: "Anchor-3" 532 0 basechar 0
AnchorPoint: "Anchor-2" 315 336 basechar 0
AnchorPoint: "Anchor-0" 549 1270 basechar 0
LayerCount: 2
Fore
SplineSet
731 459 m 1,0,1
 731 571.227272727 731 571.227272727 690 588 c 1,2,-1
 403 588 l 1,3,-1
 403 70 l 1,4,-1
 870 70 l 1,5,6
 921 91 921 91 963 199 c 1,7,-1
 1004 199 l 1,8,-1
 954 0 l 1,9,-1
 86 0 l 1,10,-1
 86 43 l 1,11,12
 198.227272727 43 198.227272727 43 215 84 c 1,13,-1
 215 1114 l 1,14,15
 198.227272727 1155 198.227272727 1155 86 1155 c 1,16,-1
 86 1198 l 1,17,-1
 911 1198 l 1,18,-1
 911 999 l 1,19,-1
 868 999 l 1,20,21
 868 1111.22727273 868 1111.22727273 827 1128 c 1,22,-1
 403 1128 l 1,23,-1
 403 657 l 1,24,-1
 690 657 l 1,25,26
 731 673.772727273 731 673.772727273 731 786 c 1,27,-1
 774 786 l 1,28,-1
 774 459 l 1,29,-1
 731 459 l 1,0,1
EndSplineSet
EndChar

StartChar: F
Encoding: 70 70 41
Width: 962
GlyphClass: 2
Flags: HW
AnchorPoint: "Anchor-0" 549 1270 basechar 0
LayerCount: 2
Fore
SplineSet
403 84 m 1,0,1
 419.772727273 43 419.772727273 43 532 43 c 1,2,-1
 532 0 l 1,3,-1
 86 0 l 1,4,-1
 86 43 l 1,5,6
 198.227272727 43 198.227272727 43 215 84 c 1,7,-1
 215 1114 l 1,8,9
 198.227272727 1155 198.227272727 1155 86 1155 c 1,10,-1
 86 1198 l 1,11,-1
 911 1198 l 1,12,-1
 911 999 l 1,13,-1
 868 999 l 1,14,15
 868 1111.22727273 868 1111.22727273 827 1128 c 1,16,-1
 403 1128 l 1,17,-1
 403 657 l 1,18,-1
 690 657 l 1,19,20
 731 673.772727273 731 673.772727273 731 786 c 1,21,-1
 774 786 l 1,22,-1
 774 459 l 1,23,-1
 731 459 l 1,24,25
 731 571.227272727 731 571.227272727 690 588 c 1,26,-1
 403 588 l 1,27,-1
 403 84 l 1,0,1
EndSplineSet
EndChar

StartChar: G
Encoding: 71 71 42
Width: 1263
GlyphClass: 2
Flags: HW
AnchorPoint: "Anchor-5" 662 0 basechar 0
AnchorPoint: "Anchor-3" 662 0 basechar 0
AnchorPoint: "Anchor-2" 1012 362 basechar 0
AnchorPoint: "Anchor-0" 700 1270 basechar 0
LayerCount: 2
Fore
SplineSet
1231 549 m 1,0,1
 1118.77272727 549 1118.77272727 549 1102 508 c 1,2,-1
 1102 164 l 1,3,4
 1069.84467714 106.120418848 1069.84467714 106.120418848 999.422338569 62.5602094241 c 0,5,6
 865.95 -20 865.95 -20 692 -20 c 0,7,8
 364.342105263 -20 364.342105263 -20 187.5 236 c 0,9,10
 82 388.723809524 82 388.723809524 82 582 c 0,11,12
 82 726 82 726 136.5 848 c 128,-1,13
 191 970 191 970 281.5 1050 c 0,14,15
 472.68125 1219 472.68125 1219 723 1219 c 0,16,17
 783 1219 783 1219 871.5 1188 c 128,-1,18
 960 1157 960 1157 971 1157 c 0,19,20
 995 1157 995 1157 995 1198 c 1,21,-1
 1042 1198 l 1,22,-1
 1063 938 l 1,23,-1
 1018 938 l 1,24,25
 1005 1028 1005 1028 928 1088.5 c 128,-1,26
 851 1149 851 1149 730.5 1149 c 128,-1,27
 610 1149 610 1149 511 1074 c 128,-1,28
 412 999 412 999 353.5 868.5 c 128,-1,29
 295 738 295 738 295 605 c 128,-1,30
 295 472 295 472 320 378.5 c 0,31,32
 364.329601832 212.707289149 364.329601832 212.707289149 470.140410672 130.853644574 c 128,-1,33
 575.951219512 49 575.951219512 49 694.475609756 49 c 128,-1,34
 813 49 813 49 913 88 c 1,35,-1
 913 508 l 1,36,37
 896.227272727 549 896.227272727 549 784 549 c 1,38,-1
 784 592 l 1,39,-1
 1231 592 l 1,40,-1
 1231 549 l 1,0,1
EndSplineSet
EndChar

StartChar: H
Encoding: 72 72 43
Width: 1331
GlyphClass: 2
Flags: HW
AnchorPoint: "Anchor-5" 666 0 basechar 0
AnchorPoint: "Anchor-3" 666 0 basechar 0
AnchorPoint: "Anchor-2" 664 860 basechar 0
AnchorPoint: "Anchor-0" 668 1270 basechar 0
LayerCount: 2
Fore
SplineSet
403 84 m 1,0,1
 419.772727273 43 419.772727273 43 532 43 c 1,2,-1
 532 0 l 1,3,-1
 86 0 l 1,4,-1
 86 43 l 1,5,6
 198.227272727 43 198.227272727 43 215 84 c 1,7,-1
 215 1114 l 1,8,9
 198.227272727 1155 198.227272727 1155 86 1155 c 1,10,-1
 86 1198 l 1,11,-1
 532 1198 l 1,12,-1
 532 1155 l 1,13,14
 419.772727273 1155 419.772727273 1155 403 1114 c 1,15,-1
 403 657 l 1,16,-1
 928 657 l 1,17,-1
 928 1114 l 1,18,19
 911.227272727 1155 911.227272727 1155 799 1155 c 1,20,-1
 799 1198 l 1,21,-1
 1245 1198 l 1,22,-1
 1245 1155 l 1,23,24
 1132.77272727 1155 1132.77272727 1155 1116 1114 c 1,25,-1
 1116 84 l 1,26,27
 1132.77272727 43 1132.77272727 43 1245 43 c 1,28,-1
 1245 0 l 1,29,-1
 799 0 l 1,30,-1
 799 43 l 1,31,32
 911.227272727 43 911.227272727 43 928 84 c 1,33,-1
 928 588 l 1,34,-1
 403 588 l 1,35,-1
 403 84 l 1,0,1
EndSplineSet
EndChar

StartChar: I
Encoding: 73 73 44
Width: 618
GlyphClass: 2
Flags: HW
AnchorPoint: "Anchor-5" 305 0 basechar 0
AnchorPoint: "Anchor-4" 412 0 basechar 0
AnchorPoint: "Anchor-3" 307 0 basechar 0
AnchorPoint: "Anchor-2" 313 602 basechar 0
AnchorPoint: "Anchor-0" 305 1270 basechar 0
LayerCount: 2
Fore
SplineSet
403 84 m 1,0,1
 419.772727273 43 419.772727273 43 532 43 c 1,2,-1
 532 0 l 1,3,-1
 86 0 l 1,4,-1
 86 43 l 1,5,6
 198.227272727 43 198.227272727 43 215 84 c 1,7,-1
 215 1114 l 1,8,9
 198.227272727 1155 198.227272727 1155 86 1155 c 1,10,-1
 86 1198 l 1,11,-1
 532 1198 l 1,12,-1
 532 1155 l 1,13,14
 419.772727273 1155 419.772727273 1155 403 1114 c 1,15,-1
 403 84 l 1,0,1
EndSplineSet
EndChar

StartChar: J
Encoding: 74 74 45
Width: 843
GlyphClass: 2
Flags: HW
AnchorPoint: "Anchor-0" 569 1270 basechar 0
LayerCount: 2
Fore
SplineSet
791 1155 m 1,0,1
 678.772727273 1155 678.772727273 1155 662 1114 c 1,2,-1
 662 352 l 2,3,4
 662 75.6363636364 662 75.6363636364 459.5 2 c 0,5,6
 399 -20 399 -20 322 -20 c 0,7,8
 177 -20 177 -20 95.5 38 c 128,-1,9
 14 96 14 96 14 164 c 0,10,11
 14 210 14 210 38 238 c 128,-1,12
 62 266 62 266 100.5 266 c 128,-1,13
 139 266 139 266 167 248 c 128,-1,14
 195 230 195 230 195 195 c 0,15,16
 195 126 195 126 143 109 c 1,17,18
 158 94 158 94 167 86.5 c 128,-1,19
 176 79 176 79 214 66 c 128,-1,20
 252 53 252 53 293.5 53 c 128,-1,21
 335 53 335 53 361.5 62 c 128,-1,22
 388 71 388 71 406 85.5 c 128,-1,23
 424 100 424 100 436.5 127 c 0,24,25
 460.388410786 178.598967298 460.388410786 178.598967298 466.694205393 247.174483649 c 128,-1,26
 473 315.75 473 315.75 473 426 c 2,27,-1
 473 1114 l 1,28,29
 456.227272727 1155 456.227272727 1155 344 1155 c 1,30,-1
 344 1198 l 1,31,-1
 791 1198 l 1,32,-1
 791 1155 l 1,0,1
EndSplineSet
EndChar

StartChar: K
Encoding: 75 75 46
Width: 1185
GlyphClass: 2
Flags: HW
AnchorPoint: "Anchor-5" 639 0 basechar 0
AnchorPoint: "Anchor-3" 639 0 basechar 0
AnchorPoint: "Anchor-2" 309 946 basechar 0
AnchorPoint: "Anchor-0" 657 1270 basechar 0
LayerCount: 2
Fore
SplineSet
399 84 m 1,0,1
 415.772727273 43 415.772727273 43 528 43 c 1,2,-1
 528 0 l 1,3,-1
 86 0 l 1,4,-1
 86 43 l 1,5,6
 198.227272727 43 198.227272727 43 215 84 c 1,7,-1
 215 1114 l 1,8,9
 198.227272727 1155 198.227272727 1155 86 1155 c 1,10,-1
 86 1198 l 1,11,-1
 528 1198 l 1,12,-1
 528 1155 l 1,13,14
 415.772727273 1155 415.772727273 1155 399 1114 c 1,15,-1
 399 84 l 1,0,1
801 0 m 1,16,-1
 801 43 l 1,17,18
 850 43 850 43 877 49 c 1,19,-1
 410 643 l 1,20,-1
 911 1141 l 1,21,22
 883 1155 883 1155 807 1155 c 1,23,-1
 807 1198 l 1,24,-1
 1128 1198 l 1,25,-1
 1128 1155 l 1,26,27
 1053.375 1155 1053.375 1155 1022.5 1129 c 0,28,29
 1013 1121 1013 1121 1001 1108 c 2,30,-1
 590 700 l 1,31,-1
 1071 76 l 1,32,33
 1104 43 1104 43 1200 43 c 1,34,-1
 1200 0 l 1,35,-1
 801 0 l 1,16,-1
EndSplineSet
EndChar

StartChar: L
Encoding: 76 76 47
Width: 1013
GlyphClass: 2
Flags: HW
AnchorPoint: "Anchor-5" 545 0 basechar 0
AnchorPoint: "Anchor-3" 545 0 basechar 0
AnchorPoint: "Anchor-2" 313 698 basechar 0
AnchorPoint: "Anchor-0" 309 1270 basechar 0
LayerCount: 2
Fore
SplineSet
532 1155 m 1,0,1
 419.772727273 1155 419.772727273 1155 403 1114 c 1,2,-1
 403 70 l 1,3,-1
 870 70 l 1,4,5
 921 91 921 91 963 199 c 1,6,-1
 1004 199 l 1,7,-1
 954 0 l 1,8,-1
 86 0 l 1,9,-1
 86 43 l 1,10,11
 198.227272727 43 198.227272727 43 215 84 c 1,12,-1
 215 1114 l 1,13,14
 198.227272727 1155 198.227272727 1155 86 1155 c 1,15,-1
 86 1198 l 1,16,-1
 532 1198 l 1,17,-1
 532 1155 l 1,0,1
EndSplineSet
EndChar

StartChar: M
Encoding: 77 77 48
Width: 1646
GlyphClass: 2
Flags: HW
AnchorPoint: "Anchor-5" 768 0 basechar 0
AnchorPoint: "Anchor-3" 768 0 basechar 0
AnchorPoint: "Anchor-0" 776 1270 basechar 0
LayerCount: 2
Fore
SplineSet
285 84 m 1,0,1
 301.772727273 43 301.772727273 43 414 43 c 1,2,-1
 414 0 l 1,3,-1
 86 0 l 1,4,-1
 86 43 l 1,5,6
 198.227272727 43 198.227272727 43 215 84 c 1,7,-1
 215 1114 l 1,8,9
 198.227272727 1155 198.227272727 1155 86 1155 c 1,10,-1
 86 1198 l 1,11,-1
 385 1198 l 1,12,-1
 821 246 l 1,13,-1
 1257 1198 l 1,14,-1
 1561 1198 l 1,15,-1
 1561 1155 l 1,16,17
 1448.77272727 1155 1448.77272727 1155 1432 1114 c 1,18,-1
 1432 84 l 1,19,20
 1448.77272727 43 1448.77272727 43 1561 43 c 1,21,-1
 1561 0 l 1,22,-1
 1114 0 l 1,23,-1
 1114 43 l 1,24,25
 1226.22727273 43 1226.22727273 43 1243 84 c 1,26,-1
 1243 1004 l 1,27,-1
 784 0 l 1,28,-1
 754 0 l 1,29,-1
 285 1016 l 1,30,-1
 285 84 l 1,0,1
EndSplineSet
EndChar

StartChar: N
Encoding: 78 78 49
Width: 1304
GlyphClass: 2
Flags: HW
AnchorPoint: "Anchor-5" 651 0 basechar 0
AnchorPoint: "Anchor-3" 651 0 basechar 0
AnchorPoint: "Anchor-2" 674 676 basechar 0
AnchorPoint: "Anchor-0" 651 1270 basechar 0
LayerCount: 2
Fore
SplineSet
285 84 m 1,0,1
 301.772727273 43 301.772727273 43 414 43 c 1,2,-1
 414 0 l 1,3,-1
 86 0 l 1,4,-1
 86 43 l 1,5,6
 198.227272727 43 198.227272727 43 215 84 c 1,7,-1
 215 1114 l 1,8,9
 198.227272727 1155 198.227272727 1155 86 1155 c 1,10,-1
 86 1198 l 1,11,-1
 360 1198 l 1,12,-1
 1038 360 l 1,13,-1
 1038 1114 l 1,14,15
 1021.22727273 1155 1021.22727273 1155 909 1155 c 1,16,-1
 909 1198 l 1,17,-1
 1237 1198 l 1,18,-1
 1237 1155 l 1,19,20
 1124.77272727 1155 1124.77272727 1155 1108 1114 c 1,21,-1
 1108 0 l 1,22,-1
 1090 0 l 1,23,-1
 285 1018 l 1,24,-1
 285 84 l 1,0,1
EndSplineSet
EndChar

StartChar: O
Encoding: 79 79 50
Width: 1312
GlyphClass: 2
Flags: HW
AnchorPoint: "Anchor-5" 659 0 basechar 0
AnchorPoint: "Anchor-4" 719 0 basechar 0
AnchorPoint: "Anchor-3" 659 0 basechar 0
AnchorPoint: "Anchor-2" 670 602 basechar 0
AnchorPoint: "Anchor-1" 1026 901 basechar 0
AnchorPoint: "Anchor-0" 657 1270 basechar 0
LayerCount: 2
Fore
SplineSet
295 612 m 0,0,1
 295 348.682352941 295 348.682352941 424.5 175 c 0,2,3
 518.447368421 49 518.447368421 49 666 49 c 0,4,5
 873.907801418 49 873.907801418 49 968.5 291.5 c 0,6,7
 1020 423.527272727 1020 423.527272727 1020 582 c 0,8,9
 1020 845.635294118 1020 845.635294118 888.5 1022 c 0,10,11
 793.807017544 1149 793.807017544 1149 649 1149 c 0,12,13
 441.007042254 1149 441.007042254 1149 346.5 905 c 0,14,15
 295 772.036363636 295 772.036363636 295 612 c 0,0,1
159.5 290.5 m 128,-1,17
 90 431 90 431 90 577 c 128,-1,18
 90 723 90 723 131.5 836 c 128,-1,19
 173 949 173 949 246 1034 c 128,-1,20
 319 1119 319 1119 426 1169 c 128,-1,21
 533 1219 533 1219 677 1219 c 128,-1,22
 821 1219 821 1219 952.5 1133.5 c 128,-1,23
 1084 1048 1084 1048 1154.5 906.5 c 128,-1,24
 1225 765 1225 765 1225 598 c 128,-1,25
 1225 431 1225 431 1153.5 290.5 c 128,-1,26
 1082 150 1082 150 951 65 c 128,-1,27
 820 -20 820 -20 655.5 -20 c 128,-1,28
 491 -20 491 -20 360 65 c 128,-1,16
 229 150 229 150 159.5 290.5 c 128,-1,17
EndSplineSet
EndChar

StartChar: P
Encoding: 80 80 51
Width: 1101
GlyphClass: 2
Flags: HW
AnchorPoint: "Anchor-5" 303 0 basechar 0
AnchorPoint: "Anchor-3" 303 0 basechar 0
AnchorPoint: "Anchor-2" 309 328 basechar 0
AnchorPoint: "Anchor-0" 492 1270 basechar 0
LayerCount: 2
Fore
SplineSet
403 84 m 1,0,1
 419.772727273 43 419.772727273 43 532 43 c 1,2,-1
 532 0 l 1,3,-1
 86 0 l 1,4,-1
 86 43 l 1,5,6
 198.227272727 43 198.227272727 43 215 84 c 1,7,-1
 215 1114 l 1,8,9
 198.227272727 1155 198.227272727 1155 86 1155 c 1,10,-1
 86 1198 l 1,11,-1
 549 1198 l 2,12,13
 680 1198 680 1198 783.5 1169 c 128,-1,14
 887 1140 887 1140 946 1093.5 c 0,15,16
 1065 999.711864407 1065 999.711864407 1065 887 c 0,17,18
 1065 733 1065 733 942 639 c 128,-1,19
 819 545 819 545 573 545 c 2,20,-1
 403 545 l 1,21,-1
 403 84 l 1,0,1
403 1128 m 1,22,-1
 403 614 l 1,23,-1
 573 614 l 2,24,25
 730 614 730 614 795 677 c 128,-1,26
 860 740 860 740 860 885 c 0,27,28
 860 1128 860 1128 549 1128 c 2,29,-1
 403 1128 l 1,22,-1
EndSplineSet
EndChar

StartChar: Q
Encoding: 81 81 52
Width: 1312
GlyphClass: 2
Flags: HW
LayerCount: 2
Fore
SplineSet
1176 -135 m 0,0,1
 1276.33333333 -135 1276.33333333 -135 1339 -41 c 1,2,-1
 1370 -63 l 1,3,4
 1364.36363636 -79.9090909091 1364.36363636 -79.9090909091 1343.68181818 -109.454545455 c 128,-1,5
 1323 -139 1323 -139 1302.5 -158 c 0,6,7
 1218.88649544 -235.495443248 1218.88649544 -235.495443248 1082.95940209 -199.79741873 c 128,-1,8
 947.032308728 -164.099394211 947.032308728 -164.099394211 872 -55.5 c 0,9,10
 853 -28 853 -28 834 8 c 1,11,12
 748 -20 748 -20 657 -20 c 0,13,14
 491 -20 491 -20 360 65 c 128,-1,15
 229 150 229 150 159.5 290.5 c 128,-1,16
 90 431 90 431 90 577 c 128,-1,17
 90 723 90 723 131.5 836 c 128,-1,18
 173 949 173 949 246 1034 c 128,-1,19
 319 1119 319 1119 426 1169 c 128,-1,20
 533 1219 533 1219 677 1219 c 128,-1,21
 821 1219 821 1219 952.5 1133.5 c 128,-1,22
 1084 1048 1084 1048 1154.5 906.5 c 128,-1,23
 1225 765 1225 765 1225 602.5 c 128,-1,24
 1225 440 1225 440 1160.5 304.5 c 128,-1,25
 1096 169 1096 169 981 84 c 1,26,27
 989 69 989 69 1005 38.5 c 128,-1,28
 1021 8 1021 8 1029.5 -7.5 c 128,-1,29
 1038 -23 1038 -23 1052.5 -47 c 0,30,31
 1105.66666667 -135 1105.66666667 -135 1176 -135 c 0,0,1
473 125 m 1,32,33
 555 49 555 49 666 49 c 0,34,35
 739 49 739 49 799 80 c 1,36,37
 767 145 767 145 739 177 c 128,-1,38
 711 209 711 209 668 209 c 0,39,40
 552 209 552 209 473 125 c 1,32,33
913 186 m 1,41,42
 1020 339.433962264 1020 339.433962264 1020 592.534628191 c 128,-1,43
 1020 845.635294118 1020 845.635294118 888.5 1022 c 0,44,45
 793.807017544 1149 793.807017544 1149 649 1149 c 0,46,47
 441.007042254 1149 441.007042254 1149 346.5 905 c 0,48,49
 295 772.036363636 295 772.036363636 295 629.518181818 c 0,50,51
 295 329.557142857 295 329.557142857 438 160 c 1,52,53
 530 299 530 299 676 299 c 128,-1,54
 822 299 822 299 913 186 c 1,41,42
EndSplineSet
EndChar

StartChar: R
Encoding: 82 82 53
Width: 1189
GlyphClass: 2
Flags: HW
AnchorPoint: "Anchor-5" 659 0 basechar 0
AnchorPoint: "Anchor-3" 659 0 basechar 0
AnchorPoint: "Anchor-2" 309 328 basechar 0
AnchorPoint: "Anchor-0" 582 1270 basechar 0
LayerCount: 2
Fore
SplineSet
403 84 m 1,0,1
 419.772727273 43 419.772727273 43 532 43 c 1,2,-1
 532 0 l 1,3,-1
 86 0 l 1,4,-1
 86 43 l 1,5,6
 198.227272727 43 198.227272727 43 215 84 c 1,7,-1
 215 1114 l 1,8,9
 198.227272727 1155 198.227272727 1155 86 1155 c 1,10,-1
 86 1198 l 1,11,-1
 549 1198 l 2,12,13
 814.076923077 1198 814.076923077 1198 939.538461538 1102.05882353 c 0,14,15
 1065 1006.11764706 1065 1006.11764706 1065 894.058823529 c 128,-1,16
 1065 782 1065 782 998 696.5 c 128,-1,17
 931 611 931 611 797 573 c 1,18,-1
 1069 86 l 1,19,20
 1090 43 1090 43 1204 43 c 1,21,-1
 1204 0 l 1,22,-1
 1116 0 l 2,23,24
 972 0 972 0 929 16 c 128,-1,25
 886 32 886 32 844 106 c 2,26,-1
 596 545 l 1,27,-1
 403 545 l 1,28,-1
 403 84 l 1,0,1
403 1128 m 1,29,-1
 403 614 l 1,30,-1
 573 614 l 2,31,32
 737 614 737 614 798.5 677.5 c 128,-1,33
 860 741 860 741 860 873.5 c 128,-1,34
 860 1006 860 1006 792 1067 c 128,-1,35
 724 1128 724 1128 549 1128 c 2,36,-1
 403 1128 l 1,29,-1
EndSplineSet
EndChar

StartChar: S
Encoding: 83 83 54
Width: 978
GlyphClass: 2
Flags: HW
AnchorPoint: "Anchor-5" 489 0 basechar 0
AnchorPoint: "Anchor-3" 489 0 basechar 0
AnchorPoint: "Anchor-2" 514 602 basechar 0
AnchorPoint: "Anchor-0" 465 1270 basechar 0
LayerCount: 2
Fore
SplineSet
653.5 0.5 m 128,-1,1
 583 -20 583 -20 509.5 -20 c 128,-1,2
 436 -20 436 -20 367 -5 c 128,-1,3
 298 10 298 10 254 25.5 c 128,-1,4
 210 41 210 41 197 41 c 128,-1,5
 184 41 184 41 168 29 c 128,-1,6
 152 17 152 17 152 0 c 1,7,-1
 104 0 l 1,8,-1
 104 285 l 1,9,-1
 150 285 l 1,10,11
 183.803563271 107.531292828 183.803563271 107.531292828 384.5 61.5 c 0,12,13
 439 49 439 49 498 49 c 0,14,15
 607 49 607 49 676 98 c 128,-1,16
 745 147 745 147 745 240.64375 c 128,-1,17
 745 334.2875 745 334.2875 675.653321976 388.898008944 c 128,-1,18
 606.306643952 443.508517888 606.306643952 443.508517888 521.653321976 488.754258944 c 128,-1,19
 437 534 437 534 399 557.5 c 128,-1,20
 361 581 361 581 346 590 c 128,-1,21
 331 599 331 599 289.5 627.5 c 128,-1,22
 248 656 248 656 230.5 672 c 0,23,24
 160.995642702 735.546840959 160.995642702 735.546840959 133.497821351 788.427266633 c 128,-1,25
 106 841.307692308 106 841.307692308 106 910.653846154 c 128,-1,26
 106 980 106 980 157 1054 c 128,-1,27
 208 1128 208 1128 291.5 1173.5 c 128,-1,28
 375 1219 375 1219 450 1219 c 128,-1,29
 525 1219 525 1219 613.5 1188 c 128,-1,30
 702 1157 702 1157 713 1157 c 0,31,32
 737 1157 737 1157 737 1198 c 1,33,-1
 784 1198 l 1,34,-1
 805 938 l 1,35,-1
 760 938 l 1,36,37
 747 1028 747 1028 670 1088.5 c 128,-1,38
 593 1149 593 1149 483 1149 c 128,-1,39
 373 1149 373 1149 316.5 1089 c 128,-1,40
 260 1029 260 1029 260 978.5 c 128,-1,41
 260 928 260 928 279 894.5 c 128,-1,42
 298 861 298 861 337 831.5 c 0,43,44
 397.549087321 785.700049334 397.549087321 785.700049334 546.117272225 706.894316472 c 128,-1,45
 694.685457129 628.08858361 694.685457129 628.08858361 789 546 c 0,46,47
 913 438 913 438 913 303 c 0,48,49
 913 225 913 225 877 161.5 c 128,-1,50
 841 98 841 98 782.5 59.5 c 128,-1,0
 724 21 724 21 653.5 0.5 c 128,-1,1
EndSplineSet
EndChar

StartChar: T
Encoding: 84 84 55
Width: 1101
GlyphClass: 2
Flags: HW
AnchorPoint: "Anchor-5" 553 0 basechar 0
AnchorPoint: "Anchor-3" 553 0 basechar 0
AnchorPoint: "Anchor-2" 551 647 basechar 0
AnchorPoint: "Anchor-0" 553 1270 basechar 0
LayerCount: 2
Fore
SplineSet
121 1128 m 1,0,1
 80 1111.22727273 80 1111.22727273 80 999 c 1,2,-1
 37 999 l 1,3,-1
 37 1198 l 1,4,-1
 1065 1198 l 1,5,-1
 1065 999 l 1,6,-1
 1022 999 l 1,7,8
 1022 1111.22727273 1022 1111.22727273 981 1128 c 1,9,-1
 645 1128 l 1,10,-1
 645 84 l 1,11,12
 661.772727273 43 661.772727273 43 774 43 c 1,13,-1
 774 0 l 1,14,-1
 328 0 l 1,15,-1
 328 43 l 1,16,17
 440.227272727 43 440.227272727 43 457 84 c 1,18,-1
 457 1128 l 1,19,-1
 121 1128 l 1,0,1
EndSplineSet
EndChar

StartChar: U
Encoding: 85 85 56
Width: 1265
GlyphClass: 2
Flags: HW
AnchorPoint: "Anchor-5" 676 0 basechar 0
AnchorPoint: "Anchor-4" 676 0 basechar 0
AnchorPoint: "Anchor-3" 676 0 basechar 0
AnchorPoint: "Anchor-2" 676 694 basechar 0
AnchorPoint: "Anchor-0" 688 1270 basechar 0
LayerCount: 2
Fore
SplineSet
498 1155 m 1,0,1
 385.772727273 1155 385.772727273 1155 369 1114 c 1,2,-1
 369 479 l 2,3,4
 369 275 369 275 458.5 162 c 128,-1,5
 548 49 548 49 688.5 49 c 128,-1,6
 829 49 829 49 922.5 163.5 c 128,-1,7
 1016 278 1016 278 1016 467 c 2,8,-1
 1016 1114 l 1,9,10
 999.227272727 1155 999.227272727 1155 887 1155 c 1,11,-1
 887 1198 l 1,12,-1
 1214 1198 l 1,13,-1
 1214 1155 l 1,14,15
 1101.77272727 1155 1101.77272727 1155 1085 1114 c 1,16,-1
 1085 508 l 2,17,18
 1085 117.986206897 1085 117.986206897 829.5 10.5 c 0,19,20
 757 -20 757 -20 672 -20 c 0,21,22
 180 -20 180 -20 180 508 c 2,23,-1
 180 1114 l 1,24,25
 163.227272727 1155 163.227272727 1155 51 1155 c 1,26,-1
 51 1198 l 1,27,-1
 498 1198 l 1,28,-1
 498 1155 l 1,0,1
EndSplineSet
EndChar

StartChar: V
Encoding: 86 86 57
Width: 1114
GlyphClass: 2
Flags: HW
AnchorPoint: "Anchor-5" 555 0 basechar 0
AnchorPoint: "Anchor-3" 555 0 basechar 0
AnchorPoint: "Anchor-2" 608 901 basechar 0
AnchorPoint: "Anchor-0" 610 1270 basechar 0
LayerCount: 2
Fore
SplineSet
924 1118 m 1,0,1
 903.65 1155 903.65 1155 797 1155 c 1,2,-1
 797 1198 l 1,3,-1
 1133 1198 l 1,4,-1
 1133 1155 l 1,5,6
 1019 1155 1019 1155 1008 1122 c 2,7,-1
 606 0 l 1,8,-1
 508 0 l 1,9,-1
 111 1112 l 2,10,11
 96 1155 96 1155 -20 1155 c 1,12,-1
 -20 1198 l 1,13,-1
 428 1198 l 1,14,-1
 428 1155 l 1,15,16
 334 1155 334 1155 309 1130 c 1,17,-1
 623 272 l 1,18,-1
 924 1118 l 1,0,1
EndSplineSet
EndChar

StartChar: W
Encoding: 87 87 58
Width: 1722
GlyphClass: 2
Flags: HW
AnchorPoint: "Anchor-5" 874 0 basechar 0
AnchorPoint: "Anchor-4" 1176 0 basechar 0
AnchorPoint: "Anchor-3" 874 0 basechar 0
AnchorPoint: "Anchor-2" 862 602 basechar 0
AnchorPoint: "Anchor-0" 819 1270 basechar 0
LayerCount: 2
Fore
SplineSet
1532 1118 m 1,0,1
 1511.65 1155 1511.65 1155 1405 1155 c 1,2,-1
 1405 1198 l 1,3,-1
 1741 1198 l 1,4,-1
 1741 1155 l 1,5,6
 1627.63636364 1155 1627.63636364 1155 1612 1112 c 2,7,-1
 1214 0 l 1,8,-1
 1116 0 l 1,9,-1
 860 715 l 1,10,-1
 606 0 l 1,11,-1
 508 0 l 1,12,-1
 111 1112 l 2,13,14
 96 1155 96 1155 -20 1155 c 1,15,-1
 -20 1198 l 1,16,-1
 428 1198 l 1,17,-1
 428 1155 l 1,18,19
 334 1155 334 1155 309 1130 c 1,20,-1
 623 274 l 1,21,-1
 819 829 l 1,22,-1
 719 1112 l 2,23,24
 704 1155 704 1155 588 1155 c 1,25,-1
 588 1198 l 1,26,-1
 1036 1198 l 1,27,-1
 1036 1155 l 1,28,29
 943 1155 943 1155 918 1130 c 1,30,-1
 1231 272 l 1,31,-1
 1532 1118 l 1,0,1
EndSplineSet
EndChar

StartChar: X
Encoding: 88 88 59
Width: 1062
GlyphClass: 2
Flags: HW
LayerCount: 2
Fore
SplineSet
461 1198 m 1,0,-1
 461 1155 l 1,1,2
 364 1155 364 1155 342 1130 c 1,3,-1
 565 739 l 1,4,-1
 809 1122 l 1,5,6
 789 1155 789 1155 684 1155 c 1,7,-1
 684 1198 l 1,8,-1
 1020 1198 l 1,9,-1
 1020 1155 l 1,10,11
 919.105263158 1155 919.105263158 1155 897 1120 c 2,12,-1
 606 668 l 1,13,-1
 940 86 l 1,14,15
 962 43 962 43 1071 43 c 1,16,-1
 1071 0 l 1,17,-1
 623 0 l 1,18,-1
 623 43 l 1,19,20
 719 43 719 43 741 68 c 1,21,-1
 498 496 l 1,22,-1
 227 76 l 1,23,24
 247 43 247 43 352 43 c 1,25,-1
 352 0 l 1,26,-1
 16 0 l 1,27,-1
 16 43 l 1,28,29
 120.409090909 43 120.409090909 43 147 88 c 1,30,-1
 455 567 l 1,31,-1
 143 1114 l 2,32,33
 120.636363636 1155 120.636363636 1155 12 1155 c 1,34,-1
 12 1198 l 1,35,-1
 461 1198 l 1,0,-1
EndSplineSet
EndChar

StartChar: Y
Encoding: 89 89 60
Width: 1153
GlyphClass: 2
Flags: HW
AnchorPoint: "Anchor-5" 594 0 basechar 0
AnchorPoint: "Anchor-4" 659 0 basechar 0
AnchorPoint: "Anchor-3" 598 0 basechar 0
AnchorPoint: "Anchor-2" 590 410 basechar 0
AnchorPoint: "Anchor-0" 631 1270 basechar 0
LayerCount: 2
Fore
SplineSet
362 43 m 1,0,1
 475.227272727 43 475.227272727 43 492 84 c 1,2,-1
 492 451 l 1,3,-1
 113 1114 l 1,4,5
 86 1155 86 1155 -18 1155 c 1,6,-1
 -18 1198 l 1,7,-1
 430 1198 l 1,8,-1
 430 1155 l 1,9,10
 333 1155 333 1155 311 1130 c 1,11,-1
 629 575 l 1,12,-1
 956 1118 l 1,13,14
 935 1155 935 1155 829 1155 c 1,15,-1
 829 1198 l 1,16,-1
 1165 1198 l 1,17,-1
 1165 1155 l 1,18,19
 1079 1155 1079 1155 1049 1128 c 1,20,-1
 680 516 l 1,21,-1
 680 84 l 1,22,23
 696.772727273 43 696.772727273 43 809 43 c 1,24,-1
 809 0 l 1,25,-1
 362 0 l 1,26,-1
 362 43 l 1,0,1
EndSplineSet
EndChar

StartChar: Z
Encoding: 90 90 61
Width: 1024
GlyphClass: 2
Flags: HW
AnchorPoint: "Anchor-5" 526 0 basechar 0
AnchorPoint: "Anchor-3" 526 0 basechar 0
AnchorPoint: "Anchor-2" 481 602 basechar 0
AnchorPoint: "Anchor-0" 506 1270 basechar 0
LayerCount: 2
Fore
SplineSet
188 1137 m 1,0,1
 147 1120.22727273 147 1120.22727273 147 1008 c 1,2,-1
 104 1008 l 1,3,-1
 104 1198 l 1,4,-1
 930 1198 l 1,5,-1
 279 61 l 1,6,-1
 836 61 l 1,7,8
 898 87 898 87 930 197 c 1,9,-1
 973 197 l 1,10,-1
 920 0 l 1,11,-1
 35 0 l 1,12,-1
 686 1137 l 1,13,-1
 188 1137 l 1,0,1
EndSplineSet
EndChar

StartChar: bracketleft
Encoding: 91 91 62
Width: 589
GlyphClass: 2
Flags: HW
LayerCount: 2
Fore
SplineSet
315 1186 m 1,0,-1
 315 -246 l 1,1,-1
 553 -246 l 1,2,-1
 553 -319 l 1,3,-1
 152 -319 l 1,4,-1
 152 1260 l 1,5,-1
 553 1260 l 1,6,-1
 553 1186 l 1,7,-1
 315 1186 l 1,0,-1
EndSplineSet
EndChar

StartChar: backslash
Encoding: 92 92 63
Width: 937
GlyphClass: 2
Flags: HW
LayerCount: 2
Fore
SplineSet
897 -20 m 1,0,-1
 838 -57 l 1,1,-1
 41 1217 l 1,2,-1
 100 1253 l 1,3,-1
 897 -20 l 1,0,-1
EndSplineSet
EndChar

StartChar: bracketright
Encoding: 93 93 64
Width: 589
GlyphClass: 2
Flags: HW
LayerCount: 2
Fore
SplineSet
274 -246 m 1,0,-1
 274 1186 l 1,1,-1
 37 1186 l 1,2,-1
 37 1260 l 1,3,-1
 438 1260 l 1,4,-1
 438 -319 l 1,5,-1
 37 -319 l 1,6,-1
 37 -246 l 1,7,-1
 274 -246 l 1,0,-1
EndSplineSet
EndChar

StartChar: asciicircum
Encoding: 94 94 65
Width: 933
GlyphClass: 2
Flags: HW
LayerCount: 2
Fore
SplineSet
494 1106 m 1,0,-1
 831 705 l 1,1,-1
 762 647 l 1,2,-1
 467 999 l 1,3,-1
 172 647 l 1,4,-1
 102 705 l 1,5,-1
 438 1106 l 1,6,-1
 494 1106 l 1,0,-1
EndSplineSet
EndChar

StartChar: underscore
Encoding: 95 95 66
Width: 917
GlyphClass: 2
Flags: HW
LayerCount: 2
Fore
SplineSet
86 -102 m 1,0,-1
 831 -102 l 1,1,-1
 831 -193 l 1,2,-1
 86 -193 l 1,3,-1
 86 -102 l 1,0,-1
EndSplineSet
EndChar

StartChar: grave
Encoding: 96 96 67
Width: 614
GlyphClass: 2
Flags: HW
LayerCount: 2
Fore
SplineSet
340 1356 m 1,0,-1
 492 1024 l 1,1,-1
 438 1024 l 1,2,-1
 123 1356 l 1,3,-1
 340 1356 l 1,0,-1
EndSplineSet
EndChar

StartChar: a
Encoding: 97 97 68
Width: 989
GlyphClass: 2
Flags: HW
AnchorPoint: "Anchor-5" 485 0 basechar 0
AnchorPoint: "Anchor-4" 844 0 basechar 0
AnchorPoint: "Anchor-3" 406 0 basechar 0
AnchorPoint: "Anchor-2" 446 242 basechar 0
AnchorPoint: "Anchor-0" 455 1055 basechar 0
LayerCount: 2
Fore
SplineSet
229 750 m 1,0,1
 258 750 258 750 279.5 729.5 c 128,-1,2
 301 709 301 709 301 670 c 128,-1,3
 301 631 301 631 273.5 612.5 c 128,-1,4
 246 594 246 594 207.5 594 c 128,-1,5
 169 594 169 594 145 622 c 128,-1,6
 121 650 121 650 121 696 c 0,7,8
 121 803 121 803 209.5 862.5 c 128,-1,9
 298 922 298 922 459 922 c 0,10,11
 735.512396694 922 735.512396694 922 806.5 712.5 c 0,12,13
 827 652 827 652 827 578 c 2,14,-1
 827 172 l 2,15,16
 827 107 827 107 849 76 c 128,-1,17
 871 45 871 45 899.5 45 c 128,-1,18
 928 45 928 45 949.5 59 c 128,-1,19
 971 73 971 73 971 94 c 1,20,-1
 1008 94 l 1,21,22
 1008 36 1008 36 965.5 10 c 128,-1,23
 923 -16 923 -16 819.5 -16 c 128,-1,24
 716 -16 716 -16 674 68 c 1,25,26
 553 -20 553 -20 373 -20 c 0,27,28
 147.42 -20 147.42 -20 89 107 c 0,29,30
 66 157 66 157 66 212.5 c 128,-1,31
 66 268 66 268 86.5 301 c 128,-1,32
 107 334 107 334 145 359 c 128,-1,33
 183 384 183 384 227 403 c 128,-1,34
 271 422 271 422 329.5 438.5 c 128,-1,35
 388 455 388 455 437 466.5 c 128,-1,36
 486 478 486 478 546.5 492 c 128,-1,37
 607 506 607 506 643 516 c 1,38,39
 643 688 643 688 598 768 c 128,-1,40
 553 848 553 848 451 848 c 128,-1,41
 349 848 349 848 296 827 c 128,-1,42
 243 806 243 806 229 750 c 1,0,1
655 119 m 1,43,44
 643 165 643 165 643 229 c 2,45,-1
 643 471 l 1,46,47
 620 464 620 464 566 449 c 128,-1,48
 512 434 512 434 478 424 c 0,49,50
 377.608108108 394.472972973 377.608108108 394.472972973 316.804054054 347.180930931 c 128,-1,51
 256 299.888888889 256 299.888888889 256 213.444444444 c 0,52,53
 256 49 256 49 408 49 c 0,54,55
 468 49 468 49 537.5 69 c 128,-1,56
 607 89 607 89 655 119 c 1,43,44
EndSplineSet
EndChar

StartChar: b
Encoding: 98 98 69
Width: 1101
GlyphClass: 2
Flags: HW
AnchorPoint: "Anchor-5" 508 0 basechar 0
AnchorPoint: "Anchor-2" 270 1044 basechar 0
AnchorPoint: "Anchor-0" 565 1055 basechar 0
LayerCount: 2
Fore
SplineSet
139 1145 m 1,0,1
 12 1155 12 1155 10 1155 c 1,2,-1
 10 1202 l 1,3,4
 48 1202 48 1202 162 1246 c 128,-1,5
 276 1290 276 1290 324 1290 c 1,6,-1
 324 834 l 1,7,8
 424 930 424 930 604 930 c 0,9,10
 718.666666667 930 718.666666667 930 819.5 869.5 c 0,11,12
 1022 748 1022 748 1022 455 c 0,13,14
 1022 226 1022 226 894 103 c 128,-1,15
 766 -20 766 -20 559 -20 c 0,16,17
 410 -20 410 -20 315 57 c 1,18,19
 196.538461538 -20 196.538461538 -20 139 -20 c 1,20,-1
 139 1145 l 1,0,1
324 764 m 1,21,-1
 324 121 l 1,22,23
 405 49 405 49 547 49 c 0,24,25
 660 49 660 49 743.5 156.5 c 128,-1,26
 827 264 827 264 827 450 c 128,-1,27
 827 636 827 636 759.5 748 c 128,-1,28
 692 860 692 860 584 860 c 0,29,30
 411 860 411 860 324 764 c 1,21,-1
EndSplineSet
EndChar

StartChar: c
Encoding: 99 99 70
Width: 980
GlyphClass: 2
Flags: HW
AnchorPoint: "Anchor-5" 539 0 basechar 0
AnchorPoint: "Anchor-3" 539 0 basechar 0
AnchorPoint: "Anchor-0" 547 1055 basechar 0
LayerCount: 2
Fore
SplineSet
557 860 m 0,0,1
 431 860 431 860 352.5 764 c 128,-1,2
 274 668 274 668 274 504 c 0,3,4
 274 390 274 390 319 286 c 128,-1,5
 364 182 364 182 438 119.5 c 128,-1,6
 512 57 512 57 598 57 c 128,-1,7
 684 57 684 57 751.5 88 c 128,-1,8
 819 119 819 119 879 193 c 1,9,-1
 928 168 l 1,10,11
 868 71 868 71 773.5 25.5 c 128,-1,12
 679 -20 679 -20 535.1875 -20 c 128,-1,13
 391.375 -20 391.375 -20 275.363241767 49.0317900228 c 128,-1,14
 159.351483534 118.063580046 159.351483534 118.063580046 108.5 284 c 0,15,16
 80 377 80 377 80 479.5 c 0,17,18
 80 671.448275862 80 671.448275862 204.205128205 796.724137931 c 128,-1,19
 328.41025641 922 328.41025641 922 537 922 c 0,20,21
 700 922 700 922 787 866.5 c 128,-1,22
 874 811 874 811 874 705 c 0,23,24
 874 659 874 659 850 630.5 c 128,-1,25
 826 602 826 602 787.5 602 c 128,-1,26
 749 602 749 602 721.5 620.5 c 128,-1,27
 694 639 694 639 694 678 c 128,-1,28
 694 717 694 717 715.5 737.5 c 128,-1,29
 737 758 737 758 766 758 c 1,30,31
 740 860 740 860 557 860 c 0,0,1
EndSplineSet
EndChar

StartChar: d
Encoding: 100 100 71
Width: 1099
GlyphClass: 2
Flags: HW
AnchorPoint: "Anchor-5" 518 0 basechar 0
AnchorPoint: "Anchor-2" 797 1040 basechar 0
AnchorPoint: "Anchor-0" 469 1055 basechar 0
LayerCount: 2
Fore
SplineSet
743 881 m 1,0,-1
 743 1145 l 1,1,2
 616 1155 616 1155 614 1155 c 1,3,-1
 614 1202 l 1,4,5
 652 1202 652 1202 766 1246 c 128,-1,6
 880 1290 880 1290 928 1290 c 1,7,-1
 928 125 l 1,8,9
 1056 115 1056 115 1057 115 c 1,10,-1
 1057 68 l 1,11,12
 1018 68 1018 68 904 24 c 128,-1,13
 790 -20 790 -20 743 -20 c 1,14,-1
 743 47 l 1,15,16
 647 -20 647 -20 515.166666667 -20 c 0,17,18
 383.333333333 -20 383.333333333 -20 282.5 40.5 c 0,19,20
 80 162 80 162 80 455 c 0,21,22
 80 684 80 684 208 807 c 128,-1,23
 336 930 336 930 543 930 c 0,24,25
 661 930 661 930 743 881 c 1,0,-1
743 817 m 1,26,27
 670 860 670 860 558.403061224 860 c 0,28,29
 446.806122449 860 446.806122449 860 360.403061224 755.462962963 c 0,30,31
 274 650.925925926 274 650.925925926 274 455 c 0,32,33
 274 380 274 380 304 287 c 128,-1,34
 334 194 334 194 392.5 121.5 c 128,-1,35
 451 49 451 49 518 49 c 0,36,37
 653 49 653 49 743 115 c 1,38,-1
 743 817 l 1,26,27
EndSplineSet
EndChar

StartChar: e
Encoding: 101 101 72
Width: 1009
GlyphClass: 2
Flags: HW
AnchorPoint: "Anchor-5" 535 0 basechar 0
AnchorPoint: "Anchor-4" 610 0 basechar 0
AnchorPoint: "Anchor-3" 535 0 basechar 0
AnchorPoint: "Anchor-2" 510 692 basechar 0
AnchorPoint: "Anchor-0" 500 1055 basechar 0
LayerCount: 2
Fore
SplineSet
274 494 m 1,0,1
 276 382 276 382 321 280.5 c 128,-1,2
 366 179 366 179 439.5 118 c 128,-1,3
 513 57 513 57 598.5 57 c 128,-1,4
 684 57 684 57 751.5 88 c 128,-1,5
 819 119 819 119 879 193 c 1,6,-1
 928 168 l 1,7,8
 868 71 868 71 773.5 25.5 c 128,-1,9
 679 -20 679 -20 535.1875 -20 c 128,-1,10
 391.375 -20 391.375 -20 275.363241767 49.0317900228 c 128,-1,11
 159.351483534 118.063580046 159.351483534 118.063580046 108.5 284 c 0,12,13
 80 377 80 377 80 480 c 0,14,15
 80 672.461538462 80 672.461538462 189.966101695 797.230769231 c 128,-1,16
 299.93220339 922 299.93220339 922 512.54048186 922 c 128,-1,17
 725.148760331 922 725.148760331 922 828.574380165 796.855 c 128,-1,18
 932 671.71 932 671.71 932 494 c 1,19,-1
 274 494 l 1,0,1
276 557 m 1,20,-1
 731 557 l 1,21,22
 719.365320979 694.677035076 719.365320979 694.677035076 685.18266049 754.838517538 c 128,-1,23
 651 815 651 815 605.5 837.5 c 128,-1,24
 560 860 560 860 491 860 c 128,-1,25
 422 860 422 860 355.5 775.5 c 128,-1,26
 289 691 289 691 276 557 c 1,20,-1
EndSplineSet
EndChar

StartChar: f
Encoding: 102 102 73
Width: 555
GlyphClass: 2
Flags: HW
AnchorPoint: "Anchor-0" 436 1341 basechar 0
LayerCount: 2
Fore
SplineSet
53 43 m 1,0,1
 165.227272727 43 165.227272727 43 182 84 c 1,2,-1
 182 840 l 1,3,-1
 80 840 l 1,4,-1
 80 901 l 1,5,-1
 182 901 l 1,6,-1
 182 971 l 2,7,8
 182 1140 182 1140 251.5 1215 c 128,-1,9
 321 1290 321 1290 439 1290 c 128,-1,10
 557 1290 557 1290 618.5 1252.5 c 128,-1,11
 680 1215 680 1215 680 1175 c 128,-1,12
 680 1135 680 1135 656 1114.5 c 128,-1,13
 632 1094 632 1094 599.5 1094 c 128,-1,14
 567 1094 567 1094 551 1108 c 0,15,16
 532.752066116 1123.96694215 532.752066116 1123.96694215 519.286289468 1176.48347107 c 128,-1,17
 505.820512821 1229 505.820512821 1229 461.91025641 1229 c 128,-1,18
 418 1229 418 1229 392.5 1170 c 128,-1,19
 367 1111 367 1111 367 999 c 2,20,-1
 367 901 l 1,21,-1
 494 901 l 1,22,-1
 494 840 l 1,23,-1
 367 840 l 1,24,-1
 367 84 l 1,25,26
 383.772727273 43 383.772727273 43 496 43 c 1,27,-1
 496 0 l 1,28,-1
 53 0 l 1,29,-1
 53 43 l 1,0,1
EndSplineSet
EndChar

StartChar: g
Encoding: 103 103 74
Width: 1064
GlyphClass: 2
Flags: HW
AnchorPoint: "Anchor-5" 492 0 basechar 0
AnchorPoint: "Anchor-2" 840 467 basechar 0
AnchorPoint: "Anchor-0" 553 1055 basechar 0
LayerCount: 2
Fore
SplineSet
926 922 m 1,0,-1
 926 59 l 2,1,2
 926 -151 926 -151 824 -280.5 c 128,-1,3
 722 -410 722 -410 538 -410 c 128,-1,4
 354 -410 354 -410 248.5 -350.5 c 128,-1,5
 143 -291 143 -291 143 -225 c 0,6,7
 143 -179 143 -179 167 -151 c 128,-1,8
 191 -123 191 -123 229.5 -123 c 128,-1,9
 268 -123 268 -123 296 -141.5 c 128,-1,10
 324 -160 324 -160 324 -196.5 c 128,-1,11
 324 -233 324 -233 312 -251.5 c 128,-1,12
 300 -270 300 -270 272 -281 c 1,13,14
 297.988636364 -306.988636364 297.988636364 -306.988636364 367.994318182 -321.494318182 c 128,-1,15
 438 -336 438 -336 508 -336 c 0,16,17
 608 -336 608 -336 668 -250 c 128,-1,18
 728 -164 728 -164 739 41 c 1,19,20
 647 -20 647 -20 514.590909091 -20 c 0,21,22
 382.181818182 -20 382.181818182 -20 282 37 c 0,23,24
 158.653185807 107.180083937 158.653185807 107.180083937 108.5 255 c 0,25,26
 80 339 80 339 80 446 c 0,27,28
 80 675 80 675 208 798.5 c 128,-1,29
 336 922 336 922 543 922 c 0,30,31
 672 922 672 922 768 856 c 1,32,33
 871 922 871 922 926 922 c 1,0,-1
741 109 m 1,34,-1
 741 809 l 1,35,36
 668 852 668 852 555 852 c 128,-1,37
 442 852 442 852 358 744.5 c 128,-1,38
 274 637 274 637 274 451.5 c 128,-1,39
 274 266 274 266 342 157.5 c 128,-1,40
 410 49 410 49 518 49 c 0,41,42
 654 49 654 49 741 109 c 1,34,-1
EndSplineSet
EndChar

StartChar: h
Encoding: 104 104 75
Width: 1126
GlyphClass: 2
Flags: HW
AnchorPoint: "Anchor-5" 553 0 basechar 0
AnchorPoint: "Anchor-3" 852 0 basechar 0
AnchorPoint: "Anchor-2" 326 1057 basechar 0
AnchorPoint: "Anchor-0" 260 1341 basechar 0
LayerCount: 2
Fore
SplineSet
356 84 m 1,0,1
 372.772727273 43 372.772727273 43 485 43 c 1,2,-1
 485 0 l 1,3,-1
 43 0 l 1,4,-1
 43 43 l 1,5,6
 155.227272727 43 155.227272727 43 172 84 c 1,7,-1
 172 1145 l 1,8,9
 45 1155 45 1155 43 1155 c 1,10,-1
 43 1202 l 1,11,12
 82 1202 82 1202 195 1246 c 128,-1,13
 308 1290 308 1290 356 1290 c 1,14,-1
 356 827 l 1,15,16
 467 922 467 922 600 922 c 0,17,18
 795 922 795 922 878 858 c 128,-1,19
 961 794 961 794 961 639 c 2,20,-1
 961 84 l 1,21,22
 977.772727273 43 977.772727273 43 1090 43 c 1,23,-1
 1090 0 l 1,24,-1
 647 0 l 1,25,-1
 647 43 l 1,26,27
 759.227272727 43 759.227272727 43 776 84 c 1,28,-1
 776 653 l 2,29,30
 776 746 776 746 733.5 799 c 128,-1,31
 691 852 691 852 575 852 c 128,-1,32
 459 852 459 852 356 762 c 1,33,-1
 356 84 l 1,0,1
EndSplineSet
EndChar

StartChar: i
Encoding: 105 105 76
Width: 548
GlyphClass: 2
Flags: HW
AnchorPoint: "Anchor-5" 274 0 basechar 0
AnchorPoint: "Anchor-4" 360 0 basechar 0
AnchorPoint: "Anchor-3" 274 0 basechar 0
AnchorPoint: "Anchor-2" 287 532 basechar 0
AnchorPoint: "Anchor-0" 279 1270 basechar 0
LayerCount: 2
Fore
SplineSet
377 84 m 1,0,1
 393.772727273 43 393.772727273 43 506 43 c 1,2,-1
 506 0 l 1,3,-1
 63 0 l 1,4,-1
 63 43 l 1,5,6
 176.227272727 43 176.227272727 43 193 84 c 1,7,-1
 193 776 l 1,8,9
 66 786 66 786 63 786 c 1,10,-1
 63 834 l 1,11,12
 102 834 102 834 216 878 c 128,-1,13
 330 922 330 922 377 922 c 1,14,-1
 377 84 l 1,0,1
357 1087 m 128,-1,16
 327 1053 327 1053 280 1053 c 128,-1,17
 233 1053 233 1053 199.5 1087 c 128,-1,18
 166 1121 166 1121 166 1171 c 128,-1,19
 166 1221 166 1221 195.5 1255.5 c 128,-1,20
 225 1290 225 1290 271.5 1290 c 128,-1,21
 318 1290 318 1290 352.5 1255 c 128,-1,22
 387 1220 387 1220 387 1170.5 c 128,-1,15
 387 1121 387 1121 357 1087 c 128,-1,16
EndSplineSet
EndChar

StartChar: j
Encoding: 106 106 77
Width: 497
GlyphClass: 2
Flags: HW
AnchorPoint: "Anchor-0" 256 1270 basechar 0
LayerCount: 2
Fore
SplineSet
338.5 1087 m 128,-1,1
 308 1053 308 1053 261 1053 c 128,-1,2
 214 1053 214 1053 180.5 1087 c 128,-1,3
 147 1121 147 1121 147 1171 c 128,-1,4
 147 1221 147 1221 176.5 1255.5 c 128,-1,5
 206 1290 206 1290 253 1290 c 128,-1,6
 300 1290 300 1290 334.5 1255 c 128,-1,7
 369 1220 369 1220 369 1170.5 c 128,-1,0
 369 1121 369 1121 338.5 1087 c 128,-1,1
84 -410 m 0,8,9
 -182 -410 -182 -410 -182 -231 c 0,10,11
 -182 -194 -182 -194 -155 -172 c 128,-1,12
 -128 -150 -128 -150 -95 -150 c 128,-1,13
 -62 -150 -62 -150 -38 -172 c 128,-1,14
 -14 -194 -14 -194 -14 -226 c 128,-1,15
 -14 -258 -14 -258 -35 -279 c 1,16,17
 -35 -313 -35 -313 -6.5 -330.5 c 128,-1,18
 22 -348 22 -348 63.5 -348 c 128,-1,19
 105 -348 105 -348 139.5 -287.5 c 128,-1,20
 174 -227 174 -227 174 -119 c 2,21,-1
 174 776 l 1,22,23
 46 786 46 786 45 786 c 1,24,-1
 45 834 l 1,25,26
 84 834 84 834 197 878 c 128,-1,27
 310 922 310 922 358 922 c 1,28,-1
 358 -90 l 2,29,30
 358 -330.787234043 358 -330.787234043 186 -393 c 0,31,32
 139 -410 139 -410 84 -410 c 0,8,9
EndSplineSet
EndChar

StartChar: k
Encoding: 107 107 78
Width: 1026
GlyphClass: 2
Flags: HW
AnchorPoint: "Anchor-5" 545 0 basechar 0
AnchorPoint: "Anchor-3" 254 0 basechar 0
AnchorPoint: "Anchor-2" 258 532 basechar 0
AnchorPoint: "Anchor-0" 260 1341 basechar 0
LayerCount: 2
Fore
SplineSet
356 84 m 1,0,1
 372.772727273 43 372.772727273 43 485 43 c 1,2,-1
 485 0 l 1,3,-1
 43 0 l 1,4,-1
 43 43 l 1,5,6
 155.227272727 43 155.227272727 43 172 84 c 1,7,-1
 172 1145 l 1,8,9
 45 1155 45 1155 43 1155 c 1,10,-1
 43 1202 l 1,11,12
 82 1202 82 1202 195 1246 c 128,-1,13
 308 1290 308 1290 356 1290 c 1,14,-1
 356 84 l 1,0,1
635 0 m 1,15,-1
 635 43 l 1,16,17
 686 43 686 43 713 49 c 1,18,-1
 371 520 l 1,19,-1
 733 846 l 1,20,21
 703 858 703 858 633 858 c 1,22,-1
 633 901 l 1,23,-1
 954 901 l 1,24,-1
 954 858 l 1,25,26
 879 858 879 858 844 831 c 1,27,-1
 553 571 l 1,28,-1
 905 82 l 2,29,30
 920 60 920 60 948 51.5 c 128,-1,31
 976 43 976 43 1034 43 c 1,32,-1
 1034 0 l 1,33,-1
 635 0 l 1,15,-1
EndSplineSet
EndChar

StartChar: l
Encoding: 108 108 79
Width: 528
GlyphClass: 2
Flags: HW
AnchorPoint: "Anchor-5" 258 0 basechar 0
AnchorPoint: "Anchor-3" 258 0 basechar 0
AnchorPoint: "Anchor-2" 260 698 basechar 0
AnchorPoint: "Anchor-0" 260 1341 basechar 0
LayerCount: 2
Fore
SplineSet
356 84 m 1,0,1
 372.772727273 43 372.772727273 43 485 43 c 1,2,-1
 485 0 l 1,3,-1
 43 0 l 1,4,-1
 43 43 l 1,5,6
 155.227272727 43 155.227272727 43 172 84 c 1,7,-1
 172 1145 l 1,8,9
 45 1155 45 1155 43 1155 c 1,10,-1
 43 1202 l 1,11,12
 82 1202 82 1202 195 1246 c 128,-1,13
 308 1290 308 1290 356 1290 c 1,14,-1
 356 84 l 1,0,1
EndSplineSet
EndChar

StartChar: m
Encoding: 109 109 80
Width: 1685
GlyphClass: 2
Flags: HW
AnchorPoint: "Anchor-5" 856 0 basechar 0
AnchorPoint: "Anchor-3" 856 0 basechar 0
AnchorPoint: "Anchor-2" 856 455 basechar 0
AnchorPoint: "Anchor-0" 860 1055 basechar 0
LayerCount: 2
Fore
SplineSet
377 84 m 1,0,1
 393.772727273 43 393.772727273 43 506 43 c 1,2,-1
 506 0 l 1,3,-1
 63 0 l 1,4,-1
 63 43 l 1,5,6
 176.227272727 43 176.227272727 43 193 84 c 1,7,-1
 193 776 l 1,8,9
 66 786 66 786 63 786 c 1,10,-1
 63 834 l 1,11,12
 102 834 102 834 216 878 c 128,-1,13
 330 922 330 922 377 922 c 1,14,-1
 377 829 l 1,15,16
 487 922 487 922 604 922 c 0,17,18
 850 922 850 922 920 803 c 1,19,20
 1035 922 1035 922 1176 922 c 0,21,22
 1520 922 1520 922 1520 688 c 2,23,-1
 1520 84 l 1,24,25
 1536.77272727 43 1536.77272727 43 1649 43 c 1,26,-1
 1649 0 l 1,27,-1
 1206 0 l 1,28,-1
 1206 43 l 1,29,30
 1318.22727273 43 1318.22727273 43 1335 84 c 1,31,-1
 1335 612 l 2,32,33
 1335 745 1335 745 1295.5 798.5 c 128,-1,34
 1256 852 1256 852 1149 852 c 128,-1,35
 1042 852 1042 852 940 754 c 1,36,37
 948 727 948 727 948 688 c 2,38,-1
 948 84 l 1,39,40
 964.772727273 43 964.772727273 43 1077 43 c 1,41,-1
 1077 0 l 1,42,-1
 635 0 l 1,43,-1
 635 43 l 1,44,45
 747.227272727 43 747.227272727 43 764 84 c 1,46,-1
 764 612 l 2,47,48
 764 745 764 745 724.5 798.5 c 128,-1,49
 685 852 685 852 580 852 c 128,-1,50
 475 852 475 852 377 762 c 1,51,-1
 377 84 l 1,0,1
EndSplineSet
EndChar

StartChar: n
Encoding: 110 110 81
Width: 1144
GlyphClass: 2
Flags: HW
AnchorPoint: "Anchor-5" 582 0 basechar 0
AnchorPoint: "Anchor-3" 887 0 basechar 0
AnchorPoint: "Anchor-2" 582 455 basechar 0
AnchorPoint: "Anchor-0" 590 1057 basechar 0
LayerCount: 2
Fore
SplineSet
377 84 m 1,0,1
 393.772727273 43 393.772727273 43 506 43 c 1,2,-1
 506 0 l 1,3,-1
 63 0 l 1,4,-1
 63 43 l 1,5,6
 176.227272727 43 176.227272727 43 193 84 c 1,7,-1
 193 776 l 1,8,9
 66 786 66 786 63 786 c 1,10,-1
 63 834 l 1,11,12
 102 834 102 834 216 878 c 128,-1,13
 330 922 330 922 377 922 c 1,14,-1
 377 827 l 1,15,16
 488 922 488 922 621 922 c 0,17,18
 812 922 812 922 896.5 851.5 c 128,-1,19
 981 781 981 781 981 631 c 2,20,-1
 981 84 l 1,21,22
 997.772727273 43 997.772727273 43 1110 43 c 1,23,-1
 1110 0 l 1,24,-1
 668 0 l 1,25,-1
 668 43 l 1,26,27
 780.227272727 43 780.227272727 43 797 84 c 1,28,-1
 797 645 l 2,29,30
 797 852 797 852 608 852 c 0,31,32
 480 852 480 852 377 762 c 1,33,-1
 377 84 l 1,0,1
EndSplineSet
EndChar

StartChar: o
Encoding: 111 111 82
Width: 1116
GlyphClass: 2
Flags: HW
AnchorPoint: "Anchor-5" 573 0 basechar 0
AnchorPoint: "Anchor-4" 573 0 basechar 0
AnchorPoint: "Anchor-3" 573 0 basechar 0
AnchorPoint: "Anchor-2" 557 471 basechar 0
AnchorPoint: "Anchor-1" 877 641 basechar 0
AnchorPoint: "Anchor-0" 561 1055 basechar 0
LayerCount: 2
Fore
SplineSet
276 508 m 0,0,1
 276 274 276 274 365 157.5 c 128,-1,2
 454 41 454 41 594 41 c 0,3,4
 705 41 705 41 772.5 140 c 128,-1,5
 840 239 840 239 840 395 c 0,6,7
 840 858 840 858 518 858 c 0,8,9
 410 858 410 858 343 754.5 c 128,-1,10
 276 651 276 651 276 508 c 0,0,1
208.5 113.5 m 128,-1,12
 80 247 80 247 80 451.54587156 c 0,13,14
 80 656.091743119 80 656.091743119 192.341085271 789.04587156 c 0,15,16
 304.682170543 922 304.682170543 922 549.341085271 922 c 128,-1,17
 794 922 794 922 915 793.5 c 128,-1,18
 1036 665 1036 665 1036 432.294392523 c 0,19,20
 1036 199.588785047 1036 199.588785047 878.5 73 c 0,21,22
 762.790697674 -20 762.790697674 -20 549.895348837 -20 c 128,-1,11
 337 -20 337 -20 208.5 113.5 c 128,-1,12
EndSplineSet
EndChar

StartChar: p
Encoding: 112 112 83
Width: 1101
GlyphClass: 2
Flags: HW
AnchorPoint: "Anchor-5" 608 0 basechar 0
AnchorPoint: "Anchor-2" 270 446 basechar 0
AnchorPoint: "Anchor-0" 596 1055 basechar 0
LayerCount: 2
Fore
SplineSet
358 -309 m 1,0,1
 374.772727273 -350 374.772727273 -350 487 -350 c 1,2,-1
 487 -393 l 1,3,-1
 45 -393 l 1,4,-1
 45 -350 l 1,5,6
 157.227272727 -350 157.227272727 -350 174 -309 c 1,7,-1
 174 776 l 1,8,9
 46 786 46 786 45 786 c 1,10,-1
 45 834 l 1,11,12
 84 834 84 834 197 878 c 128,-1,13
 310 922 310 922 358 922 c 1,14,-1
 358 854 l 1,15,16
 455 922 455 922 586.833333333 922 c 0,17,18
 718.666666667 922 718.666666667 922 819.5 861.5 c 0,19,20
 1022 740 1022 740 1022 446 c 0,21,22
 1022 218 1022 218 894.5 99 c 128,-1,23
 767 -20 767 -20 559 -20 c 0,24,25
 439 -20 439 -20 358 25 c 1,26,-1
 358 -309 l 1,0,1
358 90 m 1,27,28
 438 49 438 49 549 49 c 128,-1,29
 660 49 660 49 743.5 153.5 c 128,-1,30
 827 258 827 258 827 446 c 0,31,32
 827 521 827 521 797 614 c 128,-1,33
 767 707 767 707 709 779.5 c 128,-1,34
 651 852 651 852 584 852 c 0,35,36
 443 852 443 852 358 786 c 1,37,-1
 358 90 l 1,27,28
EndSplineSet
EndChar

StartChar: q
Encoding: 113 113 84
Width: 1071
GlyphClass: 2
Flags: HW
LayerCount: 2
Fore
SplineSet
932 -309 m 1,0,1
 948.772727273 -350 948.772727273 -350 1061 -350 c 1,2,-1
 1061 -393 l 1,3,-1
 618 -393 l 1,4,-1
 618 -350 l 1,5,6
 731.227272727 -350 731.227272727 -350 748 -309 c 1,7,-1
 748 47 l 1,8,9
 652 -20 652 -20 517.090909091 -20 c 0,10,11
 382.181818182 -20 382.181818182 -20 282 37 c 0,12,13
 158.653185807 107.180083937 158.653185807 107.180083937 108.5 255 c 0,14,15
 80 339 80 339 80 446 c 0,16,17
 80 675 80 675 208 798.5 c 128,-1,18
 336 922 336 922 543 922 c 0,19,20
 679 922 679 922 772 854 c 1,21,22
 878 922 878 922 932 922 c 1,23,-1
 932 -309 l 1,0,1
748 113 m 1,24,-1
 748 805 l 1,25,26
 675 852 675 852 558.5 852 c 128,-1,27
 442 852 442 852 358 744.5 c 128,-1,28
 274 637 274 637 274 451.5 c 128,-1,29
 274 266 274 266 342 157.5 c 128,-1,30
 410 49 410 49 518 49 c 0,31,32
 661 49 661 49 748 113 c 1,24,-1
EndSplineSet
EndChar

StartChar: r
Encoding: 114 114 85
Width: 808
GlyphClass: 2
Flags: HW
AnchorPoint: "Anchor-5" 289 0 basechar 0
AnchorPoint: "Anchor-0" 498 1055 basechar 0
LayerCount: 2
Fore
SplineSet
377 84 m 1,0,1
 393.772727273 43 393.772727273 43 506 43 c 1,2,-1
 506 0 l 1,3,-1
 63 0 l 1,4,-1
 63 43 l 1,5,6
 176.227272727 43 176.227272727 43 193 84 c 1,7,-1
 193 776 l 1,8,9
 66 786 66 786 63 786 c 1,10,-1
 63 834 l 1,11,12
 102 834 102 834 216 878 c 128,-1,13
 330 922 330 922 377 922 c 1,14,-1
 377 831 l 1,15,16
 480 922 480 922 575.5 922 c 128,-1,17
 671 922 671 922 734 886.5 c 128,-1,18
 797 851 797 851 797 812 c 0,19,20
 797 735 797 735 715 735 c 0,21,22
 662.348837209 735 662.348837209 735 636.5 793.5 c 0,23,24
 627 815 627 815 606.5 833.5 c 128,-1,25
 586 852 586 852 557 852 c 0,26,27
 478 852 478 852 377 764 c 1,28,-1
 377 84 l 1,0,1
EndSplineSet
EndChar

StartChar: s
Encoding: 115 115 86
Width: 829
GlyphClass: 2
Flags: HW
AnchorPoint: "Anchor-5" 360 0 basechar 0
AnchorPoint: "Anchor-3" 360 0 basechar 0
AnchorPoint: "Anchor-2" 440 471 basechar 0
AnchorPoint: "Anchor-0" 416 1055 basechar 0
LayerCount: 2
Fore
SplineSet
616 860 m 0,0,1
 641 860 641 860 641 901 c 1,2,-1
 688 901 l 1,3,-1
 688 655 l 1,4,-1
 643 655 l 1,5,6
 631 740 631 740 560 800 c 128,-1,7
 489 860 489 860 410 860 c 128,-1,8
 331 860 331 860 287.5 829.5 c 128,-1,9
 244 799 244 799 244 744.65625 c 128,-1,10
 244 690.3125 244 690.3125 267 665.15625 c 128,-1,11
 290 640 290 640 305 628 c 128,-1,12
 320 616 320 616 348.5 603 c 0,13,14
 400.498942918 579.281183932 400.498942918 579.281183932 449.5 562.5 c 0,15,16
 762 455.479452055 762 455.479452055 762 240.5 c 0,17,18
 762 128 762 128 661.5 54 c 128,-1,19
 561 -20 561 -20 408 -20 c 0,20,21
 318.285714286 -20 318.285714286 -20 230 31.5 c 0,22,23
 200 49 200 49 187 49 c 128,-1,24
 174 49 174 49 157.5 33 c 128,-1,25
 141 17 141 17 141 0 c 1,26,-1
 92 0 l 1,27,-1
 92 289 l 1,28,-1
 137 289 l 1,29,30
 151 185 151 185 234 113 c 128,-1,31
 317 41 317 41 414.647887324 41 c 128,-1,32
 512.295774648 41 512.295774648 41 578.5 100.5 c 0,33,34
 618 136 618 136 618 184.5 c 0,35,36
 618 308.318181818 618 308.318181818 375 393 c 1,37,38
 216.968641115 450.160278746 216.968641115 450.160278746 160.484320557 513.705139373 c 128,-1,39
 104 577.25 104 577.25 104 683.125 c 128,-1,40
 104 789 104 789 187.5 855.5 c 128,-1,41
 271 922 271 922 372.5 922 c 128,-1,42
 474 922 474 922 570 875.5 c 0,43,44
 602 860 602 860 616 860 c 0,0,1
EndSplineSet
EndChar

StartChar: t
Encoding: 116 116 87
Width: 681
GlyphClass: 2
Flags: HW
AnchorPoint: "Anchor-5" 377 0 basechar 0
AnchorPoint: "Anchor-3" 377 0 basechar 0
AnchorPoint: "Anchor-0" 324 1270 basechar 0
LayerCount: 2
Fore
SplineSet
369 188 m 2,0,1
 369 57 369 57 463 57 c 0,2,3
 511 57 511 57 549.5 93.5 c 128,-1,4
 588 130 588 130 602 193 c 1,5,-1
 651 168 l 1,6,7
 607 -20 607 -20 406 -20 c 0,8,9
 172 -20 172 -20 172 205 c 2,10,-1
 172 840 l 1,11,-1
 29 840 l 1,12,-1
 29 901 l 1,13,14
 126 901 126 901 203.5 981 c 128,-1,15
 281 1061 281 1061 281 1198 c 1,16,-1
 369 1198 l 1,17,-1
 369 901 l 1,18,-1
 545 901 l 1,19,-1
 545 840 l 1,20,-1
 369 840 l 1,21,-1
 369 188 l 2,0,1
EndSplineSet
EndChar

StartChar: u
Encoding: 117 117 88
Width: 1126
GlyphClass: 2
Flags: HW
AnchorPoint: "Anchor-5" 563 0 basechar 0
AnchorPoint: "Anchor-4" 795 0 basechar 0
AnchorPoint: "Anchor-3" 539 0 basechar 0
AnchorPoint: "Anchor-2" 553 504 basechar 0
AnchorPoint: "Anchor-1" 944 641 basechar 0
AnchorPoint: "Anchor-0" 555 1055 basechar 0
LayerCount: 2
Fore
SplineSet
768 817 m 1,0,1
 751.227272727 858 751.227272727 858 639 858 c 1,2,-1
 639 901 l 1,3,-1
 952 901 l 1,4,-1
 952 125 l 1,5,6
 1080 115 1080 115 1081 115 c 1,7,-1
 1081 68 l 1,8,9
 1042 68 1042 68 929 24 c 128,-1,10
 816 -20 816 -20 768 -20 c 1,11,-1
 768 74 l 1,12,13
 658 -20 658 -20 524 -20 c 0,14,15
 333 -20 333 -20 248.5 50 c 128,-1,16
 164 120 164 120 164 270 c 2,17,-1
 164 817 l 1,18,19
 147.227272727 858 147.227272727 858 35 858 c 1,20,-1
 35 901 l 1,21,-1
 348 901 l 1,22,-1
 348 256 l 2,23,24
 348 49 348 49 537 49 c 0,25,26
 665 49 665 49 768 139 c 1,27,-1
 768 817 l 1,0,1
EndSplineSet
EndChar

StartChar: v
Encoding: 118 118 89
Width: 989
GlyphClass: 2
Flags: HW
AnchorPoint: "Anchor-5" 492 0 basechar 0
AnchorPoint: "Anchor-0" 537 1055 basechar 0
LayerCount: 2
Fore
SplineSet
387 901 m 1,0,-1
 387 858 l 1,1,2
 328 858 328 858 301 850 c 1,3,-1
 545 250 l 1,4,-1
 778 836 l 1,5,6
 750 858 750 858 664 858 c 1,7,-1
 664 901 l 1,8,-1
 999 901 l 1,9,-1
 999 858 l 1,10,11
 886 858 886 858 872 819 c 1,12,-1
 545 0 l 1,13,-1
 444 0 l 1,14,-1
 119 817 l 2,15,16
 102.227272727 858 102.227272727 858 -10 858 c 1,17,-1
 -10 901 l 1,18,-1
 387 901 l 1,0,-1
EndSplineSet
EndChar

StartChar: w
Encoding: 119 119 90
Width: 1556
GlyphClass: 2
Flags: HW
AnchorPoint: "Anchor-5" 786 0 basechar 0
AnchorPoint: "Anchor-0" 772 1055 basechar 0
LayerCount: 2
Fore
SplineSet
387 901 m 1,0,-1
 387 858 l 1,1,2
 328 858 328 858 301 850 c 1,3,-1
 545 250 l 1,4,-1
 729 711 l 1,5,-1
 686 817 l 2,6,7
 669.227272727 858 669.227272727 858 557 858 c 1,8,-1
 557 901 l 1,9,-1
 954 901 l 1,10,-1
 954 858 l 1,11,12
 895 858 895 858 868 850 c 1,13,-1
 1112 250 l 1,14,-1
 1346 836 l 1,15,16
 1318 858 1318 858 1231 858 c 1,17,-1
 1231 901 l 1,18,-1
 1567 901 l 1,19,-1
 1567 858 l 1,20,21
 1456 858 1456 858 1440 819 c 2,22,-1
 1112 0 l 1,23,-1
 1012 0 l 1,24,-1
 778 586 l 1,25,-1
 545 0 l 1,26,-1
 444 0 l 1,27,-1
 119 817 l 2,28,29
 102.227272727 858 102.227272727 858 -10 858 c 1,30,-1
 -10 901 l 1,31,-1
 387 901 l 1,0,-1
EndSplineSet
EndChar

StartChar: x
Encoding: 120 120 91
Width: 956
GlyphClass: 2
Flags: HW
LayerCount: 2
Fore
SplineSet
897 901 m 1,0,-1
 897 858 l 1,1,2
 789.714285714 858 789.714285714 858 760 819 c 1,3,-1
 559 520 l 1,4,-1
 831 82 l 2,5,6
 854.045454545 43 854.045454545 43 958 43 c 1,7,-1
 958 0 l 1,8,-1
 561 0 l 1,9,-1
 561 43 l 1,10,11
 612 43 612 43 639 49 c 1,12,-1
 449 356 l 1,13,-1
 248 57 l 1,14,15
 273 43 273 43 350 43 c 1,16,-1
 350 0 l 1,17,-1
 14 0 l 1,18,-1
 14 43 l 1,19,20
 124.086956522 43 124.086956522 43 154 86 c 2,21,-1
 393 442 l 1,22,-1
 156 825 l 2,23,24
 136 858 136 858 35 858 c 1,25,-1
 35 901 l 1,26,-1
 432 901 l 1,27,-1
 432 858 l 1,28,29
 382 858 382 858 352 852 c 1,30,-1
 504 606 l 1,31,-1
 664 844 l 1,32,33
 639 858 639 858 561 858 c 1,34,-1
 561 901 l 1,35,-1
 897 901 l 1,0,-1
EndSplineSet
EndChar

StartChar: y
Encoding: 121 121 92
Width: 989
GlyphClass: 2
Flags: HW
AnchorPoint: "Anchor-5" 623 0 basechar 0
AnchorPoint: "Anchor-4" 692 0 basechar 0
AnchorPoint: "Anchor-0" 532 1055 basechar 0
LayerCount: 2
Fore
SplineSet
387 901 m 1,0,-1
 387 858 l 1,1,2
 328 858 328 858 301 850 c 1,3,-1
 545 250 l 1,4,-1
 778 836 l 1,5,6
 750 858 750 858 664 858 c 1,7,-1
 664 901 l 1,8,-1
 999 901 l 1,9,-1
 999 858 l 1,10,11
 887 858 887 858 872 821 c 2,12,-1
 461 -209 l 2,13,14
 422 -305 422 -305 361 -349 c 128,-1,15
 300 -393 300 -393 247.5 -393 c 128,-1,16
 195 -393 195 -393 165 -366 c 128,-1,17
 135 -339 135 -339 135 -305.5 c 128,-1,18
 135 -272 135 -272 156.5 -247.5 c 128,-1,19
 178 -223 178 -223 207.5 -223 c 128,-1,20
 237 -223 237 -223 261.5 -240.5 c 128,-1,21
 286 -258 286 -258 299 -258 c 0,22,23
 343 -258 343 -258 356 -221 c 1,24,-1
 444 0 l 1,25,-1
 119 817 l 2,26,27
 102.227272727 858 102.227272727 858 -10 858 c 1,28,-1
 -10 901 l 1,29,-1
 387 901 l 1,0,-1
EndSplineSet
EndChar

StartChar: z
Encoding: 122 122 93
Width: 870
GlyphClass: 2
Flags: HW
AnchorPoint: "Anchor-5" 430 -2 basechar 0
AnchorPoint: "Anchor-3" 430 -2 basechar 0
AnchorPoint: "Anchor-2" 440 481 basechar 0
AnchorPoint: "Anchor-0" 442 1053 basechar 0
LayerCount: 2
Fore
SplineSet
709 61 m 1,0,1
 750 77.7727272727 750 77.7727272727 750 190 c 1,2,-1
 793 190 l 1,3,-1
 793 0 l 1,4,-1
 35 0 l 1,5,-1
 578 840 l 1,6,-1
 184 840 l 1,7,8
 143 823.227272727 143 823.227272727 143 711 c 1,9,-1
 100 711 l 1,10,-1
 100 901 l 1,11,-1
 809 901 l 1,12,-1
 266 61 l 1,13,-1
 709 61 l 1,0,1
EndSplineSet
EndChar

StartChar: braceleft
Encoding: 123 123 94
Width: 536
GlyphClass: 2
Flags: HW
LayerCount: 2
Fore
SplineSet
344 289 m 1,0,-1
 322 -143 l 1,1,2
 322 -212 322 -212 360.5 -238 c 128,-1,3
 399 -264 399 -264 479 -264 c 1,4,-1
 479 -313 l 1,5,6
 180 -313 180 -313 180 -125 c 1,7,-1
 199 307 l 1,8,9
 199 377 199 377 161.5 402.5 c 128,-1,10
 124 428 124 428 45 428 c 1,11,-1
 45 475 l 1,12,13
 124 475 124 475 161.5 501.5 c 128,-1,14
 199 528 199 528 199 598 c 1,15,-1
 180 1028 l 1,16,17
 180 1217 180 1217 479 1217 c 1,18,-1
 479 1169 l 1,19,20
 400 1169 400 1169 361 1143 c 128,-1,21
 322 1117 322 1117 322 1047 c 1,22,-1
 344 616 l 1,23,24
 344 497 344 497 221 453 c 1,25,26
 344 409 344 409 344 289 c 1,0,-1
EndSplineSet
EndChar

StartChar: bar
Encoding: 124 124 95
Width: 385
GlyphClass: 2
Flags: HW
LayerCount: 2
Fore
SplineSet
156 1331 m 1,0,-1
 229 1331 l 1,1,-1
 229 -61 l 1,2,-1
 156 -61 l 1,3,-1
 156 1331 l 1,0,-1
EndSplineSet
EndChar

StartChar: braceright
Encoding: 125 125 96
Width: 536
GlyphClass: 2
Flags: HW
LayerCount: 2
Fore
SplineSet
193 614 m 1,0,-1
 215 1047 l 1,1,2
 215 1116 215 1116 176 1141.5 c 128,-1,3
 137 1167 137 1167 57 1167 c 1,4,-1
 57 1217 l 1,5,6
 356 1217 356 1217 356 1028 c 1,7,-1
 338 596 l 1,8,9
 338 526 338 526 375.5 500.5 c 128,-1,10
 413 475 413 475 492 475 c 1,11,-1
 492 428 l 1,12,13
 413 428 413 428 375.5 401.5 c 128,-1,14
 338 375 338 375 338 305 c 1,15,-1
 356 -125 l 1,16,17
 356 -313 356 -313 57 -313 c 1,18,-1
 57 -266 l 1,19,20
 136 -266 136 -266 175.5 -239.5 c 128,-1,21
 215 -213 215 -213 215 -143 c 1,22,-1
 193 287 l 1,23,24
 193 407 193 407 315 451 c 1,25,26
 193 495 193 495 193 614 c 1,0,-1
EndSplineSet
EndChar

StartChar: asciitilde
Encoding: 126 126 97
Width: 1116
GlyphClass: 2
Flags: HW
LayerCount: 2
Fore
SplineSet
791 426 m 0,0,1
 731 426 731 426 539.5 496.5 c 128,-1,2
 348 567 348 567 311 567 c 0,3,4
 233 567 233 567 204.5 532.5 c 128,-1,5
 176 498 176 498 176 426 c 1,6,-1
 123 426 l 1,7,8
 123 696 123 696 332 696 c 0,9,10
 392 696 392 696 584 625.5 c 128,-1,11
 776 555 776 555 813 555 c 0,12,13
 891 555 891 555 919.5 589.5 c 128,-1,14
 948 624 948 624 948 696 c 1,15,-1
 1001 696 l 1,16,17
 1001 426 1001 426 791 426 c 0,0,1
EndSplineSet
EndChar

StartChar: exclamdown
Encoding: 161 161 99
Width: 477
GlyphClass: 2
Flags: HW
LayerCount: 2
Fore
SplineSet
360 961 m 128,-1,1
 360 911 360 911 327 871 c 128,-1,2
 294 831 294 831 243.5 831 c 128,-1,3
 193 831 193 831 154 867.5 c 128,-1,4
 115 904 115 904 115 953.5 c 128,-1,5
 115 1003 115 1003 149.5 1044 c 128,-1,6
 184 1085 184 1085 234.5 1085 c 128,-1,7
 285 1085 285 1085 322.5 1048 c 128,-1,0
 360 1011 360 1011 360 961 c 128,-1,1
340 -118.5 m 0,8,9
 340 -225 340 -225 239.5 -225 c 128,-1,10
 139 -225 139 -225 139 -118.5 c 0,11,12
 139 -59 139 -59 163.5 224.5 c 128,-1,13
 188 508 188 508 193 545 c 0,14,15
 210 684 210 684 240 684 c 128,-1,16
 270 684 270 684 287 545 c 0,17,18
 293 504 293 504 316.5 222.5 c 128,-1,19
 340 -59 340 -59 340 -118.5 c 0,8,9
EndSplineSet
EndChar

StartChar: cent
Encoding: 162 162 100
Width: 968
GlyphClass: 2
Flags: HW
LayerCount: 2
Fore
SplineSet
625 915 m 1,0,1
 858 884.07079646 858 884.07079646 858 705 c 0,2,3
 858 659 858 659 834 630.5 c 128,-1,4
 810 602 810 602 771.5 602 c 128,-1,5
 733 602 733 602 705.5 620.5 c 128,-1,6
 678 639 678 639 678 678 c 128,-1,7
 678 717 678 717 699.5 737.5 c 128,-1,8
 721 758 721 758 750 758 c 1,9,10
 728 840 728 840 614 856 c 1,11,-1
 479 82 l 1,12,13
 527 57 527 57 597 57 c 0,14,15
 751.72972973 57 751.72972973 57 862 193 c 1,16,-1
 911 168 l 1,17,18
 851 71 851 71 756.5 25.5 c 128,-1,19
 662 -20 662 -20 506 -20 c 0,20,21
 475 -20 475 -20 461 -18 c 1,22,-1
 418 -262 l 1,23,-1
 342 -248 l 1,24,-1
 385 -6 l 1,25,26
 251.018376723 29.0413476263 251.018376723 29.0413476263 157.009188361 144.052588707 c 0,27,28
 63 259.063829787 63 259.063829787 63 496 c 0,29,30
 63 671.448275862 63 671.448275862 187.205128205 796.724137931 c 0,31,32
 311.41025641 922 311.41025641 922 520 922 c 2,33,-1
 549 922 l 1,34,-1
 594 1174 l 1,35,-1
 668 1159 l 1,36,-1
 625 915 l 1,0,1
410 131 m 1,37,-1
 539 860 l 1,38,39
 414 858 414 858 336 762 c 128,-1,40
 258 666 258 666 258 504 c 0,41,42
 258 394 258 394 300 294 c 128,-1,43
 342 194 342 194 410 131 c 1,37,-1
EndSplineSet
EndChar

StartChar: sterling
Encoding: 163 163 101
Width: 1091
GlyphClass: 2
Flags: HW
LayerCount: 2
Fore
SplineSet
506 205 m 1,0,1
 603 147 603 147 689 147 c 128,-1,2
 775 147 775 147 831.5 159.5 c 128,-1,3
 888 172 888 172 918 189 c 128,-1,4
 948 206 948 206 967.5 223.5 c 128,-1,5
 987 241 987 241 997 253.5 c 128,-1,6
 1007 266 1007 266 1012 266 c 0,7,8
 1032 266 1032 266 1032 242 c 0,9,10
 1032 226.034482759 1032 226.034482759 1010 180.517241379 c 0,11,12
 972.093724531 102.090464548 972.093724531 102.090464548 898.833899303 43.0452322738 c 128,-1,13
 825.574074074 -16 825.574074074 -16 703.787037037 -16 c 128,-1,14
 582 -16 582 -16 457 92 c 1,15,16
 383 -20 383 -20 274 -20 c 128,-1,17
 165 -20 165 -20 112 35.5 c 128,-1,18
 59 91 59 91 59 158.5 c 128,-1,19
 59 226 59 226 115 279 c 128,-1,20
 171 332 171 332 230.5 332 c 128,-1,21
 290 332 290 332 354 301 c 1,22,-1
 354 311 l 2,23,24
 354 373 354 373 339 496.5 c 128,-1,25
 324 620 324 620 322 707 c 1,26,-1
 182 707 l 1,27,-1
 182 797 l 1,28,-1
 322 797 l 1,29,30
 329 1018 329 1018 402 1118.5 c 128,-1,31
 475 1219 475 1219 612.5 1219 c 128,-1,32
 750 1219 750 1219 836 1172 c 128,-1,33
 922 1125 922 1125 922 1040 c 0,34,35
 922 1003 922 1003 895 980.5 c 128,-1,36
 868 958 868 958 835 958 c 128,-1,37
 802 958 802 958 778 980.5 c 128,-1,38
 754 1003 754 1003 754 1035 c 128,-1,39
 754 1067 754 1067 774 1087 c 1,40,41
 774 1120 774 1120 727.5 1138.5 c 128,-1,42
 681 1157 681 1157 627 1157 c 0,43,44
 507.836734694 1157 507.836734694 1157 506 797 c 1,45,-1
 723 797 l 1,46,-1
 723 707 l 1,47,-1
 508 707 l 1,48,49
 510 658 510 658 518 548 c 128,-1,50
 526 438 526 438 526 356.5 c 128,-1,51
 526 275 526 275 506 205 c 1,0,1
348 197 m 1,52,53
 283 262 283 262 237.5 262 c 128,-1,54
 192 262 192 262 160.5 233.5 c 128,-1,55
 129 205 129 205 129 159.5 c 128,-1,56
 129 114 129 114 165 81.5 c 128,-1,57
 201 49 201 49 256 49 c 0,58,59
 330 49 330 49 348 197 c 1,52,53
EndSplineSet
EndChar

StartChar: currency
Encoding: 164 164 102
Width: 1046
GlyphClass: 2
Flags: HW
LayerCount: 2
Fore
SplineSet
231 537 m 128,-1,1
 231 416 231 416 316.5 330 c 128,-1,2
 402 244 402 244 524 244 c 128,-1,3
 646 244 646 244 731.5 330 c 128,-1,4
 817 416 817 416 817 537 c 128,-1,5
 817 658 817 658 731.5 743.5 c 128,-1,6
 646 829 646 829 524 829 c 128,-1,7
 402 829 402 829 316.5 743.5 c 128,-1,0
 231 658 231 658 231 537 c 128,-1,1
219 301 m 1,8,9
 139 409 139 409 139 538 c 0,10,11
 139 667 139 667 223 776 c 1,12,-1
 109 889 l 1,13,-1
 174 954 l 1,14,-1
 287 840 l 1,15,16
 393 922 393 922 522.5 922 c 0,17,18
 652 922 652 922 760 842 c 1,19,-1
 870 954 l 1,20,-1
 936 889 l 1,21,-1
 825 778 l 1,22,23
 909 673 909 673 909 539 c 0,24,25
 909 405 909 405 827 299 c 1,26,-1
 936 193 l 1,27,-1
 870 127 l 1,28,-1
 764 236 l 1,29,30
 655 152 655 152 521.5 152 c 0,31,32
 388 152 388 152 283 236 c 1,33,-1
 174 127 l 1,34,-1
 109 193 l 1,35,-1
 219 301 l 1,8,9
EndSplineSet
EndChar

StartChar: yen
Encoding: 165 165 103
Width: 1107
GlyphClass: 2
Flags: HW
LayerCount: 2
Fore
SplineSet
336 43 m 1,0,1
 448.227272727 43 448.227272727 43 465 84 c 1,2,-1
 465 156 l 1,3,-1
 287 156 l 1,4,-1
 287 246 l 1,5,-1
 465 246 l 1,6,-1
 465 360 l 1,7,-1
 287 360 l 1,8,-1
 287 451 l 1,9,-1
 442 451 l 1,10,-1
 178 1114 l 2,11,12
 161.227272727 1155 161.227272727 1155 49 1155 c 1,13,-1
 49 1198 l 1,14,-1
 446 1198 l 1,15,-1
 446 1155 l 1,16,17
 387 1155 387 1155 360 1147 c 1,18,-1
 604 547 l 1,19,-1
 838 1133 l 1,20,21
 810 1155 810 1155 723 1155 c 1,22,-1
 723 1198 l 1,23,-1
 1059 1198 l 1,24,-1
 1059 1155 l 1,25,26
 946 1155 946 1155 932 1116 c 1,27,-1
 666 451 l 1,28,-1
 827 451 l 1,29,-1
 827 360 l 1,30,-1
 653 360 l 1,31,-1
 653 246 l 1,32,-1
 827 246 l 1,33,-1
 827 156 l 1,34,-1
 653 156 l 1,35,-1
 653 84 l 1,36,37
 669.772727273 43 669.772727273 43 782 43 c 1,38,-1
 782 0 l 1,39,-1
 336 0 l 1,40,-1
 336 43 l 1,0,1
EndSplineSet
EndChar

StartChar: brokenbar
Encoding: 166 166 104
Width: 393
GlyphClass: 2
Flags: HW
LayerCount: 2
Fore
SplineSet
160 1331 m 1,0,-1
 233 1331 l 1,1,-1
 233 741 l 1,2,-1
 160 741 l 1,3,-1
 160 1331 l 1,0,-1
160 528 m 1,4,-1
 233 528 l 1,5,-1
 233 -61 l 1,6,-1
 160 -61 l 1,7,-1
 160 528 l 1,4,-1
EndSplineSet
EndChar

StartChar: section
Encoding: 167 167 105
Width: 839
GlyphClass: 2
Flags: HW
LayerCount: 2
Fore
SplineSet
686.5 962.5 m 128,-1,1
 668 938 668 938 637 938 c 128,-1,2
 606 938 606 938 583.5 961 c 128,-1,3
 561 984 561 984 561 1028.5 c 128,-1,4
 561 1073 561 1073 528.5 1126.5 c 128,-1,5
 496 1180 496 1180 433.5 1180 c 128,-1,6
 371 1180 371 1180 331 1154 c 128,-1,7
 291 1128 291 1128 291 1063.5 c 128,-1,8
 291 999 291 999 455.5 834.5 c 0,9,10
 524 766 524 766 593 693.5 c 0,11,12
 758 520.130434783 758 520.130434783 758 406 c 0,13,14
 758 154 758 154 557 86 c 1,15,16
 705 -58 705 -58 705 -172 c 0,17,18
 705 -252 705 -252 611 -318.5 c 128,-1,19
 517 -385 517 -385 383 -385 c 0,20,21
 291 -385 291 -385 213 -311.5 c 128,-1,22
 135 -238 135 -238 135 -184 c 0,23,24
 135 -151 135 -151 153.5 -126.5 c 128,-1,25
 172 -102 172 -102 203 -102 c 128,-1,26
 234 -102 234 -102 256.5 -125 c 128,-1,27
 279 -148 279 -148 279 -192.5 c 128,-1,28
 279 -237 279 -237 311.5 -290.5 c 128,-1,29
 344 -344 344 -344 406 -344 c 128,-1,30
 468 -344 468 -344 508.5 -318 c 128,-1,31
 549 -292 549 -292 549 -227.5 c 128,-1,32
 549 -163 549 -163 384.5 1.5 c 0,33,34
 316 70 316 70 247 142.5 c 0,35,36
 82 315.869565217 82 315.869565217 82 430 c 0,37,38
 82 682 82 682 283 750 c 1,39,40
 135 894 135 894 135 1008 c 0,41,42
 135 1088 135 1088 229 1154.5 c 128,-1,43
 323 1221 323 1221 457 1221 c 0,44,45
 549 1221 549 1221 627 1147.5 c 128,-1,46
 705 1074 705 1074 705 1020 c 0,47,0
 705 987 705 987 686.5 962.5 c 128,-1,1
500 141 m 1,48,49
 562 160 562 160 598.5 198 c 128,-1,50
 635 236 635 236 635 275.5 c 128,-1,51
 635 315 635 315 627 344 c 128,-1,52
 619 373 619 373 609 396.5 c 128,-1,53
 599 420 599 420 577 450.5 c 128,-1,54
 555 481 555 481 540 500 c 128,-1,55
 525 519 525 519 492.5 551 c 128,-1,56
 460 583 460 583 444.5 597.5 c 128,-1,57
 429 612 429 612 391 647 c 128,-1,58
 353 682 353 682 340 694 c 1,59,60
 278 675 278 675 241.5 637.5 c 128,-1,61
 205 600 205 600 205 560.5 c 128,-1,62
 205 521 205 521 213 491.5 c 128,-1,63
 221 462 221 462 231 439 c 128,-1,64
 241 416 241 416 263.5 385 c 128,-1,65
 286 354 286 354 300 336 c 0,66,67
 331.612903226 295.35483871 331.612903226 295.35483871 500 141 c 1,48,49
EndSplineSet
EndChar

StartChar: dieresis
Encoding: 168 168 106
Width: 823
GlyphClass: 2
Flags: HW
LayerCount: 2
Fore
SplineSet
500 1124 m 128,-1,1
 500 1165 500 1165 529.5 1195 c 128,-1,2
 559 1225 559 1225 600 1225 c 128,-1,3
 641 1225 641 1225 670.5 1195 c 128,-1,4
 700 1165 700 1165 700 1124 c 128,-1,5
 700 1083 700 1083 670.5 1053.5 c 128,-1,6
 641 1024 641 1024 600 1024 c 128,-1,7
 559 1024 559 1024 529.5 1053.5 c 128,-1,0
 500 1083 500 1083 500 1124 c 128,-1,1
123 1124 m 128,-1,9
 123 1165 123 1165 152.5 1195 c 128,-1,10
 182 1225 182 1225 223 1225 c 128,-1,11
 264 1225 264 1225 294 1195 c 128,-1,12
 324 1165 324 1165 324 1124 c 128,-1,13
 324 1083 324 1083 294 1053.5 c 128,-1,14
 264 1024 264 1024 223 1024 c 128,-1,15
 182 1024 182 1024 152.5 1053.5 c 128,-1,8
 123 1083 123 1083 123 1124 c 128,-1,9
EndSplineSet
EndChar

StartChar: copyright
Encoding: 169 169 107
Width: 1312
GlyphClass: 2
Flags: HW
LayerCount: 2
Fore
SplineSet
147 549 m 128,-1,1
 147 411 147 411 215.5 293.5 c 128,-1,2
 284 176 284 176 401.5 107.5 c 128,-1,3
 519 39 519 39 657 39 c 128,-1,4
 795 39 795 39 912.5 107.5 c 128,-1,5
 1030 176 1030 176 1098.5 293.5 c 128,-1,6
 1167 411 1167 411 1167 549 c 128,-1,7
 1167 687 1167 687 1098.5 804.5 c 128,-1,8
 1030 922 1030 922 912.5 990.5 c 128,-1,9
 795 1059 795 1059 657 1059 c 128,-1,10
 519 1059 519 1059 401.5 990.5 c 128,-1,11
 284 922 284 922 215.5 804.5 c 128,-1,0
 147 687 147 687 147 549 c 128,-1,1
92 549 m 128,-1,13
 92 702 92 702 168 832 c 128,-1,14
 244 962 244 962 374 1038 c 128,-1,15
 504 1114 504 1114 657 1114 c 128,-1,16
 810 1114 810 1114 940.5 1038 c 128,-1,17
 1071 962 1071 962 1147 832 c 128,-1,18
 1223 702 1223 702 1223 549 c 128,-1,19
 1223 396 1223 396 1147 266 c 128,-1,20
 1071 136 1071 136 940.5 60 c 128,-1,21
 810 -16 810 -16 657 -16 c 128,-1,22
 504 -16 504 -16 374 60 c 128,-1,23
 244 136 244 136 168 266 c 128,-1,12
 92 396 92 396 92 549 c 128,-1,13
772 795.5 m 128,-1,25
 743 823 743 823 670 823 c 128,-1,26
 597 823 597 823 543 752 c 128,-1,27
 489 681 489 681 489 559.5 c 128,-1,28
 489 438 489 438 548 365.5 c 128,-1,29
 607 293 607 293 673.5 293 c 128,-1,30
 740 293 740 293 786.5 329.5 c 128,-1,31
 833 366 833 366 848 408 c 1,32,-1
 891 387 l 1,33,34
 833 238 833 238 666 238 c 0,35,36
 570 238 570 238 499 284 c 0,37,38
 362 372.76056338 362 372.76056338 362 549 c 0,39,40
 362 649 362 649 408.5 726 c 0,41,42
 500.896103896 879 500.896103896 879 682 879 c 0,43,44
 730 879 730 879 761 863.5 c 128,-1,45
 792 848 792 848 794.5 848 c 128,-1,46
 797 848 797 848 797 868 c 1,47,-1
 842 868 l 1,48,-1
 852 717 l 1,49,-1
 811 717 l 1,50,24
 801 768 801 768 772 795.5 c 128,-1,25
EndSplineSet
EndChar

StartChar: ordfeminine
Encoding: 170 170 108
Width: 743
GlyphClass: 2
Flags: HW
LayerCount: 2
Fore
SplineSet
131 317 m 1,0,-1
 623 317 l 1,1,-1
 623 264 l 1,2,-1
 131 264 l 1,3,-1
 131 317 l 1,0,-1
160 809 m 0,4,5
 160 932 160 932 347.5 932 c 0,6,7
 438 932 438 932 485 881 c 128,-1,8
 532 830 532 830 532 750 c 2,9,-1
 532 547 l 2,10,11
 532 494 532 494 559 494 c 0,12,13
 576 494 576 494 580 499.5 c 128,-1,14
 584 505 584 505 584 518 c 1,15,-1
 623 518 l 1,16,17
 623 476 623 476 599.5 459 c 128,-1,18
 576 442 576 442 521 442 c 128,-1,19
 466 442 466 442 442 479 c 1,20,21
 379 440 379 440 295 440 c 0,22,23
 131 440 131 440 131 575 c 0,24,25
 131 636.092105263 131 636.092105263 203.069808646 665.489000895 c 128,-1,26
 275.139617293 694.885896527 275.139617293 694.885896527 340.069808646 708.942948264 c 128,-1,27
 405 723 405 723 420 727 c 1,28,29
 418 810 418 810 398.5 842 c 128,-1,30
 379 874 379 874 317.5 874 c 128,-1,31
 256 874 256 874 238 844 c 1,32,33
 270 836 270 836 270 792 c 128,-1,34
 270 748 270 748 213 748 c 0,35,36
 187 748 187 748 173.5 766.5 c 128,-1,37
 160 785 160 785 160 809 c 0,4,5
424 524 m 1,38,39
 420 547 420 547 420 575 c 2,40,-1
 420 682 l 1,41,42
 412 679 412 679 385.5 671.5 c 128,-1,43
 359 664 359 664 349 660.5 c 128,-1,44
 339 657 339 657 318 649.5 c 0,45,46
 246 623.785714286 246 623.785714286 246 564.4375 c 0,47,48
 246 526 246 526 262 511 c 128,-1,49
 278 496 278 496 324 496 c 128,-1,50
 370 496 370 496 424 524 c 1,38,39
EndSplineSet
EndChar

StartChar: guillemotleft
Encoding: 171 171 109
Width: 894
GlyphClass: 2
Flags: HW
LayerCount: 2
Fore
SplineSet
106 664 m 2,0,-1
 438 856 l 1,1,-1
 438 803 l 1,2,-1
 260 612 l 1,3,-1
 438 422 l 1,4,-1
 438 369 l 1,5,-1
 106 561 l 2,6,7
 80 575 80 575 80 612.5 c 0,8,9
 80 650 80 650 106 664 c 2,0,-1
434 664 m 2,10,-1
 766 856 l 1,11,-1
 766 803 l 1,12,-1
 588 612 l 1,13,-1
 766 422 l 1,14,-1
 766 369 l 1,15,-1
 434 561 l 2,16,17
 408 575 408 575 408 612.5 c 0,18,19
 408 650 408 650 434 664 c 2,10,-1
EndSplineSet
EndChar

StartChar: logicalnot
Encoding: 172 172 110
Width: 868
GlyphClass: 2
Flags: HW
LayerCount: 2
Fore
SplineSet
645 606 m 1,0,-1
 133 606 l 1,1,-1
 133 696 l 1,2,-1
 731 696 l 1,3,-1
 731 426 l 1,4,-1
 645 426 l 1,5,-1
 645 606 l 1,0,-1
EndSplineSet
EndChar

StartChar: uni00AD
Encoding: 173 173 111
Width: 794
GlyphClass: 2
Flags: HW
LayerCount: 2
Fore
SplineSet
127 696 m 1,0,-1
 668 696 l 1,1,-1
 668 606 l 1,2,-1
 127 606 l 1,3,-1
 127 696 l 1,0,-1
EndSplineSet
EndChar

StartChar: registered
Encoding: 174 174 112
Width: 1312
GlyphClass: 2
Flags: HW
LayerCount: 2
Fore
SplineSet
147 549 m 128,-1,1
 147 411 147 411 215.5 293.5 c 128,-1,2
 284 176 284 176 401.5 107.5 c 128,-1,3
 519 39 519 39 657 39 c 128,-1,4
 795 39 795 39 912.5 107.5 c 128,-1,5
 1030 176 1030 176 1098.5 293.5 c 128,-1,6
 1167 411 1167 411 1167 549 c 128,-1,7
 1167 687 1167 687 1098.5 804.5 c 128,-1,8
 1030 922 1030 922 912.5 990.5 c 128,-1,9
 795 1059 795 1059 657 1059 c 128,-1,10
 519 1059 519 1059 401.5 990.5 c 128,-1,11
 284 922 284 922 215.5 804.5 c 128,-1,0
 147 687 147 687 147 549 c 128,-1,1
92 549 m 128,-1,13
 92 702 92 702 168 832 c 128,-1,14
 244 962 244 962 374 1038 c 128,-1,15
 504 1114 504 1114 657 1114 c 128,-1,16
 810 1114 810 1114 940.5 1038 c 128,-1,17
 1071 962 1071 962 1147 832 c 128,-1,18
 1223 702 1223 702 1223 549 c 128,-1,19
 1223 396 1223 396 1147 266 c 128,-1,20
 1071 136 1071 136 940.5 60 c 128,-1,21
 810 -16 810 -16 657 -16 c 128,-1,22
 504 -16 504 -16 374 60 c 128,-1,23
 244 136 244 136 168 266 c 128,-1,12
 92 396 92 396 92 549 c 128,-1,13
895 709 m 0,24,25
 895 586.047619048 895 586.047619048 766 541 c 1,26,-1
 897 307 l 1,27,28
 902 291 902 291 965 291 c 1,29,-1
 965 250 l 1,30,-1
 911 250 l 2,31,32
 838 250 838 250 813 260.5 c 128,-1,33
 788 271 788 271 766 309 c 2,34,-1
 645 522 l 1,35,-1
 565 522 l 1,36,-1
 565 305 l 1,37,38
 571 291 571 291 629 291 c 1,39,-1
 629 250 l 1,40,-1
 387 250 l 1,41,-1
 387 291 l 1,42,43
 442 291 442 291 451 305 c 1,44,-1
 451 815 l 1,45,46
 445 827 445 827 387 827 c 1,47,-1
 387 868 l 1,48,-1
 629 868 l 2,49,50
 761 868 761 868 828 820 c 128,-1,51
 895 772 895 772 895 709 c 0,24,25
565 815 m 1,52,-1
 565 578 l 1,53,-1
 641 578 l 2,54,55
 721 578 721 578 746.5 606 c 128,-1,56
 772 634 772 634 772 697.5 c 128,-1,57
 772 761 772 761 741.5 788 c 128,-1,58
 711 815 711 815 629 815 c 2,59,-1
 565 815 l 1,52,-1
EndSplineSet
EndChar

StartChar: macron
Encoding: 175 175 113
Width: 786
GlyphClass: 2
Flags: HW
LayerCount: 2
Fore
SplineSet
123 1143 m 1,0,-1
 664 1143 l 1,1,-1
 664 1053 l 1,2,-1
 123 1053 l 1,3,-1
 123 1143 l 1,0,-1
EndSplineSet
EndChar

StartChar: degree
Encoding: 176 176 114
Width: 638
GlyphClass: 2
Flags: HW
LayerCount: 2
Fore
SplineSet
170 1057 m 128,-1,1
 170 996 170 996 213.5 952.5 c 128,-1,2
 257 909 257 909 319 909 c 128,-1,3
 381 909 381 909 425 952.5 c 128,-1,4
 469 996 469 996 469 1057 c 128,-1,5
 469 1118 469 1118 425 1162 c 128,-1,6
 381 1206 381 1206 319.5 1206 c 0,7,8
 258 1206 258 1206 214 1162 c 128,-1,0
 170 1118 170 1118 170 1057 c 128,-1,1
86 1057 m 128,-1,10
 86 1152 86 1152 155 1221 c 128,-1,11
 224 1290 224 1290 319 1290 c 128,-1,12
 414 1290 414 1290 483.5 1221 c 128,-1,13
 553 1152 553 1152 553 1057 c 128,-1,14
 553 962 553 962 483.5 893.5 c 128,-1,15
 414 825 414 825 319 825 c 128,-1,16
 224 825 224 825 155 893.5 c 128,-1,9
 86 962 86 962 86 1057 c 128,-1,10
EndSplineSet
EndChar

StartChar: plusminus
Encoding: 177 177 115
Width: 851
GlyphClass: 2
Flags: HW
LayerCount: 2
Fore
SplineSet
133 365 m 1,0,-1
 719 365 l 1,1,-1
 719 274 l 1,2,-1
 133 274 l 1,3,-1
 133 365 l 1,0,-1
471 713 m 1,4,-1
 471 506 l 1,5,-1
 381 506 l 1,6,-1
 381 713 l 1,7,-1
 133 713 l 1,8,-1
 133 803 l 1,9,-1
 381 803 l 1,10,-1
 381 1010 l 1,11,-1
 471 1010 l 1,12,-1
 471 803 l 1,13,-1
 719 803 l 1,14,-1
 719 713 l 1,15,-1
 471 713 l 1,4,-1
EndSplineSet
EndChar

StartChar: uni00B2
Encoding: 178 178 116
Width: 737
GlyphClass: 2
Flags: HW
LayerCount: 2
Fore
SplineSet
109 1118 m 0,0,1
 88 1118 88 1118 88 1147.6547619 c 0,2,3
 88 1177.30952381 88 1177.30952381 117.5 1220.1547619 c 128,-1,4
 147 1263 147 1263 176 1289.5 c 0,5,6
 244.396226415 1352 244.396226415 1352 368.198113208 1352 c 128,-1,7
 492 1352 492 1352 557.5 1295.5 c 128,-1,8
 623 1239 623 1239 623 1141 c 0,9,10
 623 1086 623 1086 572.5 1011 c 128,-1,11
 522 936 522 936 461.5 878 c 128,-1,12
 401 820 401 820 338.5 762 c 128,-1,13
 276 704 276 704 264 688 c 1,14,-1
 539 688 l 1,15,16
 561 696 561 696 583 720 c 128,-1,17
 605 744 605 744 616 776 c 1,18,-1
 662 776 l 1,19,-1
 604 573 l 1,20,-1
 74 573 l 1,21,-1
 74 584 l 2,22,23
 74 613.982758621 74 613.982758621 213 741 c 0,24,25
 271 794 271 794 329.5 854.5 c 0,26,27
 469 998.769230769 469 998.769230769 469 1122 c 0,28,29
 469 1178 469 1178 435.5 1213.5 c 128,-1,30
 402 1249 402 1249 342 1249 c 128,-1,31
 282 1249 282 1249 241 1235.5 c 128,-1,32
 200 1222 200 1222 180.5 1203 c 128,-1,33
 161 1184 161 1184 149 1164.5 c 128,-1,34
 137 1145 137 1145 128 1131.5 c 128,-1,35
 119 1118 119 1118 109 1118 c 0,0,1
EndSplineSet
EndChar

StartChar: uni00B3
Encoding: 179 179 117
Width: 724
GlyphClass: 2
Flags: HW
LayerCount: 2
Fore
SplineSet
76 688 m 0,0,1
 76 772 76 772 126.5 772 c 0,2,3
 152 772 152 772 164 757 c 128,-1,4
 176 742 176 742 185.5 721 c 128,-1,5
 195 700 195 700 209.5 678.5 c 0,6,7
 244.23255814 627 244.23255814 627 336 627 c 0,8,9
 504 627 504 627 504 795 c 0,10,11
 504 851 504 851 472.5 900.5 c 128,-1,12
 441 950 441 950 379 950 c 1,13,-1
 311 942 l 1,14,15
 297 942 297 942 285.5 951 c 128,-1,16
 274 960 274 960 274 967.5 c 128,-1,17
 274 975 274 975 279.333333333 981 c 128,-1,18
 284.666666667 987 284.666666667 987 331.333333333 1000.5 c 0,19,20
 463 1038.58928571 463 1038.58928571 463 1127.5 c 0,21,22
 463 1249 463 1249 324 1249 c 0,23,24
 230.3125 1249 230.3125 1249 193.5 1211 c 0,25,26
 178 1195 178 1195 168.5 1179 c 0,27,28
 145.9375 1141 145.9375 1141 135 1141 c 0,29,30
 113 1141 113 1141 113 1166.5 c 0,31,32
 113 1227.16 113 1227.16 180.847826087 1289.58 c 128,-1,33
 248.695652174 1352 248.695652174 1352 340 1352 c 0,34,35
 600 1352 600 1352 600 1153 c 0,36,37
 600 1067 600 1067 500 1006 c 1,38,39
 562 981 562 981 599.5 931.5 c 128,-1,40
 637 882 637 882 637 824.5 c 0,41,42
 637 710.952380952 637 710.952380952 575.7 637.976190476 c 128,-1,43
 514.4 565 514.4 565 347.45 565 c 128,-1,44
 180.5 565 180.5 565 95 655 c 0,45,46
 76 675 76 675 76 688 c 0,0,1
EndSplineSet
EndChar

StartChar: acute
Encoding: 180 180 118
Width: 614
GlyphClass: 2
Flags: HW
LayerCount: 2
Fore
SplineSet
274 1356 m 1,0,-1
 492 1356 l 1,1,-1
 176 1024 l 1,2,-1
 123 1024 l 1,3,-1
 274 1356 l 1,0,-1
EndSplineSet
EndChar

StartChar: uni00B5
Encoding: 181 181 119
Width: 1187
GlyphClass: 2
Flags: HW
LayerCount: 2
Fore
SplineSet
958 901 m 1,0,-1
 958 170 l 2,1,2
 958 105 958 105 980 73 c 128,-1,3
 1002 41 1002 41 1030.5 41 c 128,-1,4
 1059 41 1059 41 1080.5 56 c 128,-1,5
 1102 71 1102 71 1102 92 c 1,6,-1
 1139 92 l 1,7,8
 1139 33 1139 33 1096 6.5 c 128,-1,9
 1053 -20 1053 -20 950 -20 c 0,10,11
 816 -20 816 -20 784 125 c 1,12,13
 667 -20 667 -20 497.5 -20 c 128,-1,14
 328 -20 328 -20 244 49 c 1,15,-1
 244 -68 l 2,16,17
 244 -159.6 244 -159.6 292 -198 c 0,18,19
 312 -214 312 -214 331.5 -228 c 0,20,21
 379 -262.102564103 379 -262.102564103 379 -311.551282051 c 128,-1,22
 379 -361 379 -361 348 -385.5 c 128,-1,23
 317 -410 317 -410 275 -410 c 128,-1,24
 233 -410 233 -410 195.5 -377.5 c 128,-1,25
 158 -345 158 -345 158 -274 c 2,26,-1
 158 901 l 1,27,-1
 342 901 l 1,28,-1
 342 256 l 2,29,30
 342 49 342 49 530 49 c 0,31,32
 660 49 660 49 774 197 c 1,33,-1
 774 901 l 1,34,-1
 958 901 l 1,0,-1
EndSplineSet
EndChar

StartChar: paragraph
Encoding: 182 182 120
Width: 1089
GlyphClass: 2
Flags: HW
LayerCount: 2
Fore
SplineSet
870 84 m 1,0,1
 886.772727273 43 886.772727273 43 999 43 c 1,2,-1
 999 0 l 1,3,-1
 682 0 l 1,4,-1
 682 1128 l 1,5,-1
 578 1128 l 1,6,-1
 578 0 l 1,7,-1
 260 0 l 1,8,-1
 260 43 l 1,9,10
 372.227272727 43 372.227272727 43 389 84 c 1,11,-1
 389 549 l 1,12,13
 234 564 234 564 147.5 651 c 128,-1,14
 61 738 61 738 61 872 c 0,15,16
 61 965.223880597 61 965.223880597 122.5 1046 c 0,17,18
 238.227272727 1198 238.227272727 1198 508 1198 c 2,19,-1
 999 1198 l 1,20,-1
 999 1155 l 1,21,22
 886.772727273 1155 886.772727273 1155 870 1114 c 1,23,-1
 870 84 l 1,0,1
EndSplineSet
EndChar

StartChar: periodcentered
Encoding: 183 183 121
Width: 466
GlyphClass: 2
Flags: HW
LayerCount: 2
Fore
SplineSet
111 616 m 128,-1,1
 111 666 111 666 144 705.5 c 128,-1,2
 177 745 177 745 227.5 745 c 0,3,4
 278 745 278 745 317 709 c 128,-1,5
 356 673 356 673 356 623.5 c 0,6,7
 356 574 356 574 321.5 533 c 128,-1,8
 287 492 287 492 236.5 492 c 0,9,10
 186 492 186 492 148.5 529 c 128,-1,0
 111 566 111 566 111 616 c 128,-1,1
EndSplineSet
EndChar

StartChar: cedilla
Encoding: 184 184 122
Width: 622
GlyphClass: 2
Flags: HW
LayerCount: 2
Fore
SplineSet
254 25 m 1,0,-1
 332 25 l 1,1,-1
 295 -113 l 1,2,3
 392.121212121 -113 392.121212121 -113 460 -169 c 0,4,5
 500 -202 500 -202 500 -240.5 c 0,6,7
 500 -310.191489362 500 -310.191489362 453.091836735 -359.095744681 c 128,-1,8
 406.183673469 -408 406.183673469 -408 274 -408 c 0,9,10
 212 -408 212 -408 123 -393 c 1,11,-1
 123 -358 l 1,12,13
 159 -362 159 -362 174 -362 c 0,14,15
 253 -362 253 -362 287.5 -332.5 c 128,-1,16
 322 -303 322 -303 322 -266 c 0,17,18
 322 -176 322 -176 197 -176 c 1,19,-1
 254 25 l 1,0,-1
EndSplineSet
EndChar

StartChar: uni00B9
Encoding: 185 185 123
Width: 495
GlyphClass: 2
Flags: HW
LayerCount: 2
Fore
SplineSet
82 1040 m 1,0,1
 88 1050 88 1050 118 1104 c 0,2,3
 163.483870968 1185.87096774 163.483870968 1185.87096774 213.013019821 1263.43548387 c 128,-1,4
 262.542168675 1341 262.542168675 1341 289 1341 c 2,5,-1
 326 1341 l 1,6,-1
 326 641 l 1,7,8
 336 621 336 621 414 621 c 1,9,-1
 414 573 l 1,10,-1
 94 573 l 1,11,-1
 94 621 l 1,12,13
 168 621 168 621 180 641 c 1,14,-1
 180 1085 l 1,15,16
 167.346153846 1077.76923077 167.346153846 1077.76923077 156.673076923 1066.38461538 c 128,-1,17
 146 1055 146 1055 141.5 1050.5 c 128,-1,18
 137 1046 137 1046 128.5 1035.5 c 128,-1,19
 120 1025 120 1025 117 1022 c 1,20,-1
 82 1040 l 1,0,1
EndSplineSet
EndChar

StartChar: ordmasculine
Encoding: 186 186 124
Width: 751
GlyphClass: 2
Flags: HW
LayerCount: 2
Fore
SplineSet
127 317 m 1,0,-1
 625 317 l 1,1,-1
 625 264 l 1,2,-1
 127 264 l 1,3,-1
 127 317 l 1,0,-1
506 657 m 0,4,5
 506 879 506 879 356 879 c 0,6,7
 307 879 307 879 276.5 830 c 128,-1,8
 246 781 246 781 246 690 c 128,-1,9
 246 599 246 599 287 545.5 c 128,-1,10
 328 492 328 492 386.5 492 c 128,-1,11
 445 492 445 492 475.5 538 c 128,-1,12
 506 584 506 584 506 657 c 0,4,5
564 508.5 m 128,-1,14
 503 440 503 440 382 440 c 128,-1,15
 261 440 261 440 194 511 c 128,-1,16
 127 582 127 582 127 690 c 128,-1,17
 127 798 127 798 189 865 c 128,-1,18
 251 932 251 932 375 932 c 128,-1,19
 499 932 499 932 562 863.5 c 128,-1,20
 625 795 625 795 625 686 c 128,-1,13
 625 577 625 577 564 508.5 c 128,-1,14
EndSplineSet
EndChar

StartChar: guillemotright
Encoding: 187 187 125
Width: 894
GlyphClass: 2
Flags: HW
LayerCount: 2
Fore
SplineSet
461 561 m 2,0,-1
 129 369 l 1,1,-1
 129 422 l 1,2,-1
 307 612 l 1,3,-1
 129 803 l 1,4,-1
 129 856 l 1,5,-1
 461 664 l 2,6,7
 487 650 487 650 487 612.5 c 0,8,9
 487 575 487 575 461 561 c 2,0,-1
788 561 m 2,10,-1
 457 369 l 1,11,-1
 457 422 l 1,12,-1
 635 612 l 1,13,-1
 457 803 l 1,14,-1
 457 856 l 1,15,-1
 788 664 l 2,16,17
 815 649 815 649 815 612.5 c 0,18,19
 815 576 815 576 788 561 c 2,10,-1
EndSplineSet
EndChar

StartChar: onequarter
Encoding: 188 188 126
Width: 1331
GlyphClass: 2
Flags: HW
LayerCount: 2
Fore
SplineSet
213 -20 m 1,0,-1
 1010 1253 l 1,1,-1
 1069 1217 l 1,2,-1
 272 -57 l 1,3,-1
 213 -20 l 1,0,-1
1159 768 m 1,4,-1
 1159 274 l 1,5,-1
 1272 274 l 1,6,-1
 1272 215 l 1,7,-1
 1159 215 l 1,8,-1
 1159 68 l 1,9,10
 1171 47 1171 47 1245 47 c 1,11,-1
 1245 0 l 1,12,-1
 930 0 l 1,13,-1
 930 47 l 1,14,15
 1006 47 1006 47 1016 68 c 1,16,-1
 1016 215 l 1,17,-1
 686 215 l 1,18,-1
 1073 768 l 1,19,-1
 1159 768 l 1,4,-1
1016 274 m 1,20,-1
 1016 582 l 1,21,-1
 801 274 l 1,22,-1
 1016 274 l 1,20,-1
70 1040 m 1,23,24
 232.076923077 1341 232.076923077 1341 276 1341 c 2,25,-1
 313 1341 l 1,26,-1
 313 641 l 1,27,28
 323 621 323 621 401 621 c 1,29,-1
 401 573 l 1,30,-1
 82 573 l 1,31,-1
 82 621 l 1,32,33
 156 621 156 621 168 641 c 1,34,-1
 168 1085 l 1,35,36
 148 1073 148 1073 104 1022 c 1,37,-1
 70 1040 l 1,23,24
EndSplineSet
EndChar

StartChar: onehalf
Encoding: 189 189 127
Width: 1388
GlyphClass: 2
Flags: HW
LayerCount: 2
Fore
SplineSet
168 -20 m 1,0,-1
 965 1253 l 1,1,-1
 1024 1217 l 1,2,-1
 227 -57 l 1,3,-1
 168 -20 l 1,0,-1
1206 115 m 1,4,5
 1228 123 1228 123 1250.5 147 c 128,-1,6
 1273 171 1273 171 1284 203 c 1,7,-1
 1329 203 l 1,8,-1
 1272 0 l 1,9,-1
 741 0 l 1,10,-1
 741 10 l 2,11,12
 741 30 741 30 782 72 c 128,-1,13
 823 114 823 114 881 167.5 c 128,-1,14
 939 221 939 221 997 281 c 128,-1,15
 1055 341 1055 341 1096 413 c 128,-1,16
 1137 485 1137 485 1137 545 c 128,-1,17
 1137 605 1137 605 1103.5 640.5 c 128,-1,18
 1070 676 1070 676 1010 676 c 128,-1,19
 950 676 950 676 909 662.5 c 128,-1,20
 868 649 868 649 848.5 629.5 c 128,-1,21
 829 610 829 610 816.5 591 c 128,-1,22
 804 572 804 572 795 558.5 c 128,-1,23
 786 545 786 545 776 545 c 0,24,25
 756 545 756 545 756 574.154761905 c 128,-1,26
 756 603.30952381 756 603.30952381 785.5 646.154761905 c 128,-1,27
 815 689 815 689 844 715.5 c 0,28,29
 912.396226415 778 912.396226415 778 1036.19811321 778 c 128,-1,30
 1160 778 1160 778 1225 721.5 c 128,-1,31
 1290 665 1290 665 1290 567 c 0,32,33
 1290 512 1290 512 1239.5 437 c 128,-1,34
 1189 362 1189 362 1128.5 304 c 128,-1,35
 1068 246 1068 246 1006 188.5 c 128,-1,36
 944 131 944 131 932 115 c 1,37,-1
 1206 115 l 1,4,5
74 1040 m 1,38,39
 80 1050 80 1050 110 1104 c 0,40,41
 155.483870968 1185.87096774 155.483870968 1185.87096774 205.013019821 1263.43548387 c 128,-1,42
 254.542168675 1341 254.542168675 1341 281 1341 c 2,43,-1
 317 1341 l 1,44,-1
 317 641 l 1,45,46
 327 621 327 621 406 621 c 1,47,-1
 406 573 l 1,48,-1
 86 573 l 1,49,-1
 86 621 l 1,50,51
 160 621 160 621 172 641 c 1,52,-1
 172 1085 l 1,53,54
 159.346153846 1077.76923077 159.346153846 1077.76923077 148.673076923 1066.38461538 c 128,-1,55
 138 1055 138 1055 133.5 1050.5 c 128,-1,56
 129 1046 129 1046 120.5 1035.5 c 128,-1,57
 112 1025 112 1025 109 1022 c 1,58,-1
 74 1040 l 1,38,39
EndSplineSet
EndChar

StartChar: threequarters
Encoding: 190 190 128
Width: 1406
GlyphClass: 2
Flags: HW
LayerCount: 2
Fore
SplineSet
307 -20 m 1,0,-1
 1104 1253 l 1,1,-1
 1163 1217 l 1,2,-1
 367 -57 l 1,3,-1
 307 -20 l 1,0,-1
1233 768 m 1,4,-1
 1233 274 l 1,5,-1
 1346 274 l 1,6,-1
 1346 215 l 1,7,-1
 1233 215 l 1,8,-1
 1233 68 l 1,9,10
 1245 47 1245 47 1319 47 c 1,11,-1
 1319 0 l 1,12,-1
 1004 0 l 1,13,-1
 1004 47 l 1,14,15
 1080 47 1080 47 1090 68 c 1,16,-1
 1090 215 l 1,17,-1
 760 215 l 1,18,-1
 1147 768 l 1,19,-1
 1233 768 l 1,4,-1
1090 274 m 1,20,-1
 1090 582 l 1,21,-1
 874 274 l 1,22,-1
 1090 274 l 1,20,-1
59 688 m 0,23,24
 59 772 59 772 110.5 772 c 0,25,26
 136 772 136 772 148 757 c 128,-1,27
 160 742 160 742 169.5 721 c 128,-1,28
 179 700 179 700 193 678.5 c 0,29,30
 226.534883721 627 226.534883721 627 319 627 c 0,31,32
 487 627 487 627 487 795 c 0,33,34
 487 851 487 851 455.5 900.5 c 128,-1,35
 424 950 424 950 362 950 c 1,36,-1
 295 942 l 1,37,38
 281 942 281 942 269.5 951 c 128,-1,39
 258 960 258 960 258 967.5 c 128,-1,40
 258 975 258 975 263.333333333 981 c 128,-1,41
 268.666666667 987 268.666666667 987 314.833333333 1000.5 c 0,42,43
 446 1038.85559567 446 1038.85559567 446 1127.5 c 0,44,45
 446 1249 446 1249 307 1249 c 0,46,47
 212.625 1249 212.625 1249 177 1211 c 0,48,49
 162 1195 162 1195 152.5 1179 c 128,-1,50
 143 1163 143 1163 135.5 1152 c 128,-1,51
 128 1141 128 1141 117.5 1141 c 0,52,53
 96 1141 96 1141 96 1173.79411765 c 128,-1,54
 96 1206.58823529 96 1206.58823529 135 1256.29411765 c 0,55,56
 210.092307692 1352 210.092307692 1352 324 1352 c 0,57,58
 584 1352 584 1352 584 1153 c 0,59,60
 584 1067 584 1067 483 1006 c 1,61,62
 545 981 545 981 583 931.5 c 128,-1,63
 621 882 621 882 621 824.5 c 0,64,65
 621 710.952380952 621 710.952380952 559.7 637.976190476 c 128,-1,66
 498.4 565 498.4 565 332.325 565 c 128,-1,67
 166.25 565 166.25 565 78.5 655 c 0,68,69
 59 675 59 675 59 688 c 0,23,24
EndSplineSet
EndChar

StartChar: questiondown
Encoding: 191 191 129
Width: 806
GlyphClass: 2
Flags: HW
LayerCount: 2
Fore
SplineSet
557 961 m 128,-1,1
 557 911 557 911 523.5 871 c 128,-1,2
 490 831 490 831 439.5 831 c 128,-1,3
 389 831 389 831 350 867.5 c 128,-1,4
 311 904 311 904 311 953.5 c 128,-1,5
 311 1003 311 1003 345.5 1044 c 128,-1,6
 380 1085 380 1085 430.5 1085 c 128,-1,7
 481 1085 481 1085 519 1048 c 128,-1,0
 557 1011 557 1011 557 961 c 128,-1,1
465 655 m 0,8,9
 465 540.047619048 465 540.047619048 389.5 425 c 0,10,11
 358 377 358 377 326 327.5 c 0,12,13
 250 209.9375 250 209.9375 250 80.96875 c 128,-1,14
 250 -48 250 -48 295 -106 c 128,-1,15
 340 -164 340 -164 431.5 -164 c 128,-1,16
 523 -164 523 -164 574 -116.5 c 128,-1,17
 625 -69 625 -69 625 -18 c 0,18,19
 625 7 625 7 609.5 34 c 128,-1,20
 594 61 594 61 594 88 c 128,-1,21
 594 115 594 115 613.5 134.5 c 128,-1,22
 633 154 633 154 665 154 c 128,-1,23
 697 154 697 154 722.5 128 c 128,-1,24
 748 102 748 102 748 52 c 0,25,26
 748 -49.9210526316 748 -49.9210526316 666.865853659 -137.460526316 c 128,-1,27
 585.731707317 -225 585.731707317 -225 424 -225 c 0,28,29
 326 -225 326 -225 252.5 -195 c 128,-1,30
 179 -165 179 -165 140.5 -116 c 0,31,32
 66 -21.1818181818 66 -21.1818181818 66 90.2727272727 c 128,-1,33
 66 201.727272727 66 201.727272727 155.5 307.5 c 0,34,35
 218.454545455 381.900826446 218.454545455 381.900826446 289.727272727 455.950413223 c 128,-1,36
 361 530 361 530 386.5 573.5 c 128,-1,37
 412 617 412 617 412 641 c 128,-1,38
 412 665 412 665 421 674.5 c 128,-1,39
 430 684 430 684 438 684 c 128,-1,40
 446 684 446 684 455.5 674.5 c 128,-1,41
 465 665 465 665 465 655 c 0,8,9
EndSplineSet
EndChar

StartChar: AE
Encoding: 198 198 136
Width: 1550
GlyphClass: 2
Flags: HW
AnchorPoint: "Anchor-0" 827 1270 basechar 0
LayerCount: 2
Fore
SplineSet
164 80 m 1,0,1
 184.35 43 184.35 43 291 43 c 1,2,-1
 291 0 l 1,3,-1
 -45 0 l 1,4,-1
 -45 43 l 1,5,6
 61 43 61 43 84 84 c 2,7,-1
 672 1133 l 1,8,9
 647 1155 647 1155 555 1155 c 1,10,-1
 555 1198 l 1,11,-1
 1423 1198 l 1,12,-1
 1423 999 l 1,13,-1
 1380 999 l 1,14,15
 1380 1111.22727273 1380 1111.22727273 1339 1128 c 1,16,-1
 915 1128 l 1,17,-1
 915 657 l 1,18,-1
 1202 657 l 1,19,20
 1243 673.772727273 1243 673.772727273 1243 786 c 1,21,-1
 1286 786 l 1,22,-1
 1286 459 l 1,23,-1
 1243 459 l 1,24,25
 1243 571.227272727 1243 571.227272727 1202 588 c 1,26,-1
 915 588 l 1,27,-1
 915 70 l 1,28,-1
 1382 70 l 1,29,30
 1433 91 1433 91 1475 199 c 1,31,-1
 1516 199 l 1,32,-1
 1466 0 l 1,33,-1
 598 0 l 1,34,-1
 598 43 l 1,35,36
 710.227272727 43 710.227272727 43 727 84 c 1,37,-1
 727 381 l 1,38,-1
 332 381 l 1,39,-1
 164 80 l 1,0,1
371 449 m 1,40,-1
 727 449 l 1,41,-1
 727 1085 l 1,42,-1
 371 449 l 1,40,-1
EndSplineSet
EndChar

StartChar: Ccedilla
Encoding: 199 199 137
Width: 1155
GlyphClass: 2
Flags: HW
LayerCount: 2
Fore
SplineSet
938 1157 m 0,0,1
 963 1157 963 1157 963 1198 c 1,2,-1
 1010 1198 l 1,3,-1
 1030 938 l 1,4,-1
 985 938 l 1,5,6
 972 1031 972 1031 904.5 1090 c 128,-1,7
 837 1149 837 1149 713 1149 c 1,8,-1
 711 1151 l 1,9,10
 534 1151 534 1151 417.5 1005.5 c 128,-1,11
 301 860 301 860 301 629 c 0,12,13
 301 491 301 491 336 379 c 128,-1,14
 371 267 371 267 430 196.5 c 0,15,16
 551.765957447 51 551.765957447 51 719 51 c 0,17,18
 821 51 821 51 921.5 121.5 c 128,-1,19
 1022 192 1022 192 1051 272 c 1,20,-1
 1100 248 l 1,21,22
 1059.30805057 148.304723886 1059.30805057 148.304723886 965.149831434 68.1700693053 c 128,-1,23
 870.991612302 -11.9645852749 870.991612302 -11.9645852749 702 -18 c 1,24,-1
 678 -111 l 1,25,26
 775.121212121 -111 775.121212121 -111 843 -167 c 0,27,28
 883 -200 883 -200 883 -238.5 c 0,29,30
 883 -308.191489362 883 -308.191489362 836.091836735 -357.095744681 c 128,-1,31
 789.183673469 -406 789.183673469 -406 657 -406 c 0,32,33
 594 -406 594 -406 506 -391 c 1,34,-1
 506 -356 l 1,35,36
 542 -360 542 -360 557 -360 c 0,37,38
 636 -360 636 -360 670.5 -330.5 c 128,-1,39
 705 -301 705 -301 705 -264 c 0,40,41
 705 -174 705 -174 580 -174 c 1,42,-1
 625 -16 l 1,43,44
 499 -6 499 -6 396 47 c 128,-1,45
 293 100 293 100 227 182.5 c 0,46,47
 90 353.75 90 353.75 90 582 c 0,48,49
 90 726 90 726 141.5 848 c 128,-1,50
 193 970 193 970 279.5 1050 c 0,51,52
 462.23125 1219 462.23125 1219 711 1219 c 0,53,54
 780 1219 780 1219 852 1188 c 128,-1,55
 924 1157 924 1157 938 1157 c 0,0,1
EndSplineSet
EndChar

StartChar: Eth
Encoding: 208 208 146
Width: 1243
GlyphClass: 2
Flags: HW
LayerCount: 2
Fore
SplineSet
113 1137 m 1,0,1
 72 1120.22727273 72 1120.22727273 72 1008 c 1,2,-1
 29 1008 l 1,3,-1
 29 1198 l 1,4,-1
 313 1198 l 1,5,-1
 313 1341 l 1,6,-1
 395 1341 l 1,7,-1
 395 1198 l 1,8,-1
 549 1198 l 2,9,10
 822 1198 822 1198 987.5 1032 c 128,-1,11
 1153 866 1153 866 1153 599.5 c 128,-1,12
 1153 333 1153 333 991.5 165.5 c 128,-1,13
 830 -2 830 -2 573 -2 c 2,14,-1
 78 -2 l 1,15,-1
 78 41 l 1,16,17
 190.227272727 41 190.227272727 41 207 82 c 1,18,-1
 207 315 l 2,19,20
 207 747.344827586 207 747.344827586 559.5 877 c 0,21,22
 690 925 690 925 872 936 c 1,23,24
 816 1037 816 1037 730 1087 c 128,-1,25
 644 1137 644 1137 549 1137 c 2,26,-1
 395 1137 l 1,27,-1
 395 963 l 1,28,-1
 313 963 l 1,29,-1
 313 1137 l 1,30,-1
 113 1137 l 1,0,1
901 874 m 1,31,32
 516.346432265 848.544984488 516.346432265 848.544984488 422 569 c 0,33,34
 395 489 395 489 395 393 c 2,35,-1
 395 68 l 1,36,-1
 573 68 l 2,37,38
 682.790123457 68 682.790123457 68 776 143.5 c 0,39,40
 948 282.82 948 282.82 948 598 c 0,41,42
 948 754 948 754 901 874 c 1,31,32
EndSplineSet
EndChar

StartChar: multiply
Encoding: 215 215 153
Width: 860
GlyphClass: 2
Flags: HW
LayerCount: 2
Fore
SplineSet
494 651 m 1,0,-1
 756 389 l 1,1,-1
 692 326 l 1,2,-1
 430 588 l 1,3,-1
 168 326 l 1,4,-1
 104 389 l 1,5,-1
 367 651 l 1,6,-1
 104 913 l 1,7,-1
 168 977 l 1,8,-1
 430 715 l 1,9,-1
 692 977 l 1,10,-1
 756 913 l 1,11,-1
 494 651 l 1,0,-1
EndSplineSet
EndChar

StartChar: Oslash
Encoding: 216 216 154
Width: 1312
GlyphClass: 2
Flags: HW
AnchorPoint: "Anchor-5" 659 0 basechar 0
AnchorPoint: "Anchor-4" 719 0 basechar 0
AnchorPoint: "Anchor-3" 659 0 basechar 0
AnchorPoint: "Anchor-0" 657 1270 basechar 0
LayerCount: 2
Fore
SplineSet
885 1026 m 1,0,1
 787 1149 787 1149 649 1149 c 0,2,3
 441.007042254 1149 441.007042254 1149 346.5 905 c 0,4,5
 295 772.036363636 295 772.036363636 295 614 c 0,6,7
 295 393 295 393 387 231 c 1,8,-1
 885 1026 l 1,0,1
928 963 m 1,9,-1
 430 168 l 1,10,11
 524 49 524 49 666 49 c 0,12,13
 873.907801418 49 873.907801418 49 968.5 291.5 c 0,14,15
 1020 423.527272727 1020 423.527272727 1020 582 c 0,16,17
 1020 801 1020 801 928 963 c 1,9,-1
147 319.5 m 128,-1,19
 90 449 90 449 90 586 c 128,-1,20
 90 723 90 723 131.5 836 c 128,-1,21
 173 949 173 949 246 1034 c 128,-1,22
 319 1119 319 1119 426 1169 c 128,-1,23
 533 1219 533 1219 676 1219 c 128,-1,24
 819 1219 819 1219 952 1135 c 1,25,-1
 1026 1253 l 1,26,-1
 1085 1217 l 1,27,-1
 1008 1092 l 1,28,29
 1111 1006 1111 1006 1168 876.5 c 128,-1,30
 1225 747 1225 747 1225 589 c 128,-1,31
 1225 431 1225 431 1153.5 290.5 c 128,-1,32
 1082 150 1082 150 951 65 c 128,-1,33
 820 -20 820 -20 656.5 -20 c 128,-1,34
 493 -20 493 -20 365 61 c 1,35,-1
 289 -57 l 1,36,-1
 229 -20 l 1,37,-1
 307 104 l 1,38,18
 204 190 204 190 147 319.5 c 128,-1,19
EndSplineSet
EndChar

StartChar: Thorn
Encoding: 222 222 160
Width: 1069
GlyphClass: 2
Flags: HW
LayerCount: 2
Fore
SplineSet
403 84 m 1,0,1
 419.772727273 43 419.772727273 43 532 43 c 1,2,-1
 532 0 l 1,3,-1
 86 0 l 1,4,-1
 86 43 l 1,5,6
 198.227272727 43 198.227272727 43 215 84 c 1,7,-1
 215 1114 l 1,8,9
 198.227272727 1155 198.227272727 1155 86 1155 c 1,10,-1
 86 1198 l 1,11,-1
 532 1198 l 1,12,-1
 532 1155 l 1,13,14
 419.772727273 1155 419.772727273 1155 403 1114 c 1,15,-1
 403 942 l 1,16,-1
 510 942 l 2,17,18
 891.272727273 942 891.272727273 942 996 750 c 0,19,20
 1026 695 1026 695 1026 631 c 0,21,22
 1026 476 1026 476 903.5 382.5 c 128,-1,23
 781 289 781 289 535 289 c 2,24,-1
 403 289 l 1,25,-1
 403 84 l 1,0,1
403 872 m 1,26,-1
 403 358 l 1,27,-1
 535 358 l 2,28,29
 692 358 692 358 756.5 421 c 128,-1,30
 821 484 821 484 821 614.708955224 c 0,31,32
 821 745.417910448 821 745.417910448 756.75 808.708955224 c 0,33,34
 692.5 872 692.5 872 510 872 c 2,35,-1
 403 872 l 1,26,-1
EndSplineSet
EndChar

StartChar: germandbls
Encoding: 223 223 161
Width: 1052
GlyphClass: 2
Flags: HW
LayerCount: 2
Fore
SplineSet
416 158.5 m 0,0,1
 416 258 416 258 478.5 258 c 0,2,3
 510 258 510 258 520 235.5 c 128,-1,4
 530 213 530 213 534.5 181.5 c 128,-1,5
 539 150 539 150 547 118 c 128,-1,6
 555 86 555 86 580.5 63.5 c 128,-1,7
 606 41 606 41 649 41 c 0,8,9
 717 41 717 41 770 128 c 128,-1,10
 823 215 823 215 823 322.5 c 128,-1,11
 823 430 823 430 777 512.5 c 128,-1,12
 731 595 731 595 652.5 650 c 128,-1,13
 574 705 574 705 489 705 c 2,14,-1
 485 705 l 2,15,16
 453 705 453 705 453 724.5 c 128,-1,17
 453 744 453 744 485 754 c 1,18,19
 541 775 541 775 595 860 c 128,-1,20
 649 945 649 945 649 1031.09027778 c 128,-1,21
 649 1117.18055556 649 1117.18055556 588 1187.5 c 0,22,23
 552 1229 552 1229 498.5 1229 c 128,-1,24
 445 1229 445 1229 400.5 1168.5 c 128,-1,25
 356 1108 356 1108 356 999 c 2,26,-1
 356 0 l 1,27,-1
 43 0 l 1,28,-1
 43 43 l 1,29,30
 155.227272727 43 155.227272727 43 172 84 c 1,31,-1
 172 971 l 2,32,33
 172 1207.38 172 1207.38 365 1273 c 0,34,35
 415 1290 415 1290 492 1290 c 0,36,37
 666.479452055 1290 666.479452055 1290 739.739726027 1219.63157895 c 128,-1,38
 813 1149.26315789 813 1149.26315789 813 1024 c 0,39,40
 813 938 813 938 757 857.5 c 128,-1,41
 701 777 701 777 614 735 c 1,42,43
 766 709 766 709 879.5 605.5 c 128,-1,44
 993 502 993 502 993 389 c 0,45,46
 993 201 993 201 906 90.5 c 128,-1,47
 819 -20 819 -20 662 -20 c 0,48,49
 596 -20 596 -20 545 0.5 c 128,-1,50
 494 21 494 21 455 64.5 c 128,-1,51
 416 108 416 108 416 158.5 c 0,0,1
EndSplineSet
EndChar

StartChar: ae
Encoding: 230 230 168
Width: 1449
GlyphClass: 2
Flags: HW
AnchorPoint: "Anchor-5" 696 0 basechar 0
AnchorPoint: "Anchor-0" 711 1055 basechar 0
LayerCount: 2
Fore
SplineSet
610 506 m 1,0,1
 610 687 610 687 573 767.5 c 128,-1,2
 536 848 536 848 442.5 848 c 128,-1,3
 349 848 349 848 296 827 c 128,-1,4
 243 806 243 806 229 750 c 1,5,6
 258 750 258 750 279.5 729.5 c 128,-1,7
 301 709 301 709 301 670 c 128,-1,8
 301 631 301 631 273.5 612.5 c 128,-1,9
 246 594 246 594 207.5 594 c 128,-1,10
 169 594 169 594 145 622 c 128,-1,11
 121 650 121 650 121 696 c 0,12,13
 121 803 121 803 209.5 862.5 c 128,-1,14
 298 922 298 922 469.5 922 c 128,-1,15
 641 922 641 922 727 809 c 1,16,17
 826 922 826 922 987 922 c 0,18,19
 1276.16107383 922 1276.16107383 922 1351 656.5 c 0,20,21
 1372 582 1372 582 1372 494 c 1,22,-1
 803 494 l 1,23,-1
 803 451 l 2,24,25
 803 57 803 57 1077 57 c 0,26,27
 1152 57 1152 57 1204.5 86.5 c 128,-1,28
 1257 116 1257 116 1319 193 c 1,29,-1
 1368 168 l 1,30,31
 1327 101 1327 101 1283.5 62 c 0,32,33
 1192.03846154 -20 1192.03846154 -20 1003.51923077 -20 c 128,-1,34
 815 -20 815 -20 713 94 c 1,35,36
 572 -20 572 -20 359.71 -20 c 128,-1,37
 147.42 -20 147.42 -20 89 107 c 0,38,39
 66 157 66 157 66 212 c 128,-1,40
 66 267 66 267 84 298.5 c 128,-1,41
 102 330 102 330 138 354 c 128,-1,42
 174 378 174 378 212.5 396.5 c 128,-1,43
 251 415 251 415 308 431.5 c 128,-1,44
 365 448 365 448 409 458.5 c 128,-1,45
 453 469 453 469 514.5 483 c 128,-1,46
 576 497 576 497 610 506 c 1,0,1
610 463 m 1,47,48
 599 460 599 460 565.5 451 c 128,-1,49
 532 442 532 442 517 437.5 c 128,-1,50
 502 433 502 433 470.5 423 c 128,-1,51
 439 413 439 413 422.5 406 c 128,-1,52
 406 399 406 399 379.5 386.5 c 128,-1,53
 353 374 353 374 338.5 363 c 0,54,55
 289.87593985 326.112781955 289.87593985 326.112781955 272.937969925 296.000835422 c 128,-1,56
 256 265.888888889 256 265.888888889 256 225 c 0,57,58
 256 127 256 127 294.5 88 c 128,-1,59
 333 49 333 49 401.5 49 c 128,-1,60
 470 49 470 49 550.5 74 c 128,-1,61
 631 99 631 99 684 133 c 1,62,63
 610 253 610 253 610 442 c 2,64,-1
 610 463 l 1,47,48
809 557 m 1,65,-1
 1171 557 l 1,66,67
 1155.24821002 746.021479714 1155.24821002 746.021479714 1109.88941113 803.010739857 c 128,-1,68
 1064.53061224 860 1064.53061224 860 977 860 c 0,69,70
 923 860 923 860 874 779 c 128,-1,71
 825 698 825 698 809 557 c 1,65,-1
EndSplineSet
EndChar

StartChar: ccedilla
Encoding: 231 231 169
Width: 980
GlyphClass: 2
Flags: HW
LayerCount: 2
Fore
SplineSet
557 860 m 0,0,1
 431 860 431 860 352.5 764 c 128,-1,2
 274 668 274 668 274 504 c 0,3,4
 274 390 274 390 319 286 c 128,-1,5
 364 182 364 182 438 119.5 c 128,-1,6
 512 57 512 57 598 57 c 128,-1,7
 684 57 684 57 751.5 88 c 128,-1,8
 819 119 819 119 879 193 c 1,9,-1
 928 168 l 1,10,11
 873 78 873 78 789 33 c 128,-1,12
 705 -12 705 -12 571 -18 c 1,13,-1
 547 -113 l 1,14,15
 644.121212121 -113 644.121212121 -113 712 -169 c 0,16,17
 752 -202 752 -202 752 -240.5 c 0,18,19
 752 -310.191489362 752 -310.191489362 705.091836735 -359.095744681 c 128,-1,20
 658.183673469 -408 658.183673469 -408 526 -408 c 0,21,22
 464 -408 464 -408 375 -393 c 1,23,-1
 375 -358 l 1,24,25
 411 -362 411 -362 426 -362 c 0,26,27
 505 -362 505 -362 539 -332.5 c 128,-1,28
 573 -303 573 -303 573 -266 c 0,29,30
 573 -176 573 -176 449 -176 c 1,31,-1
 494 -20 l 1,32,33
 285.6136685 -9.40408483896 285.6136685 -9.40408483896 172.5 147 c 0,34,35
 80 274.901234568 80 274.901234568 80 496 c 0,36,37
 80 671.448275862 80 671.448275862 204.205128205 796.724137931 c 128,-1,38
 328.41025641 922 328.41025641 922 537 922 c 0,39,40
 700 922 700 922 787 866.5 c 128,-1,41
 874 811 874 811 874 705 c 0,42,43
 874 659 874 659 850 630.5 c 128,-1,44
 826 602 826 602 787.5 602 c 128,-1,45
 749 602 749 602 721.5 620.5 c 128,-1,46
 694 639 694 639 694 678 c 128,-1,47
 694 717 694 717 715.5 737.5 c 128,-1,48
 737 758 737 758 766 758 c 1,49,50
 740 860 740 860 557 860 c 0,0,1
EndSplineSet
EndChar

StartChar: eth
Encoding: 240 240 178
Width: 1079
GlyphClass: 2
Flags: HW
LayerCount: 2
Fore
SplineSet
608 1139 m 1,0,1
 995 856.949152542 995 856.949152542 995 442 c 0,2,3
 995 247.118811881 995 247.118811881 892.806818182 113.559405941 c 0,4,5
 790.613636364 -20 790.613636364 -20 554.806818182 -20 c 128,-1,6
 319 -20 319 -20 199.5 112 c 128,-1,7
 80 244 80 244 80 467 c 0,8,9
 80 811.121794872 80 811.121794872 355 897.5 c 0,10,11
 433 922 433 922 517 922 c 128,-1,12
 601 922 601 922 668 909 c 1,13,14
 610 1002 610 1002 522 1090 c 1,15,-1
 350 991 l 1,16,-1
 315 1051 l 1,17,-1
 469 1139 l 1,18,19
 390.692307692 1207.51923077 390.692307692 1207.51923077 328 1242 c 1,20,-1
 307 1253 l 1,21,-1
 330 1290 l 1,22,23
 424 1256 424 1256 543 1182 c 1,24,-1
 723 1286 l 1,25,-1
 758 1227 l 1,26,-1
 608 1139 l 1,0,1
356 156.5 m 128,-1,28
 436 41 436 41 573 41 c 0,29,30
 682 41 682 41 740.5 138.5 c 128,-1,31
 799 236 799 236 799 395 c 0,32,33
 799 637 799 637 726 747.5 c 128,-1,34
 653 858 653 858 498 858 c 0,35,36
 426 858 426 858 374.5 807.5 c 0,37,38
 276 710.912621359 276 710.912621359 276 491.45631068 c 128,-1,27
 276 272 276 272 356 156.5 c 128,-1,28
EndSplineSet
EndChar

StartChar: divide
Encoding: 247 247 185
Width: 987
GlyphClass: 2
Flags: HW
LayerCount: 2
Fore
SplineSet
377 936 m 128,-1,1
 377 982 377 982 409 1020.5 c 128,-1,2
 441 1059 441 1059 488.5 1059 c 0,3,4
 536 1059 536 1059 573 1023.5 c 128,-1,5
 610 988 610 988 610 942 c 128,-1,6
 610 896 610 896 577.5 856.5 c 128,-1,7
 545 817 545 817 497.5 817 c 0,8,9
 450 817 450 817 413.5 853.5 c 128,-1,0
 377 890 377 890 377 936 c 128,-1,1
377 362 m 128,-1,11
 377 408 377 408 409 446.5 c 128,-1,12
 441 485 441 485 488.5 485 c 0,13,14
 536 485 536 485 573 450 c 128,-1,15
 610 415 610 415 610 369 c 128,-1,16
 610 323 610 323 577.5 283.5 c 128,-1,17
 545 244 545 244 497.5 244 c 0,18,19
 450 244 450 244 413.5 280 c 128,-1,10
 377 316 377 316 377 362 c 128,-1,11
90 696 m 1,20,-1
 897 696 l 1,21,-1
 897 606 l 1,22,-1
 90 606 l 1,23,-1
 90 696 l 1,20,-1
EndSplineSet
EndChar

StartChar: oslash
Encoding: 248 248 186
Width: 1116
GlyphClass: 2
Flags: HW
AnchorPoint: "Anchor-5" 573 0 basechar 0
AnchorPoint: "Anchor-4" 573 0 basechar 0
AnchorPoint: "Anchor-3" 573 0 basechar 0
AnchorPoint: "Anchor-0" 561 1055 basechar 0
LayerCount: 2
Fore
SplineSet
737 772 m 1,0,1
 660 858 660 858 518 858 c 0,2,3
 410 858 410 858 343 754.5 c 128,-1,4
 276 651 276 651 276 486 c 128,-1,5
 276 321 276 321 338 203 c 1,6,-1
 737 772 l 1,0,1
778 713 m 1,7,-1
 379 141 l 1,8,9
 463 41 463 41 584 41 c 128,-1,10
 705 41 705 41 772.5 140 c 128,-1,11
 840 239 840 239 840 420 c 128,-1,12
 840 601 840 601 778 713 c 1,7,-1
250 76 m 1,13,14
 80 207.084337349 80 207.084337349 80 467 c 0,15,16
 80 656.091743119 80 656.091743119 192.341085271 789.04587156 c 0,17,18
 304.682170543 922 304.682170543 922 553 922 c 0,19,20
 698 922 698 922 805 870 c 1,21,-1
 877 973 l 1,22,-1
 932 932 l 1,23,-1
 864 836 l 1,24,25
 1036 715 1036 715 1036 457.294392523 c 0,26,27
 1036 199.588785047 1036 199.588785047 878.5 73 c 0,28,29
 762.790697674 -20 762.790697674 -20 589.395348837 -20 c 128,-1,30
 416 -20 416 -20 307 39 c 1,31,-1
 229 -72 l 1,32,-1
 174 -31 l 1,33,-1
 250 76 l 1,13,14
EndSplineSet
EndChar

StartChar: thorn
Encoding: 254 254 192
Width: 1062
GlyphClass: 2
Flags: HW
LayerCount: 2
Fore
SplineSet
324 -309 m 1,0,1
 340.772727273 -350 340.772727273 -350 453 -350 c 1,2,-1
 453 -393 l 1,3,-1
 10 -393 l 1,4,-1
 10 -350 l 1,5,6
 122.227272727 -350 122.227272727 -350 139 -309 c 1,7,-1
 139 1145 l 1,8,9
 12 1155 12 1155 10 1155 c 1,10,-1
 10 1202 l 1,11,12
 48 1202 48 1202 162 1246 c 128,-1,13
 276 1290 276 1290 324 1290 c 1,14,-1
 324 799 l 1,15,16
 439 922 439 922 606 922 c 0,17,18
 699 922 699 922 773 889 c 128,-1,19
 847 856 847 856 891.5 801 c 0,20,21
 983 687.91011236 983 687.91011236 983 547 c 0,22,23
 983 256 983 256 811 115.5 c 128,-1,24
 639 -25 639 -25 324 -25 c 1,25,-1
 324 -309 l 1,0,1
324 725 m 1,26,-1
 324 35 l 1,27,28
 679.984752224 39.4498094028 679.984752224 39.4498094028 764 316 c 0,29,30
 788 395 788 395 788 526 c 128,-1,31
 788 657 788 657 732 754.5 c 128,-1,32
 676 852 676 852 586 852 c 0,33,34
 426 852 426 852 324 725 c 1,26,-1
EndSplineSet
EndChar

StartChar: Aogonek
Encoding: 260 260 198
Width: 1118
GlyphClass: 2
Flags: HW
LayerCount: 2
Fore
SplineSet
494 926 m 1,0,-1
 324 449 l 1,1,-1
 668 449 l 1,2,-1
 494 926 l 1,0,-1
1085.5 -410 m 0,3,4
 872 -410 872 -410 872 -199.5 c 0,5,6
 872 -94 872 -94 971 0 c 1,7,-1
 688 0 l 1,8,-1
 688 43 l 1,9,10
 782 43 782 43 807 68 c 1,11,-1
 692 381 l 1,12,-1
 299 381 l 1,13,-1
 193 80 l 1,14,15
 204 59 204 59 231 51 c 128,-1,16
 258 43 258 43 319 43 c 1,17,-1
 319 0 l 1,18,-1
 -16 0 l 1,19,-1
 -16 43 l 1,20,21
 97.3636363636 43 97.3636363636 43 113 86 c 2,22,-1
 510 1198 l 1,23,-1
 608 1198 l 1,24,-1
 1006 86 l 2,25,26
 1021 43 1021 43 1137 43 c 1,27,-1
 1137 0 l 1,28,-1
 1028 0 l 1,29,30
 973 -69 973 -69 973 -121 c 0,31,32
 973 -222 973 -222 1028.5 -281 c 128,-1,33
 1084 -340 1084 -340 1153 -340 c 0,34,35
 1184 -340 1184 -340 1217 -307 c 1,36,-1
 1239 -344 l 1,37,38
 1195 -410 1195 -410 1085.5 -410 c 0,3,4
EndSplineSet
EndChar

StartChar: aogonek
Encoding: 261 261 199
Width: 987
GlyphClass: 2
Flags: HW
LayerCount: 2
Fore
SplineSet
655 119 m 1,0,1
 643 165 643 165 643 229 c 2,2,-1
 643 471 l 1,3,4
 620 464 620 464 566 449 c 128,-1,5
 512 434 512 434 478 424 c 0,6,7
 377.608108108 394.472972973 377.608108108 394.472972973 316.804054054 347.180930931 c 128,-1,8
 256 299.888888889 256 299.888888889 256 213.444444444 c 0,9,10
 256 49 256 49 408 49 c 0,11,12
 468 49 468 49 537.5 69 c 128,-1,13
 607 89 607 89 655 119 c 1,0,1
923.5 -410 m 0,14,15
 711 -410 711 -410 711 -204 c 0,16,17
 711 -103 711 -103 795 -14 c 1,18,19
 712 -7 712 -7 674 68 c 1,20,21
 553 -20 553 -20 373 -20 c 0,22,23
 147.42 -20 147.42 -20 89 107 c 0,24,25
 66 157 66 157 66 212.5 c 128,-1,26
 66 268 66 268 86.5 301 c 128,-1,27
 107 334 107 334 145 359 c 128,-1,28
 183 384 183 384 227 403 c 128,-1,29
 271 422 271 422 329.5 438.5 c 128,-1,30
 388 455 388 455 437 466.5 c 128,-1,31
 486 478 486 478 546.5 492 c 128,-1,32
 607 506 607 506 643 516 c 1,33,34
 643 688 643 688 598 768 c 128,-1,35
 553 848 553 848 451 848 c 128,-1,36
 349 848 349 848 296 827 c 128,-1,37
 243 806 243 806 229 750 c 1,38,39
 256.744714918 749.302220775 256.744714918 749.302220775 277.872357459 729.151110387 c 128,-1,40
 299 709 299 709 299 670 c 128,-1,41
 299 631 299 631 271.5 612.5 c 128,-1,42
 244 594 244 594 205.5 594 c 128,-1,43
 167 594 167 594 143 622 c 128,-1,44
 119 650 119 650 119 696 c 0,45,46
 119 803 119 803 207.5 862.5 c 128,-1,47
 296 922 296 922 457 922 c 0,48,49
 733.512396694 922 733.512396694 922 804.5 712.5 c 0,50,51
 825 652 825 652 825 578 c 2,52,-1
 825 172 l 2,53,54
 825 107 825 107 847 76 c 128,-1,55
 869 45 869 45 897.5 45 c 128,-1,56
 926 45 926 45 947.5 59 c 128,-1,57
 969 73 969 73 969 94 c 1,58,-1
 1006 94 l 1,59,60
 1006 40 1006 40 971.5 14 c 128,-1,61
 937 -12 937 -12 854 -16 c 1,62,63
 811 -78 811 -78 811 -121 c 0,64,65
 811 -222 811 -222 866.5 -281 c 128,-1,66
 922 -340 922 -340 991 -340 c 0,67,68
 1022 -340 1022 -340 1055 -307 c 1,69,-1
 1077 -344 l 1,70,71
 1033 -410 1033 -410 923.5 -410 c 0,14,15
EndSplineSet
EndChar

StartChar: Dcroat
Encoding: 272 272 210
Width: 1251
GlyphClass: 2
Flags: HW
LayerCount: 2
Fore
SplineSet
403 563 m 1,0,-1
 403 70 l 1,1,-1
 582 70 l 2,2,3
 692.222222222 70 692.222222222 70 784.5 145.5 c 0,4,5
 956 285.818181818 956 285.818181818 956 600 c 0,6,7
 956 738 956 738 920.5 845 c 128,-1,8
 885 952 885 952 826.5 1014 c 0,9,10
 708.556451613 1139 708.556451613 1139 557 1139 c 2,11,-1
 403 1139 l 1,12,-1
 403 633 l 1,13,-1
 612 633 l 1,14,-1
 612 563 l 1,15,-1
 403 563 l 1,0,-1
215 1114 m 1,16,17
 198.227272727 1155 198.227272727 1155 86 1155 c 1,18,-1
 86 1198 l 1,19,-1
 557 1198 l 2,20,21
 830 1198 830 1198 995.5 1033 c 128,-1,22
 1161 868 1161 868 1161 601.5 c 128,-1,23
 1161 335 1161 335 1000 167.5 c 128,-1,24
 839 0 839 0 582 0 c 2,25,-1
 86 0 l 1,26,-1
 86 43 l 1,27,28
 198.227272727 43 198.227272727 43 215 84 c 1,29,-1
 215 563 l 1,30,-1
 72 563 l 1,31,-1
 72 633 l 1,32,-1
 215 633 l 1,33,-1
 215 1114 l 1,16,17
EndSplineSet
EndChar

StartChar: dcroat
Encoding: 273 273 211
Width: 1099
GlyphClass: 2
Flags: HW
LayerCount: 2
Fore
SplineSet
743 817 m 1,0,1
 670 860 670 860 558.403061224 860 c 0,2,3
 446.806122449 860 446.806122449 860 360.403061224 755.462962963 c 0,4,5
 274 650.925925926 274 650.925925926 274 455 c 0,6,7
 274 380 274 380 304 287 c 128,-1,8
 334 194 334 194 392.5 121.5 c 128,-1,9
 451 49 451 49 518 49 c 0,10,11
 653 49 653 49 743 115 c 1,12,-1
 743 817 l 1,0,1
928 1006 m 1,13,-1
 928 125 l 1,14,15
 1056 115 1056 115 1057 115 c 1,16,-1
 1057 68 l 1,17,18
 1018 68 1018 68 904 24 c 128,-1,19
 790 -20 790 -20 743 -20 c 1,20,-1
 743 47 l 1,21,22
 647 -20 647 -20 515.166666667 -20 c 0,23,24
 383.333333333 -20 383.333333333 -20 282.5 40.5 c 0,25,26
 80 162 80 162 80 455 c 0,27,28
 80 684 80 684 208 807 c 128,-1,29
 336 930 336 930 543 930 c 0,30,31
 661 930 661 930 743 881 c 1,32,-1
 743 1006 l 1,33,-1
 512 1006 l 1,34,-1
 512 1075 l 1,35,-1
 743 1075 l 1,36,-1
 743 1145 l 1,37,38
 616 1155 616 1155 614 1155 c 1,39,-1
 614 1202 l 1,40,41
 652 1202 652 1202 766 1246 c 128,-1,42
 880 1290 880 1290 928 1290 c 1,43,-1
 928 1075 l 1,44,-1
 1053 1075 l 1,45,-1
 1053 1006 l 1,46,-1
 928 1006 l 1,13,-1
EndSplineSet
EndChar

StartChar: Eogonek
Encoding: 280 280 218
Width: 1038
GlyphClass: 2
Flags: HW
LayerCount: 2
Fore
SplineSet
913.5 -410 m 0,0,1
 700 -410 700 -410 700 -199.5 c 0,2,3
 700 -94 700 -94 799 0 c 1,4,-1
 86 0 l 1,5,-1
 86 43 l 1,6,7
 198.227272727 43 198.227272727 43 215 84 c 1,8,-1
 215 1114 l 1,9,10
 198.227272727 1155 198.227272727 1155 86 1155 c 1,11,-1
 86 1198 l 1,12,-1
 911 1198 l 1,13,-1
 911 999 l 1,14,-1
 868 999 l 1,15,16
 868 1111.22727273 868 1111.22727273 827 1128 c 1,17,-1
 403 1128 l 1,18,-1
 403 657 l 1,19,-1
 690 657 l 1,20,21
 731 673.772727273 731 673.772727273 731 786 c 1,22,-1
 774 786 l 1,23,-1
 774 459 l 1,24,-1
 731 459 l 1,25,26
 731 571.227272727 731 571.227272727 690 588 c 1,27,-1
 403 588 l 1,28,-1
 403 70 l 1,29,-1
 870 70 l 1,30,31
 921 91 921 91 963 199 c 1,32,-1
 1004 199 l 1,33,-1
 954 0 l 1,34,-1
 856 0 l 1,35,36
 801 -69 801 -69 801 -121 c 0,37,38
 801 -222 801 -222 856.5 -281 c 128,-1,39
 912 -340 912 -340 981 -340 c 0,40,41
 1007.33333333 -340 1007.33333333 -340 1044 -307 c 1,42,-1
 1067 -344 l 1,43,44
 1023 -410 1023 -410 913.5 -410 c 0,0,1
EndSplineSet
EndChar

StartChar: eogonek
Encoding: 281 281 219
Width: 1011
GlyphClass: 2
Flags: HW
LayerCount: 2
Fore
SplineSet
279 557 m 1,0,-1
 733 557 l 1,1,2
 721.365320979 694.677035076 721.365320979 694.677035076 687.18266049 754.838517538 c 128,-1,3
 653 815 653 815 607.5 837.5 c 128,-1,4
 562 860 562 860 493 860 c 128,-1,5
 424 860 424 860 358 775.5 c 128,-1,6
 292 691 292 691 279 557 c 1,0,-1
694.5 -410 m 0,7,8
 481 -410 481 -410 481 -204.5 c 0,9,10
 481 -104 481 -104 561 -20 c 1,11,-1
 524 -20 l 2,12,13
 393.375 -20 393.375 -20 277.363241767 49.0317900228 c 128,-1,14
 161.351483534 118.063580046 161.351483534 118.063580046 110.5 284 c 0,15,16
 82 377 82 377 82 480 c 0,17,18
 82 672.461538462 82 672.461538462 191.966101695 797.230769231 c 128,-1,19
 301.93220339 922 301.93220339 922 514.54048186 922 c 128,-1,20
 727.148760331 922 727.148760331 922 830.574380165 796.855 c 128,-1,21
 934 671.71 934 671.71 934 494 c 1,22,-1
 276 494 l 1,23,-1
 274 492 l 1,24,25
 276 380 276 380 321 278.5 c 128,-1,26
 366 177 366 177 439.5 116 c 128,-1,27
 513 55 513 55 598.5 55 c 128,-1,28
 684 55 684 55 751.5 85.5 c 128,-1,29
 819 116 819 116 879 190 c 1,30,-1
 928 166 l 1,31,32
 833.590998043 8.65166340509 833.590998043 8.65166340509 625 -16 c 1,33,34
 582 -78 582 -78 582 -121 c 0,35,36
 582 -222 582 -222 637.5 -281 c 128,-1,37
 693 -340 693 -340 762 -340 c 0,38,39
 792 -340 792 -340 825 -307 c 1,40,-1
 848 -344 l 1,41,42
 804 -410 804 -410 694.5 -410 c 0,7,8
EndSplineSet
EndChar

StartChar: Hbar
Encoding: 294 294 232
Width: 1331
GlyphClass: 2
Flags: HW
LayerCount: 2
Fore
SplineSet
403 84 m 1,0,1
 419.772727273 43 419.772727273 43 532 43 c 1,2,-1
 532 0 l 1,3,-1
 86 0 l 1,4,-1
 86 43 l 1,5,6
 198.227272727 43 198.227272727 43 215 84 c 1,7,-1
 215 825 l 1,8,-1
 143 825 l 1,9,-1
 143 895 l 1,10,-1
 215 895 l 1,11,-1
 215 1114 l 1,12,13
 198.227272727 1155 198.227272727 1155 86 1155 c 1,14,-1
 86 1198 l 1,15,-1
 532 1198 l 1,16,-1
 532 1155 l 1,17,18
 419.772727273 1155 419.772727273 1155 403 1114 c 1,19,-1
 403 895 l 1,20,-1
 928 895 l 1,21,-1
 928 1114 l 1,22,23
 911.227272727 1155 911.227272727 1155 799 1155 c 1,24,-1
 799 1198 l 1,25,-1
 1245 1198 l 1,26,-1
 1245 1155 l 1,27,28
 1132.77272727 1155 1132.77272727 1155 1116 1114 c 1,29,-1
 1116 895 l 1,30,-1
 1184 895 l 1,31,-1
 1184 825 l 1,32,-1
 1116 825 l 1,33,-1
 1116 84 l 1,34,35
 1132.77272727 43 1132.77272727 43 1245 43 c 1,36,-1
 1245 0 l 1,37,-1
 799 0 l 1,38,-1
 799 43 l 1,39,40
 911.227272727 43 911.227272727 43 928 84 c 1,41,-1
 928 588 l 1,42,-1
 403 588 l 1,43,-1
 403 84 l 1,0,1
928 825 m 1,44,-1
 403 825 l 1,45,-1
 403 657 l 1,46,-1
 928 657 l 1,47,-1
 928 825 l 1,44,-1
EndSplineSet
EndChar

StartChar: hbar
Encoding: 295 295 233
Width: 1126
GlyphClass: 2
Flags: HW
LayerCount: 2
Fore
SplineSet
356 84 m 1,0,1
 372.772727273 43 372.772727273 43 485 43 c 1,2,-1
 485 0 l 1,3,-1
 43 0 l 1,4,-1
 43 43 l 1,5,6
 155.227272727 43 155.227272727 43 172 84 c 1,7,-1
 172 1022 l 1,8,-1
 49 1022 l 1,9,-1
 49 1092 l 1,10,-1
 172 1092 l 1,11,-1
 172 1145 l 1,12,13
 45 1155 45 1155 43 1155 c 1,14,-1
 43 1202 l 1,15,16
 82 1202 82 1202 195 1246 c 128,-1,17
 308 1290 308 1290 356 1290 c 1,18,-1
 356 1092 l 1,19,-1
 590 1092 l 1,20,-1
 590 1022 l 1,21,-1
 356 1022 l 1,22,-1
 356 827 l 1,23,24
 467 922 467 922 600 922 c 0,25,26
 795 922 795 922 878 858 c 128,-1,27
 961 794 961 794 961 639 c 2,28,-1
 961 84 l 1,29,30
 977.772727273 43 977.772727273 43 1090 43 c 1,31,-1
 1090 0 l 1,32,-1
 647 0 l 1,33,-1
 647 43 l 1,34,35
 759.227272727 43 759.227272727 43 776 84 c 1,36,-1
 776 653 l 2,37,38
 776 746 776 746 733.5 799 c 128,-1,39
 691 852 691 852 575 852 c 128,-1,40
 459 852 459 852 356 762 c 1,41,-1
 356 84 l 1,0,1
EndSplineSet
EndChar

StartChar: Iogonek
Encoding: 302 302 240
Width: 618
GlyphClass: 2
Flags: HW
LayerCount: 2
Fore
SplineSet
493.5 -410 m 0,0,1
 281 -410 281 -410 281 -199 c 0,2,3
 281 -93 281 -93 379 0 c 1,4,-1
 86 0 l 1,5,-1
 86 43 l 1,6,7
 198.227272727 43 198.227272727 43 215 84 c 1,8,-1
 215 1114 l 1,9,10
 198.227272727 1155 198.227272727 1155 86 1155 c 1,11,-1
 86 1198 l 1,12,-1
 532 1198 l 1,13,-1
 532 1155 l 1,14,15
 419.772727273 1155 419.772727273 1155 403 1114 c 1,16,-1
 403 84 l 1,17,18
 419.772727273 43 419.772727273 43 532 43 c 1,19,-1
 532 0 l 1,20,-1
 436 0 l 1,21,22
 381 -69 381 -69 381 -121 c 0,23,24
 381 -222 381 -222 436.5 -281 c 128,-1,25
 492 -340 492 -340 561 -340 c 0,26,27
 592 -340 592 -340 625 -307 c 1,28,-1
 647 -344 l 1,29,30
 603 -410 603 -410 493.5 -410 c 0,0,1
EndSplineSet
EndChar

StartChar: iogonek
Encoding: 303 303 241
Width: 548
GlyphClass: 2
Flags: HW
LayerCount: 2
Fore
SplineSet
357 1087 m 128,-1,1
 327 1053 327 1053 280 1053 c 128,-1,2
 233 1053 233 1053 199.5 1087 c 128,-1,3
 166 1121 166 1121 166 1171 c 128,-1,4
 166 1221 166 1221 195.5 1255.5 c 128,-1,5
 225 1290 225 1290 271.5 1290 c 128,-1,6
 318 1290 318 1290 352.5 1255 c 128,-1,7
 387 1220 387 1220 387 1170.5 c 128,-1,0
 387 1121 387 1121 357 1087 c 128,-1,1
442.5 -410 m 0,8,9
 229 -410 229 -410 229 -199.5 c 0,10,11
 229 -94 229 -94 328 0 c 1,12,-1
 63 0 l 1,13,-1
 63 43 l 1,14,15
 176.227272727 43 176.227272727 43 193 84 c 1,16,-1
 193 776 l 1,17,18
 66 786 66 786 63 786 c 1,19,-1
 63 834 l 1,20,21
 102 834 102 834 216 878 c 128,-1,22
 330 922 330 922 377 922 c 1,23,-1
 377 84 l 1,24,25
 393.772727273 43 393.772727273 43 506 43 c 1,26,-1
 506 0 l 1,27,-1
 385 0 l 1,28,29
 330 -69 330 -69 330 -121 c 0,30,31
 330 -222 330 -222 385.5 -281 c 128,-1,32
 441 -340 441 -340 510 -340 c 0,33,34
 540 -340 540 -340 573 -307 c 1,35,-1
 596 -344 l 1,36,37
 552 -410 552 -410 442.5 -410 c 0,8,9
EndSplineSet
EndChar

StartChar: dotlessi
Encoding: 305 305 243
Width: 548
GlyphClass: 2
Flags: HW
AnchorPoint: "Anchor-5" 274 0 basechar 0
AnchorPoint: "Anchor-4" 360 0 basechar 0
AnchorPoint: "Anchor-3" 274 0 basechar 0
AnchorPoint: "Anchor-2" 287 532 basechar 0
AnchorPoint: "Anchor-0" 289 1055 basechar 0
LayerCount: 2
Fore
SplineSet
377 84 m 1,0,1
 393.772727273 43 393.772727273 43 506 43 c 1,2,-1
 506 0 l 1,3,-1
 63 0 l 1,4,-1
 63 43 l 1,5,6
 176.227272727 43 176.227272727 43 193 84 c 1,7,-1
 193 776 l 1,8,9
 66 786 66 786 63 786 c 1,10,-1
 63 834 l 1,11,12
 102 834 102 834 216 878 c 128,-1,13
 330 922 330 922 377 922 c 1,14,-1
 377 84 l 1,0,1
EndSplineSet
EndChar

StartChar: Lslash
Encoding: 321 321 258
Width: 1013
GlyphClass: 2
Flags: HW
LayerCount: 2
Fore
SplineSet
532 1155 m 1,0,1
 419.772727273 1155 419.772727273 1155 403 1114 c 1,2,-1
 403 823 l 1,3,-1
 494 899 l 1,4,-1
 539 846 l 1,5,-1
 403 731 l 1,6,-1
 403 70 l 1,7,-1
 870 70 l 1,8,9
 921 91 921 91 963 199 c 1,10,-1
 1004 199 l 1,11,-1
 954 0 l 1,12,-1
 86 0 l 1,13,-1
 86 43 l 1,14,15
 198.227272727 43 198.227272727 43 215 84 c 1,16,-1
 215 573 l 1,17,-1
 125 498 l 1,18,-1
 80 551 l 1,19,-1
 215 666 l 1,20,-1
 215 1114 l 1,21,22
 198.227272727 1155 198.227272727 1155 86 1155 c 1,23,-1
 86 1198 l 1,24,-1
 532 1198 l 1,25,-1
 532 1155 l 1,0,1
EndSplineSet
EndChar

StartChar: lslash
Encoding: 322 322 259
Width: 530
GlyphClass: 2
Flags: HW
LayerCount: 2
Fore
SplineSet
358 84 m 1,0,1
 374.772727273 43 374.772727273 43 487 43 c 1,2,-1
 487 0 l 1,3,-1
 45 0 l 1,4,-1
 45 43 l 1,5,6
 157.227272727 43 157.227272727 43 174 84 c 1,7,-1
 174 575 l 1,8,-1
 82 498 l 1,9,-1
 37 551 l 1,10,-1
 174 666 l 1,11,-1
 174 1145 l 1,12,13
 47 1155 47 1155 45 1155 c 1,14,-1
 45 1202 l 1,15,16
 84 1202 84 1202 197 1246 c 128,-1,17
 310 1290 310 1290 358 1290 c 1,18,-1
 358 821 l 1,19,-1
 451 899 l 1,20,-1
 496 846 l 1,21,-1
 358 731 l 1,22,-1
 358 84 l 1,0,1
EndSplineSet
EndChar

StartChar: Eng
Encoding: 330 330 267
Width: 1323
GlyphClass: 2
Flags: HW
LayerCount: 2
Fore
SplineSet
403 84 m 1,0,1
 419.772727273 43 419.772727273 43 532 43 c 1,2,-1
 532 0 l 1,3,-1
 86 0 l 1,4,-1
 86 43 l 1,5,6
 198.227272727 43 198.227272727 43 215 84 c 1,7,-1
 215 1114 l 1,8,9
 198.227272727 1155 198.227272727 1155 86 1155 c 1,10,-1
 86 1198 l 1,11,-1
 403 1198 l 1,12,-1
 403 1006 l 1,13,14
 475 1105 475 1105 569 1162 c 128,-1,15
 663 1219 663 1219 761 1219 c 0,16,17
 964.330827068 1219 964.330827068 1219 1092.66541353 1085.65234375 c 128,-1,18
 1221 952.3046875 1221 952.3046875 1221 633.15234375 c 128,-1,19
 1221 314 1221 314 1126 147 c 128,-1,20
 1031 -20 1031 -20 864 -20 c 0,21,22
 722.106060606 -20 722.106060606 -20 638.5 42 c 0,23,24
 594 75 594 75 594 111 c 128,-1,25
 594 147 594 147 620.5 170 c 128,-1,26
 647 193 647 193 677.5 193 c 128,-1,27
 708 193 708 193 728.5 171 c 128,-1,28
 749 149 749 149 766.5 115.5 c 0,29,30
 791.574031891 67.5011389522 791.574031891 67.5011389522 802.837015945 54.2505694761 c 128,-1,31
 814.1 41 814.1 41 844 41 c 0,32,33
 1032 41 1032 41 1032 578 c 0,34,35
 1032 1001.30769231 1032 1001.30769231 874.5 1109 c 0,36,37
 816 1149 816 1149 731 1149 c 128,-1,38
 646 1149 646 1149 554.5 1070.5 c 128,-1,39
 463 992 463 992 403 872 c 1,40,-1
 403 84 l 1,0,1
EndSplineSet
EndChar

StartChar: eng
Encoding: 331 331 268
Width: 1110
GlyphClass: 2
Flags: HW
LayerCount: 2
Fore
SplineSet
377 84 m 1,0,1
 393.772727273 43 393.772727273 43 506 43 c 1,2,-1
 506 0 l 1,3,-1
 63 0 l 1,4,-1
 63 43 l 1,5,6
 176.227272727 43 176.227272727 43 193 84 c 1,7,-1
 193 776 l 1,8,9
 66 786 66 786 63 786 c 1,10,-1
 63 834 l 1,11,12
 102 834 102 834 216 878 c 128,-1,13
 330 922 330 922 377 922 c 1,14,-1
 377 827 l 1,15,16
 488 922 488 922 621 922 c 0,17,18
 812 922 812 922 896.5 851.5 c 128,-1,19
 981 781 981 781 981 631 c 2,20,-1
 981 -90 l 2,21,22
 981 -259 981 -259 911.5 -334.5 c 128,-1,23
 842 -410 842 -410 713.26119403 -410 c 128,-1,24
 584.52238806 -410 584.52238806 -410 501.5 -347.5 c 0,25,26
 457 -314 457 -314 457 -278 c 128,-1,27
 457 -242 457 -242 483 -219.5 c 128,-1,28
 509 -197 509 -197 540 -197 c 128,-1,29
 571 -197 571 -197 591.5 -218.5 c 128,-1,30
 612 -240 612 -240 629.5 -273.5 c 0,31,32
 654.574031891 -321.498861048 654.574031891 -321.498861048 665.837015945 -334.749430524 c 128,-1,33
 677.1 -348 677.1 -348 711.55 -348 c 128,-1,34
 746 -348 746 -348 771.5 -289.5 c 128,-1,35
 797 -231 797 -231 797 -119 c 2,36,-1
 797 645 l 2,37,38
 797 852 797 852 608 852 c 0,39,40
 480 852 480 852 377 762 c 1,41,-1
 377 84 l 1,0,1
EndSplineSet
EndChar

StartChar: OE
Encoding: 338 338 275
Width: 1679
GlyphClass: 2
Flags: HW
LayerCount: 2
Fore
SplineSet
1372 459 m 1,0,1
 1372 571.227272727 1372 571.227272727 1331 588 c 1,2,-1
 1044 588 l 1,3,-1
 1044 70 l 1,4,-1
 1511 70 l 1,5,6
 1562 91 1562 91 1604 199 c 1,7,-1
 1645 199 l 1,8,-1
 1595 0 l 1,9,-1
 807 0 l 1,10,11
 740 -20 740 -20 657 -20 c 0,12,13
 491 -20 491 -20 360 65 c 128,-1,14
 229 150 229 150 159.5 290.5 c 128,-1,15
 90 431 90 431 90 577 c 128,-1,16
 90 723 90 723 131.5 836 c 128,-1,17
 173 949 173 949 246 1034 c 128,-1,18
 319 1119 319 1119 426 1169 c 128,-1,19
 533 1219 533 1219 635.5 1219 c 128,-1,20
 738 1219 738 1219 809 1198 c 1,21,-1
 1552 1198 l 1,22,-1
 1552 999 l 1,23,-1
 1509 999 l 1,24,25
 1509 1111.22727273 1509 1111.22727273 1468 1128 c 1,26,-1
 1044 1128 l 1,27,-1
 1044 657 l 1,28,-1
 1331 657 l 1,29,30
 1372 673.772727273 1372 673.772727273 1372 786 c 1,31,-1
 1415 786 l 1,32,-1
 1415 459 l 1,33,-1
 1372 459 l 1,0,1
856 121 m 1,34,-1
 856 1059 l 1,35,36
 766 1149 766 1149 649 1149 c 0,37,38
 441.007042254 1149 441.007042254 1149 346.5 905 c 0,39,40
 295 772.036363636 295 772.036363636 295 614 c 0,41,42
 295 348.682352941 295 348.682352941 424.5 175 c 0,43,44
 518.447368421 49 518.447368421 49 666 49 c 0,45,46
 774 49 774 49 856 121 c 1,34,-1
EndSplineSet
EndChar

StartChar: oe
Encoding: 339 339 276
Width: 1769
GlyphClass: 2
Flags: HW
LayerCount: 2
Fore
SplineSet
1284 -20 m 0,0,1
 1061.61904762 -20 1061.61904762 -20 942 137 c 1,2,3
 818 -20 818 -20 577.5 -20 c 128,-1,4
 337 -20 337 -20 208.5 113.5 c 128,-1,5
 80 247 80 247 80 451.54587156 c 0,6,7
 80 656.091743119 80 656.091743119 192.341085271 789.04587156 c 0,8,9
 304.682170543 922 304.682170543 922 555.341085271 922 c 128,-1,10
 806 922 806 922 932 774 c 1,11,12
 1050 922 1050 922 1268.57438017 922 c 0,13,14
 1487.14876033 922 1487.14876033 922 1590.57438017 796.855 c 0,15,16
 1694 671.71 1694 671.71 1694 494 c 1,17,-1
 1036 494 l 1,18,19
 1038 382 1038 382 1083 280.5 c 128,-1,20
 1128 179 1128 179 1201.5 118 c 128,-1,21
 1275 57 1275 57 1360.5 57 c 128,-1,22
 1446 57 1446 57 1513 87.5 c 128,-1,23
 1580 118 1580 118 1640 193 c 1,24,-1
 1690 168 l 1,25,26
 1630 71 1630 71 1535.5 25.5 c 128,-1,27
 1441 -20 1441 -20 1284 -20 c 0,0,1
276 508 m 0,28,29
 276 274 276 274 365 157.5 c 128,-1,30
 454 41 454 41 594 41 c 0,31,32
 705 41 705 41 772.5 140 c 128,-1,33
 840 239 840 239 840 395 c 0,34,35
 840 858 840 858 518 858 c 0,36,37
 410 858 410 858 343 754.5 c 128,-1,38
 276 651 276 651 276 508 c 0,28,29
1038 557 m 1,39,-1
 1493 557 l 1,40,41
 1481.10650888 695.75739645 1481.10650888 695.75739645 1446.55325444 755.378698225 c 128,-1,42
 1412 815 1412 815 1366.5 837.5 c 128,-1,43
 1321 860 1321 860 1252 860 c 128,-1,44
 1183 860 1183 860 1117 775.5 c 128,-1,45
 1051 691 1051 691 1038 557 c 1,39,-1
EndSplineSet
EndChar

StartChar: Scedilla
Encoding: 350 350 287
Width: 978
GlyphClass: 2
Flags: HW
LayerCount: 2
Fore
SplineSet
522 -20 m 1,0,-1
 498 -113 l 1,1,2
 556.266666667 -113 556.266666667 -113 606.133333333 -135 c 0,3,4
 702 -177.294117647 702 -177.294117647 702 -243.527493606 c 0,5,6
 702 -408 702 -408 477 -408 c 0,7,8
 415 -408 415 -408 326 -393 c 1,9,-1
 326 -358 l 1,10,11
 362 -362 362 -362 377 -362 c 0,12,13
 456 -362 456 -362 490 -332.5 c 128,-1,14
 524 -303 524 -303 524 -266 c 0,15,16
 524 -176 524 -176 399 -176 c 1,17,-1
 444 -16 l 1,18,19
 368 -9 368 -9 287 16 c 128,-1,20
 206 41 206 41 195 41 c 128,-1,21
 184 41 184 41 168 29 c 128,-1,22
 152 17 152 17 152 0 c 1,23,-1
 104 0 l 1,24,-1
 104 285 l 1,25,-1
 150 285 l 1,26,27
 183.803563271 107.531292828 183.803563271 107.531292828 384.5 61.5 c 0,28,29
 439 49 439 49 498 49 c 0,30,31
 607 49 607 49 676 98 c 128,-1,32
 745 147 745 147 745 240.64375 c 128,-1,33
 745 334.2875 745 334.2875 675.653321976 388.898008944 c 128,-1,34
 606.306643952 443.508517888 606.306643952 443.508517888 521.653321976 488.754258944 c 128,-1,35
 437 534 437 534 399 557.5 c 128,-1,36
 361 581 361 581 346 590 c 128,-1,37
 331 599 331 599 289.5 627.5 c 128,-1,38
 248 656 248 656 230.5 672 c 0,39,40
 160.995642702 735.546840959 160.995642702 735.546840959 133.497821351 788.427266633 c 128,-1,41
 106 841.307692308 106 841.307692308 106 910.653846154 c 128,-1,42
 106 980 106 980 157 1054 c 128,-1,43
 208 1128 208 1128 291.5 1173.5 c 128,-1,44
 375 1219 375 1219 450 1219 c 128,-1,45
 525 1219 525 1219 613.5 1188 c 128,-1,46
 702 1157 702 1157 713 1157 c 0,47,48
 737 1157 737 1157 737 1198 c 1,49,-1
 784 1198 l 1,50,-1
 805 938 l 1,51,-1
 760 938 l 1,52,53
 747 1028 747 1028 670 1088.5 c 128,-1,54
 593 1149 593 1149 483 1149 c 128,-1,55
 373 1149 373 1149 316.5 1089 c 128,-1,56
 260 1029 260 1029 260 978.5 c 128,-1,57
 260 928 260 928 279 894.5 c 128,-1,58
 298 861 298 861 337 831.5 c 0,59,60
 397.549087321 785.700049334 397.549087321 785.700049334 546.117272225 706.894316472 c 128,-1,61
 694.685457129 628.08858361 694.685457129 628.08858361 789 546 c 0,62,63
 913 438 913 438 913 303 c 0,64,65
 913 226 913 226 878.5 163.5 c 128,-1,66
 844 101 844 101 787 62.5 c 0,67,68
 670.984198646 -15.8615500376 670.984198646 -15.8615500376 522 -20 c 1,0,-1
EndSplineSet
EndChar

StartChar: scedilla
Encoding: 351 351 288
Width: 831
GlyphClass: 2
Flags: HW
LayerCount: 2
Fore
SplineSet
616 860 m 0,0,1
 641 860 641 860 641 901 c 1,2,-1
 688 901 l 1,3,-1
 688 655 l 1,4,-1
 643 655 l 1,5,6
 631 740 631 740 560 800 c 128,-1,7
 489 860 489 860 410 860 c 128,-1,8
 331 860 331 860 287.5 829.5 c 128,-1,9
 244 799 244 799 244 744.65625 c 128,-1,10
 244 690.3125 244 690.3125 267 665.15625 c 128,-1,11
 290 640 290 640 305 628 c 128,-1,12
 320 616 320 616 348.5 603 c 0,13,14
 400.498942918 579.281183932 400.498942918 579.281183932 449.5 562.5 c 0,15,16
 762 455.479452055 762 455.479452055 762 243 c 0,17,18
 762 133 762 133 668.5 59.5 c 128,-1,19
 575 -14 575 -14 430 -20 c 1,20,-1
 406 -113 l 1,21,22
 464.266666667 -113 464.266666667 -113 514.133333333 -135 c 0,23,24
 610 -177.294117647 610 -177.294117647 610 -243.527493606 c 0,25,26
 610 -408 610 -408 385 -408 c 0,27,28
 322 -408 322 -408 233 -393 c 1,29,-1
 233 -358 l 1,30,31
 269 -362 269 -362 285 -362 c 0,32,33
 364 -362 364 -362 398 -332.5 c 128,-1,34
 432 -303 432 -303 432 -266 c 0,35,36
 432 -176 432 -176 307 -176 c 1,37,-1
 352 -16 l 1,38,39
 303 -7 303 -7 251 21 c 128,-1,40
 199 49 199 49 186.5 49 c 128,-1,41
 174 49 174 49 157.5 33 c 128,-1,42
 141 17 141 17 141 0 c 1,43,-1
 92 0 l 1,44,-1
 92 289 l 1,45,-1
 137 289 l 1,46,47
 151 185 151 185 234 113 c 128,-1,48
 317 41 317 41 414.647887324 41 c 128,-1,49
 512.295774648 41 512.295774648 41 578.5 100.5 c 0,50,51
 618 136 618 136 618 184.5 c 0,52,53
 618 308.318181818 618 308.318181818 375 393 c 1,54,55
 216.968641115 450.160278746 216.968641115 450.160278746 160.484320557 513.705139373 c 128,-1,56
 104 577.25 104 577.25 104 683.125 c 128,-1,57
 104 789 104 789 187.5 855.5 c 128,-1,58
 271 922 271 922 372.5 922 c 128,-1,59
 474 922 474 922 570 875.5 c 0,60,61
 602 860 602 860 616 860 c 0,0,1
EndSplineSet
EndChar

StartChar: Tcommaaccent
Encoding: 354 354 291
Width: 1101
GlyphClass: 2
Flags: HW
LayerCount: 2
Fore
SplineSet
121 1128 m 1,0,1
 80 1111.22727273 80 1111.22727273 80 999 c 1,2,-1
 37 999 l 1,3,-1
 37 1198 l 1,4,-1
 1065 1198 l 1,5,-1
 1065 999 l 1,6,-1
 1022 999 l 1,7,8
 1022 1111.22727273 1022 1111.22727273 981 1128 c 1,9,-1
 645 1128 l 1,10,-1
 645 84 l 1,11,12
 661.772727273 43 661.772727273 43 774 43 c 1,13,-1
 774 0 l 1,14,-1
 592 0 l 1,15,-1
 561 -113 l 1,16,17
 658.121212121 -113 658.121212121 -113 726 -169 c 0,18,19
 766 -202 766 -202 766 -240.5 c 0,20,21
 766 -309.760869565 766 -309.760869565 719.887755102 -358.880434783 c 128,-1,22
 673.775510204 -408 673.775510204 -408 541 -408 c 0,23,24
 478 -408 478 -408 389 -393 c 1,25,-1
 389 -358 l 1,26,27
 425 -362 425 -362 440 -362 c 0,28,29
 519 -362 519 -362 553.5 -332.5 c 128,-1,30
 588 -303 588 -303 588 -266 c 0,31,32
 588 -176 588 -176 463 -176 c 1,33,-1
 514 0 l 1,34,-1
 328 0 l 1,35,-1
 328 43 l 1,36,37
 440.227272727 43 440.227272727 43 457 84 c 1,38,-1
 457 1128 l 1,39,-1
 121 1128 l 1,0,1
EndSplineSet
EndChar

StartChar: tcommaaccent
Encoding: 355 355 292
Width: 681
GlyphClass: 2
Flags: HW
LayerCount: 2
Fore
SplineSet
369 188 m 2,0,1
 369 57 369 57 463 57 c 0,2,3
 511 57 511 57 549.5 93.5 c 128,-1,4
 588 130 588 130 602 193 c 1,5,-1
 651 168 l 1,6,7
 607 -17 607 -17 410 -20 c 1,8,-1
 385 -113 l 1,9,10
 482.121212121 -113 482.121212121 -113 550 -169 c 0,11,12
 590 -202 590 -202 590 -240.5 c 0,13,14
 590 -309.760869565 590 -309.760869565 543.887755102 -358.880434783 c 128,-1,15
 497.775510204 -408 497.775510204 -408 365 -408 c 0,16,17
 302 -408 302 -408 213 -393 c 1,18,-1
 213 -358 l 1,19,20
 249 -362 249 -362 264 -362 c 0,21,22
 343 -362 343 -362 377.5 -332.5 c 128,-1,23
 412 -303 412 -303 412 -266 c 0,24,25
 412 -176 412 -176 287 -176 c 1,26,-1
 334 -14 l 1,27,28
 174 17 174 17 174 205 c 2,29,-1
 174 840 l 1,30,-1
 31 840 l 1,31,-1
 31 901 l 1,32,33
 128 901 128 901 205.5 981 c 128,-1,34
 283 1061 283 1061 283 1198 c 1,35,-1
 371 1198 l 1,36,-1
 369 901 l 1,37,-1
 545 901 l 1,38,-1
 545 840 l 1,39,-1
 369 840 l 1,40,-1
 369 188 l 2,0,1
EndSplineSet
EndChar

StartChar: Tbar
Encoding: 358 358 295
Width: 1101
GlyphClass: 2
Flags: HW
LayerCount: 2
Fore
SplineSet
121 1128 m 1,0,1
 80 1111.22727273 80 1111.22727273 80 999 c 1,2,-1
 37 999 l 1,3,-1
 37 1198 l 1,4,-1
 1065 1198 l 1,5,-1
 1065 999 l 1,6,-1
 1022 999 l 1,7,8
 1022 1111.22727273 1022 1111.22727273 981 1128 c 1,9,-1
 645 1128 l 1,10,-1
 645 682 l 1,11,-1
 807 682 l 1,12,-1
 807 612 l 1,13,-1
 645 612 l 1,14,-1
 645 84 l 1,15,16
 661.772727273 43 661.772727273 43 774 43 c 1,17,-1
 774 0 l 1,18,-1
 328 0 l 1,19,-1
 328 43 l 1,20,21
 440.227272727 43 440.227272727 43 457 84 c 1,22,-1
 457 612 l 1,23,-1
 266 612 l 1,24,-1
 266 682 l 1,25,-1
 457 682 l 1,26,-1
 457 1128 l 1,27,-1
 121 1128 l 1,0,1
EndSplineSet
EndChar

StartChar: tbar
Encoding: 359 359 296
Width: 690
GlyphClass: 2
Flags: HW
LayerCount: 2
Fore
SplineSet
375 188 m 2,0,1
 375 57 375 57 469 57 c 0,2,3
 517 57 517 57 555.5 93.5 c 128,-1,4
 594 130 594 130 608 193 c 1,5,-1
 657 168 l 1,6,7
 613 -20 613 -20 412 -20 c 0,8,9
 178 -20 178 -20 178 205 c 2,10,-1
 178 514 l 1,11,-1
 35 514 l 1,12,-1
 35 584 l 1,13,-1
 178 584 l 1,14,-1
 178 840 l 1,15,-1
 35 840 l 1,16,-1
 35 901 l 1,17,18
 132 901 132 901 209.5 981 c 128,-1,19
 287 1061 287 1061 287 1198 c 1,20,-1
 375 1198 l 1,21,-1
 375 901 l 1,22,-1
 551 901 l 1,23,-1
 551 840 l 1,24,-1
 375 840 l 1,25,-1
 375 584 l 1,26,-1
 575 584 l 1,27,-1
 575 514 l 1,28,-1
 375 514 l 1,29,-1
 375 188 l 2,0,1
EndSplineSet
EndChar

StartChar: Uogonek
Encoding: 370 370 307
Width: 1269
GlyphClass: 2
Flags: HW
LayerCount: 2
Fore
SplineSet
760 -412 m 0,0,1
 547 -412 547 -412 547 -205.5 c 0,2,3
 547 -104 547 -104 627 -20 c 1,4,5
 182 5 182 5 182 508 c 2,6,-1
 182 1114 l 1,7,8
 165.227272727 1155 165.227272727 1155 53 1155 c 1,9,-1
 53 1198 l 1,10,-1
 500 1198 l 1,11,-1
 500 1155 l 1,12,13
 387.772727273 1155 387.772727273 1155 371 1114 c 1,14,-1
 371 479 l 2,15,16
 371 275 371 275 460.5 162 c 128,-1,17
 550 49 550 49 694 49 c 1,18,-1
 694 47 l 1,19,20
 831 47 831 47 924.5 161.5 c 128,-1,21
 1018 276 1018 276 1018 465 c 2,22,-1
 1018 1112 l 1,23,24
 1001.22727273 1153 1001.22727273 1153 889 1153 c 1,25,-1
 889 1196 l 1,26,-1
 1217 1196 l 1,27,-1
 1217 1153 l 1,28,29
 1103.77272727 1153 1103.77272727 1153 1087 1112 c 1,30,-1
 1087 506 l 2,31,32
 1087 122.886524823 1087 122.886524823 840.5 11 c 0,33,34
 770 -21 770 -21 688 -23 c 1,35,36
 647 -82 647 -82 647 -123 c 0,37,38
 647 -224 647 -224 702.5 -283 c 128,-1,39
 758 -342 758 -342 827 -342 c 0,40,41
 858 -342 858 -342 891 -309 c 1,42,-1
 913 -346 l 1,43,44
 869 -412 869 -412 760 -412 c 0,0,1
EndSplineSet
EndChar

StartChar: uogonek
Encoding: 371 371 308
Width: 1128
GlyphClass: 2
Flags: HW
LayerCount: 2
Fore
SplineSet
768 817 m 1,0,1
 751.227272727 858 751.227272727 858 639 858 c 1,2,-1
 639 901 l 1,3,-1
 952 901 l 1,4,-1
 952 125 l 1,5,6
 1080 115 1080 115 1081 115 c 1,7,-1
 1081 68 l 1,8,9
 1043 68 1043 68 944 30 c 128,-1,10
 845 -8 845 -8 807 -16 c 1,11,12
 764 -78 764 -78 764 -121 c 0,13,14
 764 -222 764 -222 819.5 -281 c 128,-1,15
 875 -340 875 -340 944 -340 c 0,16,17
 971.333333333 -340 971.333333333 -340 1008 -307 c 1,18,-1
 1030 -344 l 1,19,20
 986 -410 986 -410 876.5 -410 c 128,-1,21
 767 -410 767 -410 715.5 -357.5 c 128,-1,22
 664 -305 664 -305 664 -211 c 0,23,24
 664 -83 664 -83 768 4 c 1,25,-1
 768 74 l 1,26,27
 658 -20 658 -20 524 -20 c 0,28,29
 333 -20 333 -20 248.5 50 c 128,-1,30
 164 120 164 120 164 270 c 2,31,-1
 164 817 l 1,32,33
 147.227272727 858 147.227272727 858 35 858 c 1,34,-1
 35 901 l 1,35,-1
 348 901 l 1,36,-1
 348 256 l 2,37,38
 348 49 348 49 537 49 c 0,39,40
 665 49 665 49 768 139 c 1,41,-1
 768 817 l 1,0,1
EndSplineSet
EndChar

StartChar: longs
Encoding: 383 383 320
Width: 528
GlyphClass: 2
Flags: HW
LayerCount: 2
Fore
SplineSet
356 84 m 1,0,1
 372.772727273 43 372.772727273 43 485 43 c 1,2,-1
 485 0 l 1,3,-1
 43 0 l 1,4,-1
 43 43 l 1,5,6
 155.227272727 43 155.227272727 43 172 84 c 1,7,-1
 172 971 l 2,8,9
 172 1213.11702128 172 1213.11702128 344 1273.5 c 0,10,11
 391 1290 391 1290 446 1290 c 0,12,13
 713 1290 713 1290 713 1112 c 0,14,15
 713 1075 713 1075 686 1052.5 c 128,-1,16
 659 1030 659 1030 626 1030 c 128,-1,17
 593 1030 593 1030 569 1052.5 c 128,-1,18
 545 1075 545 1075 545 1107 c 128,-1,19
 545 1139 545 1139 565 1159 c 1,20,21
 565 1193 565 1193 536.5 1211 c 128,-1,22
 508 1229 508 1229 466.5 1229 c 128,-1,23
 425 1229 425 1229 390.5 1168 c 128,-1,24
 356 1107 356 1107 356 999 c 2,25,-1
 356 84 l 1,0,1
EndSplineSet
EndChar

StartChar: uni0180
Encoding: 384 384 321
Width: 1101
GlyphClass: 2
Flags: HW
LayerCount: 2
Fore
SplineSet
324 764 m 1,0,-1
 324 121 l 1,1,2
 405 49 405 49 547 49 c 0,3,4
 660 49 660 49 743.5 156.5 c 128,-1,5
 827 264 827 264 827 450 c 128,-1,6
 827 636 827 636 759.5 748 c 128,-1,7
 692 860 692 860 584 860 c 0,8,9
 411 860 411 860 324 764 c 1,0,-1
139 1145 m 1,10,11
 12 1155 12 1155 10 1155 c 1,12,-1
 10 1202 l 1,13,14
 48 1202 48 1202 162 1246 c 128,-1,15
 276 1290 276 1290 324 1290 c 1,16,-1
 324 1079 l 1,17,-1
 526 1079 l 1,18,-1
 526 1010 l 1,19,-1
 324 1010 l 1,20,-1
 324 834 l 1,21,22
 424 930 424 930 604 930 c 0,23,24
 718.666666667 930 718.666666667 930 819.5 869.5 c 0,25,26
 1022 748 1022 748 1022 455 c 0,27,28
 1022 226 1022 226 894 103 c 128,-1,29
 766 -20 766 -20 559 -20 c 0,30,31
 410 -20 410 -20 315 57 c 1,32,33
 196.538461538 -20 196.538461538 -20 139 -20 c 1,34,-1
 139 1010 l 1,35,-1
 -14 1010 l 1,36,-1
 -14 1079 l 1,37,-1
 139 1079 l 1,38,-1
 139 1145 l 1,10,11
EndSplineSet
EndChar

StartChar: uni0181
Encoding: 385 385 322
Width: 1380
GlyphClass: 2
Flags: HW
LayerCount: 2
Fore
SplineSet
324 43 m 1,0,1
 436.227272727 43 436.227272727 43 453 84 c 1,2,-1
 453 1128 l 1,3,4
 256 1128 256 1128 223 1090 c 1,5,6
 201 1068 201 1068 201 1025.5 c 128,-1,7
 201 983 201 983 235.5 964 c 128,-1,8
 270 945 270 945 270 900.5 c 128,-1,9
 270 856 270 856 242.5 829.5 c 128,-1,10
 215 803 215 803 174 803 c 0,11,12
 105 803 105 803 67 860 c 128,-1,13
 29 917 29 917 29 969 c 0,14,15
 29 1082.77419355 29 1082.77419355 96 1126 c 1,16,17
 139 1155 139 1155 166.5 1167 c 0,18,19
 237.541666667 1198 237.541666667 1198 453 1198 c 2,20,-1
 700 1198 l 2,21,22
 1076.18367347 1198 1076.18367347 1198 1187 1017 c 0,23,24
 1217 968 1217 968 1217 915 c 0,25,26
 1217 707 1217 707 999 633 c 1,27,28
 1103 610 1103 610 1174.5 562.5 c 0,29,30
 1307 474.475524476 1307 474.475524476 1307 350 c 0,31,32
 1307 198.41025641 1307 198.41025641 1186.09375 99.2051282051 c 0,33,34
 1065.1875 0 1065.1875 0 815 0 c 2,35,-1
 324 0 l 1,36,-1
 324 43 l 1,0,1
725 653 m 2,37,38
 1012 653 1012 653 1012 913 c 0,39,40
 1012 1128 1012 1128 700 1128 c 2,41,-1
 641 1128 l 1,42,-1
 641 653 l 1,43,-1
 725 653 l 2,37,38
641 594 m 1,44,-1
 641 70 l 1,45,-1
 815 70 l 2,46,47
 972 70 972 70 1037 144 c 128,-1,48
 1102 218 1102 218 1102 348 c 0,49,50
 1102 525.428571429 1102 525.428571429 918 578 c 0,51,52
 862 594 862 594 791 594 c 2,53,-1
 641 594 l 1,44,-1
EndSplineSet
EndChar

StartChar: Oopen
Encoding: 390 390 323
Width: 1187
GlyphClass: 2
Flags: HW
AnchorPoint: "Anchor-5" 498 0 basechar 0
AnchorPoint: "Anchor-4" 543 0 basechar 0
AnchorPoint: "Anchor-3" 498 0 basechar 0
AnchorPoint: "Anchor-2" 993 598 basechar 0
AnchorPoint: "Anchor-0" 526 1270 basechar 0
LayerCount: 2
Fore
SplineSet
293 90.5 m 128,-1,1
 377 41 377 41 470.5 41 c 128,-1,2
 564 41 564 41 635 73 c 128,-1,3
 706 105 706 105 766 167 c 128,-1,4
 826 229 826 229 862.5 333.5 c 128,-1,5
 899 438 899 438 899 564.5 c 128,-1,6
 899 691 899 691 871 791 c 0,7,8
 822.057403189 965.79498861 822.057403189 965.79498861 707.045368261 1057.39749431 c 128,-1,9
 592.033333333 1149 592.033333333 1149 482.516666667 1149 c 128,-1,10
 373 1149 373 1149 278 1088 c 128,-1,11
 183 1027 183 1027 133 930 c 1,12,-1
 84 954 l 1,13,14
 134 1068 134 1068 239.5 1143.5 c 128,-1,15
 345 1219 345 1219 497.375 1219 c 128,-1,16
 649.75 1219 649.75 1219 795 1142 c 0,17,18
 878 1098 878 1098 944 1033 c 128,-1,19
 1010 968 1010 968 1054 859.5 c 128,-1,20
 1098 751 1098 751 1098 609.5 c 128,-1,21
 1098 468 1098 468 1048.5 344.5 c 128,-1,22
 999 221 999 221 917.5 143 c 0,23,24
 747.185897436 -20 747.185897436 -20 527.092948718 -20 c 128,-1,25
 307 -20 307 -20 195.5 59.5 c 128,-1,26
 84 139 84 139 84 256 c 0,27,28
 84 302 84 302 108 330 c 128,-1,29
 132 358 132 358 170.5 358 c 128,-1,30
 209 358 209 358 236.5 340 c 128,-1,31
 264 322 264 322 264 283 c 128,-1,32
 264 244 264 244 243 223.5 c 128,-1,33
 222 203 222 203 193 203 c 1,34,0
 209 140 209 140 293 90.5 c 128,-1,1
EndSplineSet
EndChar

StartChar: uni0187
Encoding: 391 391 324
Width: 1386
GlyphClass: 2
Flags: HW
LayerCount: 2
Fore
SplineSet
920 1118 m 1,0,1
 987 1219 987 1219 1116.73880597 1219 c 128,-1,2
 1246.47761194 1219 1246.47761194 1219 1329.5 1156.5 c 0,3,4
 1374 1123 1374 1123 1374 1087 c 128,-1,5
 1374 1051 1374 1051 1348 1028.5 c 128,-1,6
 1322 1006 1322 1006 1291 1006 c 128,-1,7
 1260 1006 1260 1006 1239.5 1027.5 c 128,-1,8
 1219 1049 1219 1049 1201.5 1082.5 c 0,9,10
 1176.42596811 1130.49886105 1176.42596811 1130.49886105 1165.16298405 1143.74943052 c 128,-1,11
 1153.9 1157 1153.9 1157 1124 1157 c 0,12,13
 1085 1157 1085 1157 1057.5 1089 c 128,-1,14
 1030 1021 1030 1021 1030 909 c 1,15,-1
 985 909 l 1,16,17
 970 1011 970 1011 875 1080 c 128,-1,18
 780 1149 780 1149 649 1149 c 0,19,20
 479 1149 479 1149 391 1008.5 c 128,-1,21
 303 868 303 868 303 627 c 0,22,23
 303 489 303 489 338 377 c 128,-1,24
 373 265 373 265 432 194.5 c 0,25,26
 553.765957447 49 553.765957447 49 721 49 c 0,27,28
 823 49 823 49 923.5 119.5 c 128,-1,29
 1024 190 1024 190 1053 270 c 1,30,-1
 1102 246 l 1,31,32
 1059.49193548 142.766129032 1059.49193548 142.766129032 960.02374552 61.3830645161 c 128,-1,33
 860.555555556 -20 860.555555556 -20 701.277777778 -20 c 0,34,35
 399.798816568 -20 399.798816568 -20 244.899408284 160.537931034 c 128,-1,36
 90 341.075862069 90 341.075862069 90 582 c 0,37,38
 90 875 90 875 245.5 1047 c 128,-1,39
 401 1219 401 1219 647 1219 c 0,40,41
 804 1219 804 1219 920 1118 c 1,0,1
EndSplineSet
EndChar

StartChar: uni0188
Encoding: 392 392 325
Width: 1234
GlyphClass: 2
Flags: HW
LayerCount: 2
Fore
SplineSet
809 614 m 1,0,1
 809 715 809 715 734 787.5 c 128,-1,2
 659 860 659 860 545 860 c 128,-1,3
 431 860 431 860 352.5 764 c 128,-1,4
 274 668 274 668 274 504 c 0,5,6
 274 390 274 390 319 286 c 128,-1,7
 364 182 364 182 438 119.5 c 128,-1,8
 512 57 512 57 598 57 c 128,-1,9
 684 57 684 57 751.5 88 c 128,-1,10
 819 119 819 119 879 193 c 1,11,-1
 928 168 l 1,12,13
 868 71 868 71 773.5 25.5 c 128,-1,14
 679 -20 679 -20 535.1875 -20 c 128,-1,15
 391.375 -20 391.375 -20 275.363241767 49.0317900228 c 128,-1,16
 159.351483534 118.063580046 159.351483534 118.063580046 108.5 284 c 0,17,18
 80 377 80 377 80 479.5 c 0,19,20
 80 671.448275862 80 671.448275862 204.205128205 796.724137931 c 128,-1,21
 328.41025641 922 328.41025641 922 537 922 c 0,22,23
 679 922 679 922 774 834 c 1,24,25
 852 922 852 922 950 922 c 0,26,27
 1093.47761194 922 1093.47761194 922 1176.5 859.5 c 0,28,29
 1221 826 1221 826 1221 790 c 128,-1,30
 1221 754 1221 754 1195 731.5 c 128,-1,31
 1169 709 1169 709 1137.5 709 c 128,-1,32
 1106 709 1106 709 1085 731 c 128,-1,33
 1064 753 1064 753 1045.5 789 c 128,-1,34
 1027 825 1027 825 1021.5 834.5 c 0,35,36
 1006.73684211 860 1006.73684211 860 969.368421053 860 c 128,-1,37
 932 860 932 860 903 793 c 128,-1,38
 874 726 874 726 874 614 c 1,39,-1
 809 614 l 1,0,1
EndSplineSet
EndChar

StartChar: uni018A
Encoding: 394 394 327
Width: 1488
GlyphClass: 2
Flags: HW
LayerCount: 2
Fore
SplineSet
324 41 m 1,0,1
 436.227272727 41 436.227272727 41 453 82 c 1,2,-1
 453 1128 l 1,3,4
 256 1128 256 1128 223 1090 c 1,5,6
 201 1068 201 1068 201 1025.5 c 128,-1,7
 201 983 201 983 235.5 964 c 128,-1,8
 270 945 270 945 270 900.5 c 128,-1,9
 270 856 270 856 242.5 829.5 c 128,-1,10
 215 803 215 803 174 803 c 0,11,12
 105 803 105 803 67 860 c 128,-1,13
 29 917 29 917 29 969 c 0,14,15
 29 1082.77419355 29 1082.77419355 96 1126 c 1,16,17
 139 1155 139 1155 166.5 1167 c 0,18,19
 237.541666667 1198 237.541666667 1198 453 1198 c 2,20,-1
 795 1198 l 2,21,22
 1068 1198 1068 1198 1233.5 1032 c 128,-1,23
 1399 866 1399 866 1399 599.5 c 128,-1,24
 1399 333 1399 333 1237.5 165.5 c 128,-1,25
 1076 -2 1076 -2 819 -2 c 2,26,-1
 324 -2 l 1,27,-1
 324 41 l 1,0,1
641 1128 m 1,28,-1
 641 68 l 1,29,-1
 819 68 l 2,30,31
 928.790123457 68 928.790123457 68 1022 143.5 c 0,32,33
 1194 282.82 1194 282.82 1194 598 c 0,34,35
 1194 735 1194 735 1158.5 841 c 128,-1,36
 1123 947 1123 947 1064.5 1007.5 c 0,37,38
 947.983471074 1128 947.983471074 1128 795 1128 c 2,39,-1
 641 1128 l 1,28,-1
EndSplineSet
EndChar

StartChar: Eturned
Encoding: 398 398 328
Width: 1038
GlyphClass: 2
Flags: HW
AnchorPoint: "Anchor-5" 420 0 basechar 0
AnchorPoint: "Anchor-4" 735 0 basechar 0
AnchorPoint: "Anchor-3" 420 0 basechar 0
AnchorPoint: "Anchor-2" 727 336 basechar 0
AnchorPoint: "Anchor-0" 547 1270 basechar 0
LayerCount: 2
Fore
SplineSet
823 84 m 1,0,1
 839.772727273 43 839.772727273 43 952 43 c 1,2,-1
 952 0 l 1,3,-1
 84 0 l 1,4,-1
 35 199 l 1,5,-1
 76 199 l 1,6,7
 119 90 119 90 168 70 c 1,8,-1
 635 70 l 1,9,-1
 635 588 l 1,10,-1
 348 588 l 1,11,12
 307 571.227272727 307 571.227272727 307 459 c 1,13,-1
 264 459 l 1,14,-1
 264 786 l 1,15,-1
 307 786 l 1,16,17
 307 673.772727273 307 673.772727273 348 657 c 1,18,-1
 635 657 l 1,19,-1
 635 1128 l 1,20,-1
 211 1128 l 1,21,22
 170 1111.22727273 170 1111.22727273 170 999 c 1,23,-1
 127 999 l 1,24,-1
 127 1198 l 1,25,-1
 952 1198 l 1,26,-1
 952 1155 l 1,27,28
 839.772727273 1155 839.772727273 1155 823 1114 c 1,29,-1
 823 84 l 1,0,1
EndSplineSet
EndChar

StartChar: Schwa
Encoding: 399 399 329
Width: 1269
GlyphClass: 2
Flags: HW
AnchorPoint: "Anchor-5" 588 0 basechar 0
AnchorPoint: "Anchor-4" 641 0 basechar 0
AnchorPoint: "Anchor-3" 588 0 basechar 0
AnchorPoint: "Anchor-2" 602 311 basechar 0
AnchorPoint: "Anchor-0" 569 1270 basechar 0
LayerCount: 2
Fore
SplineSet
967 504 m 1,0,-1
 276 504 l 1,1,2
 296 301 296 301 384.5 175 c 128,-1,3
 473 49 473 49 592 49 c 0,4,5
 753 49 753 49 853 172.5 c 128,-1,6
 953 296 953 296 967 504 c 1,0,-1
969 573 m 1,7,8
 969 710 969 710 934 822 c 128,-1,9
 899 934 899 934 840 1004 c 0,10,11
 717.785714286 1149 717.785714286 1149 551 1149 c 0,12,13
 449 1149 449 1149 348.5 1078.5 c 128,-1,14
 248 1008 248 1008 219 928 c 1,15,-1
 170 952 l 1,16,17
 212.239855726 1054.58250676 212.239855726 1054.58250676 311.491879082 1136.79125338 c 128,-1,18
 410.743902439 1219 410.743902439 1219 570.37195122 1219 c 0,19,20
 871.343195266 1219 871.343195266 1219 1026.67159763 1037.96206897 c 128,-1,21
 1182 856.924137931 1182 856.924137931 1182 616 c 0,22,23
 1182 471 1182 471 1135.5 350 c 128,-1,24
 1089 229 1089 229 1009 148.5 c 0,25,26
 841.546583851 -20 841.546583851 -20 594 -20 c 0,27,28
 445 -20 445 -20 323 54.5 c 128,-1,29
 201 129 201 129 129 265.5 c 128,-1,30
 57 402 57 402 57 573 c 1,31,-1
 969 573 l 1,7,8
EndSplineSet
EndChar

StartChar: Eopen
Encoding: 400 400 330
Width: 1069
GlyphClass: 2
Flags: HW
AnchorPoint: "Anchor-5" 582 0 basechar 0
AnchorPoint: "Anchor-4" 618 0 basechar 0
AnchorPoint: "Anchor-3" 582 0 basechar 0
AnchorPoint: "Anchor-2" 209 348 basechar 0
AnchorPoint: "Anchor-0" 584 1270 basechar 0
LayerCount: 2
Fore
SplineSet
338 954 m 0,0,1
 338 700 338 700 666 700 c 1,2,-1
 666 631 l 1,3,4
 493 631 493 631 401 558.5 c 128,-1,5
 309 486 309 486 309 348.5 c 128,-1,6
 309 211 309 211 397.5 130 c 128,-1,7
 486 49 486 49 613.5 49 c 128,-1,8
 741 49 741 49 840 119 c 128,-1,9
 939 189 939 189 969 270 c 1,10,-1
 1018 246 l 1,11,12
 940.147310345 54.9070344828 940.147310345 54.9070344828 767.5 3 c 0,13,14
 691 -20 691 -20 583 -20 c 128,-1,15
 475 -20 475 -20 383.5 6 c 0,16,17
 226.398120842 50.6409711268 226.398120842 50.6409711268 153 157.5 c 0,18,19
 96 240.485294118 96 240.485294118 96 330 c 0,20,21
 96 583 96 583 362 664 c 1,22,23
 252 696 252 696 188.5 757.5 c 128,-1,24
 125 819 125 819 125 901 c 128,-1,25
 125 983 125 983 149.5 1038.5 c 0,26,27
 195.125030585 1141.85466112 195.125030585 1141.85466112 313.598229578 1180.42733056 c 128,-1,28
 432.071428571 1219 432.071428571 1219 616 1219 c 0,29,30
 705 1219 705 1219 787.5 1172.5 c 0,31,32
 815 1157 815 1157 829 1157 c 0,33,34
 854 1157 854 1157 854 1198 c 1,35,-1
 901 1198 l 1,36,-1
 922 938 l 1,37,-1
 877 938 l 1,38,39
 865 1021 865 1021 784 1085 c 128,-1,40
 703 1149 703 1149 618 1149 c 0,41,42
 476 1149 476 1149 407 1093.5 c 128,-1,43
 338 1038 338 1038 338 954 c 0,0,1
EndSplineSet
EndChar

StartChar: uni0191
Encoding: 401 401 331
Width: 944
GlyphClass: 2
Flags: HW
LayerCount: 2
Fore
SplineSet
197 1114 m 1,0,1
 180.227272727 1155 180.227272727 1155 68 1155 c 1,2,-1
 68 1198 l 1,3,-1
 893 1198 l 1,4,-1
 893 999 l 1,5,-1
 850 999 l 1,6,7
 850 1111.22727273 850 1111.22727273 809 1128 c 1,8,-1
 385 1128 l 1,9,-1
 385 657 l 1,10,-1
 672 657 l 1,11,12
 713 673.772727273 713 673.772727273 713 786 c 1,13,-1
 756 786 l 1,14,-1
 756 459 l 1,15,-1
 713 459 l 1,16,17
 713 571.227272727 713 571.227272727 672 588 c 1,18,-1
 385 588 l 1,19,-1
 385 0 l 2,20,21
 385 -169 385 -169 315.5 -244 c 128,-1,22
 246 -319 246 -319 117.553030303 -319 c 128,-1,23
 -10.8939393939 -319 -10.8939393939 -319 -94.5 -257 c 0,24,25
 -139 -224 -139 -224 -139 -188 c 128,-1,26
 -139 -152 -139 -152 -112.5 -129 c 128,-1,27
 -86 -106 -86 -106 -55.5 -106 c 128,-1,28
 -25 -106 -25 -106 -4.5 -128 c 128,-1,29
 16 -150 16 -150 33.5 -183.5 c 0,30,31
 58.5740318907 -231.498861048 58.5740318907 -231.498861048 69.8370159453 -244.749430524 c 128,-1,32
 81.1 -258 81.1 -258 111 -258 c 0,33,34
 150 -258 150 -258 173.5 -200 c 128,-1,35
 197 -142 197 -142 197 -29 c 2,36,-1
 197 1114 l 1,0,1
EndSplineSet
EndChar

StartChar: florin
Encoding: 402 402 332
Width: 522
GlyphClass: 2
Flags: HW
LayerCount: 2
Fore
SplineSet
477 901 m 1,0,-1
 477 840 l 1,1,-1
 350 840 l 1,2,-1
 350 0 l 2,3,4
 350 -169 350 -169 280.5 -244 c 128,-1,5
 211 -319 211 -319 82.553030303 -319 c 128,-1,6
 -45.8939393939 -319 -45.8939393939 -319 -129.5 -257 c 0,7,8
 -174 -224 -174 -224 -174 -188 c 128,-1,9
 -174 -152 -174 -152 -147.5 -129 c 128,-1,10
 -121 -106 -121 -106 -90.5 -106 c 128,-1,11
 -60 -106 -60 -106 -39.5 -128 c 128,-1,12
 -19 -150 -19 -150 -1.5 -183.5 c 0,13,14
 23.5740318907 -231.498861048 23.5740318907 -231.498861048 34.8370159453 -244.749430524 c 128,-1,15
 46.1 -258 46.1 -258 80.55 -258 c 128,-1,16
 115 -258 115 -258 140.5 -199.5 c 128,-1,17
 166 -141 166 -141 166 -29 c 2,18,-1
 166 840 l 1,19,-1
 63 840 l 1,20,-1
 63 901 l 1,21,-1
 166 901 l 1,22,-1
 166 971 l 2,23,24
 166 1140 166 1140 235.5 1215 c 128,-1,25
 305 1290 305 1290 423 1290 c 128,-1,26
 541 1290 541 1290 602.5 1252.5 c 128,-1,27
 664 1215 664 1215 664 1175 c 128,-1,28
 664 1135 664 1135 640 1114.5 c 128,-1,29
 616 1094 616 1094 580.5 1094 c 128,-1,30
 545 1094 545 1094 527.5 1115 c 128,-1,31
 510 1136 510 1136 507 1161.5 c 0,32,33
 499.058823529 1229 499.058823529 1229 440 1229 c 0,34,35
 401 1229 401 1229 375.5 1170 c 128,-1,36
 350 1111 350 1111 350 999 c 2,37,-1
 350 901 l 1,38,-1
 477 901 l 1,0,-1
EndSplineSet
EndChar

StartChar: uni0193
Encoding: 403 403 333
Width: 1400
GlyphClass: 2
Flags: HW
LayerCount: 2
Fore
SplineSet
1239 549 m 1,0,1
 1126.77272727 549 1126.77272727 549 1110 508 c 1,2,-1
 1110 164 l 1,3,4
 1077.84467714 106.120418848 1077.84467714 106.120418848 1007.42233857 62.5602094241 c 0,5,6
 873.95 -20 873.95 -20 700 -20 c 0,7,8
 372.342105263 -20 372.342105263 -20 195.5 236 c 0,9,10
 90 388.723809524 90 388.723809524 90 582 c 0,11,12
 90 875 90 875 245.5 1047 c 128,-1,13
 401 1219 401 1219 647 1219 c 0,14,15
 804 1219 804 1219 920 1118 c 1,16,17
 987 1219 987 1219 1116.73880597 1219 c 128,-1,18
 1246.47761194 1219 1246.47761194 1219 1329.5 1156.5 c 0,19,20
 1374 1123 1374 1123 1374 1087 c 128,-1,21
 1374 1051 1374 1051 1348 1028.5 c 128,-1,22
 1322 1006 1322 1006 1291 1006 c 128,-1,23
 1260 1006 1260 1006 1239.5 1027.5 c 128,-1,24
 1219 1049 1219 1049 1201.5 1082.5 c 0,25,26
 1176.42596811 1130.49886105 1176.42596811 1130.49886105 1165.16298405 1143.74943052 c 128,-1,27
 1153.9 1157 1153.9 1157 1124 1157 c 0,28,29
 1085 1157 1085 1157 1057.5 1089 c 128,-1,30
 1030 1021 1030 1021 1030 909 c 1,31,-1
 985 909 l 1,32,33
 970 1011 970 1011 875 1080 c 128,-1,34
 780 1149 780 1149 658 1149 c 128,-1,35
 536 1149 536 1149 456.5 1072 c 0,36,37
 303 923.327044025 303 923.327044025 303 594.359783695 c 128,-1,38
 303 265.392523364 303 265.392523364 487.5 124 c 0,39,40
 585.365853659 49 585.365853659 49 703.682926829 49 c 128,-1,41
 822 49 822 49 922 88 c 1,42,-1
 922 508 l 1,43,44
 905.227272727 549 905.227272727 549 793 549 c 1,45,-1
 793 592 l 1,46,-1
 1239 592 l 1,47,-1
 1239 549 l 1,0,1
EndSplineSet
EndChar

StartChar: uni0194
Encoding: 404 404 334
Width: 1071
GlyphClass: 2
Flags: HW
LayerCount: 2
Fore
SplineSet
412 1198 m 1,0,-1
 412 1155 l 1,1,2
 330 1155 330 1155 303 1137 c 1,3,-1
 580 641 l 1,4,-1
 895 1135 l 1,5,6
 869 1155 869 1155 780 1155 c 1,7,-1
 780 1198 l 1,8,-1
 1094 1198 l 1,9,-1
 1094 1155 l 1,10,11
 989.227272727 1155 989.227272727 1155 965 1114 c 1,12,-1
 614 571 l 1,13,14
 731 326 731 326 731 180 c 0,15,16
 731 96 731 96 677 38 c 128,-1,17
 623 -20 623 -20 536 -20 c 128,-1,18
 449 -20 449 -20 401.5 31.5 c 128,-1,19
 354 83 354 83 354 179.5 c 128,-1,20
 354 276 354 276 457 455 c 1,21,22
 412 551 412 551 346 672 c 2,23,-1
 109 1112 l 1,24,25
 87 1155 87 1155 -23 1155 c 1,26,-1
 -23 1198 l 1,27,-1
 412 1198 l 1,0,-1
438 219 m 0,28,29
 438 76 438 76 489 76 c 0,30,31
 513 76 513 76 528 115.5 c 128,-1,32
 543 155 543 155 543 206 c 128,-1,33
 543 257 543 257 494 375 c 1,34,35
 438 268 438 268 438 219 c 0,28,29
EndSplineSet
EndChar

StartChar: Iotalatin
Encoding: 406 406 335
Width: 593
GlyphClass: 2
Flags: HW
AnchorPoint: "Anchor-5" 379 0 basechar 0
AnchorPoint: "Anchor-4" 406 0 basechar 0
AnchorPoint: "Anchor-3" 379 0 basechar 0
AnchorPoint: "Anchor-2" 291 602 basechar 0
AnchorPoint: "Anchor-0" 291 1270 basechar 0
LayerCount: 2
Fore
SplineSet
193 1114 m 1,0,1
 176.227272727 1155 176.227272727 1155 63 1155 c 1,2,-1
 63 1198 l 1,3,-1
 381 1198 l 1,4,-1
 381 172 l 2,5,6
 381 107 381 107 403 76 c 128,-1,7
 425 45 425 45 453.5 45 c 128,-1,8
 482 45 482 45 503 59 c 128,-1,9
 524 73 524 73 524 94 c 1,10,-1
 561 94 l 1,11,12
 561 36 561 36 519 10 c 128,-1,13
 477 -16 477 -16 373 -16 c 0,14,15
 193 -16 193 -16 193 229 c 2,16,-1
 193 1114 l 1,0,1
EndSplineSet
EndChar

StartChar: Istroke
Encoding: 407 407 336
Width: 673
GlyphClass: 2
Flags: HW
AnchorPoint: "Anchor-0" 350 1270 basechar 0
LayerCount: 2
Fore
SplineSet
440 84 m 1,0,1
 456.772727273 43 456.772727273 43 569 43 c 1,2,-1
 569 0 l 1,3,-1
 123 0 l 1,4,-1
 123 43 l 1,5,6
 235.227272727 43 235.227272727 43 252 84 c 1,7,-1
 252 567 l 1,8,-1
 66 567 l 1,9,-1
 66 637 l 1,10,-1
 252 637 l 1,11,-1
 252 1114 l 1,12,13
 235.227272727 1155 235.227272727 1155 123 1155 c 1,14,-1
 123 1198 l 1,15,-1
 569 1198 l 1,16,-1
 569 1155 l 1,17,18
 456.772727273 1155 456.772727273 1155 440 1114 c 1,19,-1
 440 637 l 1,20,-1
 606 637 l 1,21,-1
 606 567 l 1,22,-1
 440 567 l 1,23,-1
 440 84 l 1,0,1
EndSplineSet
EndChar

StartChar: uni0198
Encoding: 408 408 337
Width: 1423
GlyphClass: 2
Flags: HW
LayerCount: 2
Fore
SplineSet
637 84 m 1,0,1
 653.772727273 43 653.772727273 43 766 43 c 1,2,-1
 766 0 l 1,3,-1
 324 0 l 1,4,-1
 324 43 l 1,5,6
 436.227272727 43 436.227272727 43 453 84 c 1,7,-1
 453 1128 l 1,8,9
 256 1128 256 1128 223 1090 c 1,10,11
 201 1068 201 1068 201 1025.5 c 128,-1,12
 201 983 201 983 235.5 964 c 128,-1,13
 270 945 270 945 270 900.5 c 128,-1,14
 270 856 270 856 242.5 829.5 c 128,-1,15
 215 803 215 803 174 803 c 0,16,17
 105 803 105 803 67 860 c 128,-1,18
 29 917 29 917 29 969 c 0,19,20
 29 1082.77419355 29 1082.77419355 96 1126 c 1,21,22
 139 1155 139 1155 166.5 1167 c 0,23,24
 237.541666667 1198 237.541666667 1198 453 1198 c 2,25,-1
 766 1198 l 1,26,-1
 766 1155 l 1,27,28
 653.772727273 1155 653.772727273 1155 637 1114 c 1,29,-1
 637 84 l 1,0,1
1038 0 m 1,30,-1
 1038 43 l 1,31,32
 1087 43 1087 43 1114 49 c 1,33,-1
 647 643 l 1,34,-1
 1149 1141 l 1,35,36
 1121 1155 1121 1155 1044 1155 c 1,37,-1
 1044 1198 l 1,38,-1
 1366 1198 l 1,39,-1
 1366 1155 l 1,40,41
 1291.375 1155 1291.375 1155 1260.5 1129 c 0,42,43
 1251 1121 1251 1121 1239 1108 c 2,44,-1
 827 700 l 1,45,-1
 1309 76 l 1,46,47
 1342 43 1342 43 1438 43 c 1,48,-1
 1438 0 l 1,49,-1
 1038 0 l 1,30,-1
EndSplineSet
EndChar

StartChar: uni0199
Encoding: 409 409 338
Width: 1026
GlyphClass: 2
Flags: HW
LayerCount: 2
Fore
SplineSet
356 84 m 1,0,1
 372.772727273 43 372.772727273 43 485 43 c 1,2,-1
 485 0 l 1,3,-1
 43 0 l 1,4,-1
 43 43 l 1,5,6
 155.227272727 43 155.227272727 43 172 84 c 1,7,-1
 172 971 l 2,8,9
 172 1140 172 1140 241.5 1215 c 128,-1,10
 311 1290 311 1290 439.446969697 1290 c 0,11,12
 567.893939394 1290 567.893939394 1290 651.5 1228 c 0,13,14
 696 1195 696 1195 696 1159 c 128,-1,15
 696 1123 696 1123 669.5 1100 c 128,-1,16
 643 1077 643 1077 612.5 1077 c 128,-1,17
 582 1077 582 1077 561.5 1098.5 c 128,-1,18
 541 1120 541 1120 522 1156.5 c 128,-1,19
 503 1193 503 1193 497.5 1202.5 c 0,20,21
 482.157894737 1229 482.157894737 1229 444.578947368 1229 c 128,-1,22
 407 1229 407 1229 381.5 1170 c 128,-1,23
 356 1111 356 1111 356 999 c 2,24,-1
 356 84 l 1,0,1
635 0 m 1,25,-1
 635 43 l 1,26,27
 686 43 686 43 713 49 c 1,28,-1
 371 520 l 1,29,-1
 733 846 l 1,30,31
 703 858 703 858 633 858 c 1,32,-1
 633 901 l 1,33,-1
 954 901 l 1,34,-1
 954 858 l 1,35,36
 875 858 875 858 844 831 c 2,37,-1
 553 571 l 1,38,-1
 905 82 l 2,39,40
 920 60 920 60 948 51.5 c 128,-1,41
 976 43 976 43 1034 43 c 1,42,-1
 1034 0 l 1,43,-1
 635 0 l 1,25,-1
EndSplineSet
EndChar

StartChar: uni019D
Encoding: 413 413 339
Width: 1286
GlyphClass: 2
Flags: HW
LayerCount: 2
Fore
SplineSet
1020 1114 m 1,0,1
 1003.22727273 1155 1003.22727273 1155 891 1155 c 1,2,-1
 891 1198 l 1,3,-1
 1219 1198 l 1,4,-1
 1219 1155 l 1,5,6
 1106.77272727 1155 1106.77272727 1155 1090 1114 c 1,7,-1
 1090 0 l 1,8,-1
 1071 0 l 1,9,-1
 266 1018 l 1,10,-1
 266 0 l 2,11,12
 266 -202.545454545 266 -202.545454545 235 -273 c 0,13,14
 174.72 -410 174.72 -410 51 -410 c 0,15,16
 -15 -410 -15 -410 -72 -371.5 c 128,-1,17
 -129 -333 -129 -333 -129 -264 c 0,18,19
 -129 -223 -129 -223 -102.5 -195.5 c 128,-1,20
 -76 -168 -76 -168 -31.5 -168 c 128,-1,21
 13 -168 13 -168 32 -203 c 128,-1,22
 51 -238 51 -238 93 -238 c 128,-1,23
 135 -238 135 -238 158 -215 c 1,24,25
 197 -180 197 -180 197 14 c 2,26,-1
 197 1114 l 1,27,28
 180.227272727 1155 180.227272727 1155 68 1155 c 1,29,-1
 68 1198 l 1,30,-1
 342 1198 l 1,31,-1
 1020 360 l 1,32,-1
 1020 1114 l 1,0,1
EndSplineSet
EndChar

StartChar: Obar
Encoding: 415 415 340
Width: 1312
GlyphClass: 2
Flags: HW
AnchorPoint: "Anchor-0" 657 1270 basechar 0
LayerCount: 2
Fore
SplineSet
159.5 290.5 m 128,-1,1
 90 431 90 431 90 577 c 128,-1,2
 90 723 90 723 131.5 836 c 128,-1,3
 173 949 173 949 246 1034 c 128,-1,4
 319 1119 319 1119 426 1169 c 128,-1,5
 533 1219 533 1219 677 1219 c 128,-1,6
 821 1219 821 1219 952.5 1133.5 c 128,-1,7
 1084 1048 1084 1048 1154.5 906.5 c 128,-1,8
 1225 765 1225 765 1225 598 c 128,-1,9
 1225 431 1225 431 1153.5 290.5 c 128,-1,10
 1082 150 1082 150 951 65 c 128,-1,11
 820 -20 820 -20 655.5 -20 c 128,-1,12
 491 -20 491 -20 360 65 c 128,-1,0
 229 150 229 150 159.5 290.5 c 128,-1,1
295 639 m 1,13,-1
 1018 639 l 1,14,15
 1005.49451443 832.835026412 1005.49451443 832.835026412 915.5 983.5 c 0,16,17
 871 1058 871 1058 802 1103.5 c 128,-1,18
 733 1149 733 1149 655 1149 c 128,-1,19
 577 1149 577 1149 517.5 1118 c 0,20,21
 410.968574635 1062.49623216 410.968574635 1062.49623216 355.124601454 928.86958205 c 128,-1,22
 299.280628272 795.242931937 299.280628272 795.242931937 295 639 c 1,13,-1
1020 569 m 1,23,-1
 297 569 l 1,24,25
 307.296864576 373.359573049 307.296864576 373.359573049 394.5 219 c 0,26,27
 438 142 438 142 508.5 95.5 c 128,-1,28
 579 49 579 49 667.5 49 c 128,-1,29
 756 49 756 49 826 96 c 128,-1,30
 896 143 896 143 936.5 221 c 0,31,32
 1015.84716516 373.816762531 1015.84716516 373.816762531 1020 569 c 1,23,-1
EndSplineSet
EndChar

StartChar: Ohorn
Encoding: 416 416 341
Width: 1347
GlyphClass: 2
Flags: HW
AnchorPoint: "Anchor-5" 659 0 basechar 0
AnchorPoint: "Anchor-0" 657 1270 basechar 0
LayerCount: 2
Fore
SplineSet
1161 1098 m 1,0,1
 1067 1098 1067 1098 1067 1188 c 0,2,3
 1067 1227 1067 1227 1094.5 1253.5 c 128,-1,4
 1122 1280 1122 1280 1151 1280 c 0,5,6
 1224 1280 1224 1280 1268.5 1232 c 128,-1,7
 1313 1184 1313 1184 1313 1106 c 0,8,9
 1313 966 1313 966 1147 918 c 1,10,11
 1225 768 1225 768 1225 599.5 c 128,-1,12
 1225 431 1225 431 1153.5 290.5 c 128,-1,13
 1082 150 1082 150 951 65 c 128,-1,14
 820 -20 820 -20 655.5 -20 c 128,-1,15
 491 -20 491 -20 360 65 c 128,-1,16
 229 150 229 150 159.5 290.5 c 128,-1,17
 90 431 90 431 90 577 c 128,-1,18
 90 723 90 723 131.5 836 c 128,-1,19
 173 949 173 949 246 1034 c 128,-1,20
 319 1119 319 1119 426 1169 c 128,-1,21
 533 1219 533 1219 669.5 1219 c 128,-1,22
 806 1219 806 1219 926.5 1150 c 128,-1,23
 1047 1081 1047 1081 1122 961 c 1,24,25
 1214 997 1214 997 1214 1087 c 0,26,27
 1214 1102 1214 1102 1194 1102 c 1,28,-1
 1161 1098 l 1,0,1
295 612 m 0,29,30
 295 348.682352941 295 348.682352941 424.5 175 c 0,31,32
 518.447368421 49 518.447368421 49 666 49 c 0,33,34
 873.907801418 49 873.907801418 49 968.5 291.5 c 0,35,36
 1020 423.527272727 1020 423.527272727 1020 582 c 0,37,38
 1020 845.635294118 1020 845.635294118 888.5 1022 c 0,39,40
 793.807017544 1149 793.807017544 1149 649 1149 c 0,41,42
 441.007042254 1149 441.007042254 1149 346.5 905 c 0,43,44
 295 772.036363636 295 772.036363636 295 612 c 0,29,30
EndSplineSet
EndChar

StartChar: ohorn
Encoding: 417 417 342
Width: 1155
GlyphClass: 2
Flags: HW
AnchorPoint: "Anchor-5" 573 0 basechar 0
AnchorPoint: "Anchor-0" 561 1055 basechar 0
LayerCount: 2
Fore
SplineSet
1012 838 m 1,0,1
 918 838 918 838 918 928 c 0,2,3
 918 967 918 967 945 993.5 c 128,-1,4
 972 1020 972 1020 1001 1020 c 0,5,6
 1074 1020 1074 1020 1118.5 972 c 128,-1,7
 1163 924 1163 924 1163 846 c 0,8,9
 1163 704 1163 704 1001 657 c 1,10,11
 1036 569 1036 569 1036 468 c 128,-1,12
 1036 367 1036 367 1020 300.5 c 0,13,14
 986.063942852 159.453262479 986.063942852 159.453262479 874.427320263 69.7266312397 c 128,-1,15
 762.790697674 -20 762.790697674 -20 549.895348837 -20 c 128,-1,16
 337 -20 337 -20 208.5 113.5 c 128,-1,17
 80 247 80 247 80 451.54587156 c 128,-1,18
 80 656.091743119 80 656.091743119 192.341085271 789.04587156 c 128,-1,19
 304.682170543 922 304.682170543 922 553 922 c 0,20,21
 865 922 865 922 981 702 c 1,22,23
 1065 740 1065 740 1065 827 c 0,24,25
 1065 842 1065 842 1044 842 c 1,26,-1
 1012 838 l 1,0,1
276 508 m 0,27,28
 276 274 276 274 365 157.5 c 128,-1,29
 454 41 454 41 594 41 c 0,30,31
 705 41 705 41 772.5 140 c 128,-1,32
 840 239 840 239 840 395 c 0,33,34
 840 858 840 858 518 858 c 0,35,36
 410 858 410 858 343 754.5 c 128,-1,37
 276 651 276 651 276 508 c 0,27,28
EndSplineSet
EndChar

StartChar: uni01A4
Encoding: 420 420 343
Width: 1339
GlyphClass: 2
Flags: HW
LayerCount: 2
Fore
SplineSet
641 84 m 1,0,1
 657.772727273 43 657.772727273 43 770 43 c 1,2,-1
 770 0 l 1,3,-1
 324 0 l 1,4,-1
 324 43 l 1,5,6
 436.227272727 43 436.227272727 43 453 84 c 1,7,-1
 453 1128 l 1,8,9
 256 1128 256 1128 223 1090 c 1,10,11
 201 1068 201 1068 201 1025.5 c 128,-1,12
 201 983 201 983 235.5 964 c 128,-1,13
 270 945 270 945 270 900.5 c 128,-1,14
 270 856 270 856 242.5 829.5 c 128,-1,15
 215 803 215 803 174 803 c 0,16,17
 105 803 105 803 67 860 c 128,-1,18
 29 917 29 917 29 969 c 0,19,20
 29 1078.4516129 29 1078.4516129 96 1126 c 1,21,22
 139 1155 139 1155 166.5 1167 c 0,23,24
 237.541666667 1198 237.541666667 1198 453 1198 c 2,25,-1
 786 1198 l 2,26,27
 917 1198 917 1198 1020.5 1169 c 128,-1,28
 1124 1140 1124 1140 1183.5 1093.5 c 0,29,30
 1303 1000.1092437 1303 1000.1092437 1303 887 c 0,31,32
 1303 733 1303 733 1180 639 c 128,-1,33
 1057 545 1057 545 811 545 c 2,34,-1
 641 545 l 1,35,-1
 641 84 l 1,0,1
641 1128 m 1,36,-1
 641 614 l 1,37,-1
 811 614 l 2,38,39
 968 614 968 614 1033 677 c 128,-1,40
 1098 740 1098 740 1098 885 c 0,41,42
 1098 1128 1098 1128 786 1128 c 2,43,-1
 641 1128 l 1,36,-1
EndSplineSet
EndChar

StartChar: uni01A5
Encoding: 421 421 344
Width: 1067
GlyphClass: 2
Flags: HW
LayerCount: 2
Fore
SplineSet
324 -309 m 1,0,1
 340.772727273 -350 340.772727273 -350 453 -350 c 1,2,-1
 453 -393 l 1,3,-1
 10 -393 l 1,4,-1
 10 -350 l 1,5,6
 122.227272727 -350 122.227272727 -350 139 -309 c 1,7,-1
 139 950 l 2,8,9
 139 1119 139 1119 208.5 1194.5 c 128,-1,10
 278 1270 278 1270 407.23880597 1270 c 0,11,12
 536.47761194 1270 536.47761194 1270 619.5 1207.5 c 0,13,14
 664 1174 664 1174 664 1138 c 128,-1,15
 664 1102 664 1102 638 1079.5 c 128,-1,16
 612 1057 612 1057 580.5 1057 c 128,-1,17
 549 1057 549 1057 528 1079 c 128,-1,18
 507 1101 507 1101 488.5 1137 c 128,-1,19
 470 1173 470 1173 464.5 1182.5 c 0,20,21
 449.736842105 1208 449.736842105 1208 412.368421053 1208 c 128,-1,22
 375 1208 375 1208 349.5 1149.5 c 128,-1,23
 324 1091 324 1091 324 979 c 2,24,-1
 324 854 l 1,25,26
 421 922 421 922 552.333333333 922 c 0,27,28
 683.666666667 922 683.666666667 922 784.5 861.5 c 0,29,30
 987 740 987 740 987 446 c 0,31,32
 987 218 987 218 859.5 99 c 128,-1,33
 732 -20 732 -20 524 -20 c 0,34,35
 405 -20 405 -20 324 25 c 1,36,-1
 324 -309 l 1,0,1
324 786 m 1,37,-1
 324 90 l 1,38,39
 404 49 404 49 484.5 49 c 128,-1,40
 565 49 565 49 614.5 74 c 128,-1,41
 664 99 664 99 704.5 147 c 0,42,43
 793 251.888888889 793 251.888888889 793 446 c 0,44,45
 793 521 793 521 763 614 c 128,-1,46
 733 707 733 707 674.5 779.5 c 128,-1,47
 616 852 616 852 549 852 c 0,48,49
 409 852 409 852 324 786 c 1,37,-1
EndSplineSet
EndChar

